<ttFont>
          <CharString index="0">
            -16 31 -8 27 289 42 330 -13 callgsubr
            hintmask 10111110
            -81 callgsubr
            hintmask 01111110
            -102 callsubr
            hintmask 10111110
            -28 12 -16 23 -94 callsubr
            return
          </CharString>
          <CharString index="1">
            rmoveto
            -106 callgsubr
            return
          </CharString>
          <CharString index="2">
            -119 1 rmoveto
            0 4 -56 71 72 224 86 154 183 vhcurveto
            62 -5 51 -15 -30 vvcurveto
            -16 -24 -17 -18 -11 vhcurveto
            -8 -5 -3 80 callgsubr
            -4 1 6 0 5 hhcurveto
            24 3 47 34 28 vvcurveto
            43 -51 22 -56 10 vhcurveto
            129 119 101 154 184 vvcurveto
            59 -22 26 -32 -85 -154 -187 -247 -22 14 -11 14 10 10 5 12 6 vhcurveto
            2 -2 3 -3 2 vhcurveto
            -17 10 -1 52 19 vvcurveto
            171 119 137 63 23 16 -18 -41 -163 -97 -147 -123 -115 vhcurveto
            2 -21 -20 1 -18 hhcurveto
            -218 -281 -114 -109 -1 hvcurveto
            493 187 rmoveto
            9 9 0 -1 10 hvcurveto
            -129 -154 -182 -80 -90 hhcurveto
            -33 -21 12 25 -2 hvcurveto
            90 3 253 83 198 hhcurveto
            return
          </CharString>
          <CharString index="3">
            hstem
            38 callgsubr
            vstem
            -107 callgsubr
            return
          </CharString>
          <CharString index="4">
            -41 -68 rmoveto
            -21 -7 9 6 -3 hvcurveto
            -2 3 -1 4 2 vvcurveto
            2 1 1 1 1 vhcurveto
            73 54 72 75 71 81 rrcurveto
            -87 47 -43 71 55 vvcurveto
            47 32 36 66 68 51 -46 -59 36 vhcurveto
            159 200 134 192 70 1 rrcurveto
            25 -1 5 -17 -14 vvcurveto
            -80 -131 -259 -98 -204 vhcurveto
            43 3 48 9 31 15 rrcurveto
            4 10 1 10 2 hhcurveto
            8 5 -7 -5 -26 -86 -15 -70 -6 hvcurveto
            -20 -42 -19 -40 -15 -35 rrcurveto
            -6 -3 -5 -2 -4 hhcurveto
            -21 0 23 17 hvcurveto
            -3 24 -5 29 -6 32 -57 4 -49 13 -42 18 rrcurveto
            -1 vlineto
            -97 -119 -117 -104 0 vvcurveto
            78 callgsubr
            75 156 154 329 46 vvcurveto
            9 -3 8 -9 -41 -151 -210 -181 -137 vhcurveto
            27 -51 17 -57 12 -45 rrcurveto
            -3 18 19 -1 19 hhcurveto
            77 callsubr
            59 -34 -46 43 -60 hhcurveto
            -50 -22 -23 -31 -45 45 -64 79 -46 hvcurveto
            30 35 29 36 29 36 rrcurveto
            14 -27 rmoveto
            -25 -34 -25 -32 -24 -30 35 -17 40 -14 45 -7 -11 44 -14 48 -21 42 rrcurveto
            return
          </CharString>
          <CharString index="5">
            0 -235 -285 -82 -22 -4 20 13 115 262 296 -78 callsubr
            2 -3 2 vhcurveto
            -1 hlineto
            -5 70 callgsubr
            -74 callsubr
            -116 -267 -292 -128 vvcurveto
            -24 16 -29 34 90 198 224 23 19 vhcurveto
            -70 -102 -31 -79 -45 vvcurveto
            return
          </CharString>
          <CharString index="6">
            rmoveto
            3 1 2 2 3 vvcurveto
            -1 5 -4 3 -4 4 -79 65 rcurveline
            3 -3 -3 1 -4 hhcurveto
            -9 -5 -6 -8 -6 2 -3 4 -4 hvcurveto
            85 -54 rlineto
            -2 4 6 -4 6 hhcurveto
            return
          </CharString>
          <CharString index="7">
            -101 callgsubr
            endchar
          </CharString>
          <CharString index="8">
            -97 99 -3 16 115 173 114 33 4 -2 3 -4 1 vhcurveto
            -5 -8 -10 0 hvcurveto
            -115 -107 -102 -9 -16 -1 rrcurveto
            -84 -13 52 33 161 260 120 39 18 hvcurveto
            5 2 2 4 5 vvcurveto
            4 -2 9 -5 -4 -3 -4 0 vhcurveto
            -28 -43 -49 -4 -25 hhcurveto
            -83 -33 26 37 104 254 198 123 46 return
          </CharString>
          <CharString index="9">
            vvcurveto
            -99 callsubr
            18 -19 -26 -3 0 -2 72 callgsubr
            -98 -39 -90 -77 -32 vvcurveto
            return
          </CharString>
          <CharString index="10">
            12 hlineto
            26 25 6 13 21 hvcurveto
            -96 115 -99 callgsubr
            return
          </CharString>
          <CharString index="11">
            rmoveto
            -26 -13 -23 -18 -19 -20 rrcurveto
            -2 6 -1 7 81 callgsubr
            34 19 31 27 25 -14 -33 -29 -17 -31 -22 -26 vhcurveto
            -28 7 -25 17 -14 22 rrcurveto
            30 38 41 21 9 vvcurveto
            4 -1 1 -2 -3 -5 -2 0 vhcurveto
            return
          </CharString>
          <CharString index="12">
            1 callgsubr
            110 -20 -104 callsubr
            return
          </CharString>
          <CharString index="13">
            -70 callsubr
            vhcurveto
            return
          </CharString>
          <CharString index="14">
            rmoveto
            19 37 25 43 28 43 46 2 62 3 17 12 rrcurveto
            1 1 2 2 1 72 callsubr
            5 -6 vhcurveto
            -3 hlineto
            -37 -5 -30 -3 -38 -1 rrcurveto
            79 122 88 116 0 vvcurveto
            21 27 1 11 2 vvcurveto
            1 vlineto
            6 -1 -14 1 -6 hhcurveto
            -23 -59 -31 -73 -109 hvcurveto
            -71 -48 -80 -61 -70 -76 rrcurveto
            0 -3 -6 -6 vvcurveto
            -5 3 -6 14 vhcurveto
            0 116 6 56 vhcurveto
            7 hlineto
            -34 -51 -27 -43 -10 -20 rrcurveto
            0 -4 -6 -5 vvcurveto
            -8 18 0 8 5 7 1 9 4 vhcurveto
            return
          </CharString>
          <CharString index="15">
            vvcurveto
            -24 19 -9 26 40 57 21 17 33 vhcurveto
            -91 callgsubr
            return
          </CharString>
          <CharString index="16">
            -4 callgsubr
            -89 callsubr
            return
          </CharString>
          <CharString index="17">
            -20 5 callsubr
            hintmask 11011111
            -105 callgsubr
            hintmask 11101111
            -64 callgsubr
            return
          </CharString>
          <CharString index="18">
            -84 callgsubr
            hvcurveto
            return
          </CharString>
          <CharString index="19">
            313 626 rmoveto
            3 4 0 49 callsubr
            5 -6 2 -8 -7 -8 -2 -2 -4 vhcurveto
            -93 -72 -112 -43 31 callgsubr
            -14 -8 -4 -18 vhcurveto
            -1 0 -3 4 60 callgsubr
            2 5 vhcurveto
            0 103 48 65 49 vhcurveto
            0 2 1 2 1 2 -1 -1 -2 -169 -237 -56 -119 vhcurveto
            0 -2 -3 -3 vvcurveto
            -5 14 -2 5 5 7 3 9 5 vhcurveto
            0 123 234 131 160 vhcurveto
            return
          </CharString>
          <CharString index="20">
            -58 callgsubr
            -64 callsubr
            return
          </CharString>
          <CharString index="21">
            rmoveto
            -87 callsubr
            return
          </CharString>
          <CharString index="22">
            -71 callsubr
            7 14 16 9 5 vhcurveto
            return
          </CharString>
          <CharString index="23">
            -93 callsubr
            -81 139 -65 callgsubr
            endchar
          </CharString>
          <CharString index="24">
            -20 20 callgsubr
            hintmask 11101000
            -50 callsubr
            47 -26 19 -30 -22 callsubr
            vhcurveto
            hintmask 11110000
            -53 callsubr
            -97 callsubr
            return
          </CharString>
          <CharString index="25">
            vvcurveto
            -12 5 -14 21 -94 callsubr
            0 -15 0 12 vvcurveto
            return
          </CharString>
          <CharString index="26">
            -20 -35 callgsubr
            hintmask 1101111010000000
            -61 callgsubr
            hintmask 1110110110000000
            -79 callsubr
            hintmask 1110111010000000
            -59 callsubr
            hintmask 1110110110000000
            -40 callgsubr
            return
          </CharString>
          <CharString index="27">
            rmoveto
            15 -20 25 -13 27 -5 rrcurveto
            -24 -24 -27 -16 -16 hhcurveto
            -10 -6 5 13 23 6 20 10 17 hvcurveto
            return
          </CharString>
          <CharString index="28">
            85 -33 34 -47 -61 callsubr
            vhcurveto
            -56 callsubr
            return
          </CharString>
          <CharString index="29">
            1 105 vhcurveto
            90 -77 22 -68 -220 -215 -200 -107 -39 28 -26 67 134 192 194 46 4 -2 return
          </CharString>
          <CharString index="30">
            -39 26 -26 60 140 170 190 40 4 -1 4 -3 -5 -5 -10 0 vhcurveto
            -124 -92 -95 -60 -97 hhcurveto
            -42 -18 18 28 87 182 181 192 79 36 -32 -77 return
          </CharString>
          <CharString index="31">
            16 43 44 9 42 hhcurveto
            24 17 -4 -4 7 hvcurveto
            5 -3 2 -4 -3 vvcurveto
            -13 -29 -15 -4 -1 vhcurveto
            -5 -1 -3 -4 -2 vvcurveto
            -3 5 -3 3 21 36 23 34 18 -14 16 -43 -45 -48 -11 -18 -49 vhcurveto
            8 27 4 26 26 vvcurveto
            52 -23 39 -53 15 vhcurveto
            141 130 128 181 117 vvcurveto
            69 -45 47 -114 vhcurveto
            -464 -1123 rmoveto
            72 178 194 191 85 vhcurveto
            -196 -67 -215 -175 -67 hhcurveto
            -13 -7 6 14 hvcurveto
            268 562 rmoveto
            13 12 -1 -2 11 hvcurveto
            return
          </CharString>
          <CharString index="32">
            30 26 -19 -47 -32 -16 -34 -22 -30 hvcurveto
            12 hlineto
            19 19 4 11 17 hvcurveto
            2 66 callsubr
            3 hhcurveto
            3 2 -2 -2 -2 -2 -3 -5 -4 hvcurveto
            -96 115 rmoveto
            0 5 2 3 2 1 -1 -4 -9 -41 -21 -30 -38 vhcurveto
            14 -22 25 -17 28 -7 rrcurveto
            22 26 17 31 29 vvcurveto
            33 -25 14 -27 -31 -34 -19 -28 -7 1 -7 2 -6 vhcurveto
            19 20 23 18 26 13 rrcurveto
            -74 -93 rmoveto
            -10 -17 -6 -20 -23 vvcurveto
            -13 6 -5 10 16 27 16 24 24 vhcurveto
            -27 5 -25 13 -15 20 rrcurveto
            return
          </CharString>
          <CharString index="33">
            -104 -75 -116 -94 -109 hhcurveto
            -52 -23 19 28 88 213 181 187 52 55 -26 -59 hvcurveto
            return
          </CharString>
          <CharString index="34">
            20 27 hvcurveto
            4 6 2 4 2 vvcurveto
            5 -10 1 -13 4 vhcurveto
            -8 70 callgsubr
            return
          </CharString>
          <CharString index="35">
            -70 callgsubr
            27 callsubr
            27 callgsubr
            return
          </CharString>
          <CharString index="36">
            -2 -4 -2 -6 -4 vvcurveto
            -6 3 -4 6 return
          </CharString>
          <CharString index="37">
            -103 callgsubr
            0 -122 -79 -46 return
          </CharString>
          <CharString index="38">
            -4 4 -1 5 7 10 4 5 11 vhcurveto
            12 5 6 13 0 vvcurveto
            return
          </CharString>
          <CharString index="39">
            -7 callgsubr
            -27 callsubr
            -8 -60 -70 -50 hhcurveto
            return
          </CharString>
          <CharString index="40">
            -20 hstem
            -21 40 31 25 42 33 vstem
            117 167 rmoveto
            23 callsubr
            -66 -47 -49 -11 2 -8 3 -7 vhcurveto
            -19 -17 -19 -15 -18 -10 rrcurveto
            -23 callsubr
            17 10 18 15 19 17 12 -17 20 -9 13 -17 rrcurveto
            4 callsubr
            10 callgsubr
            return
          </CharString>
          <CharString index="41">
            -68 -152 -98 -84 -15 9 -10 21 36 58 34 7 6 hvcurveto
            59 callgsubr
            -10 -10 vvcurveto
            return
          </CharString>
          <CharString index="42">
            -38 18 -25 53 146 191 185 5 5 vhcurveto
            3 5 4 5 4 vvcurveto
            82 callgsubr
            -3 2 57 callgsubr
            -9 -13 -15 0 hvcurveto
            -115 -138 -73 -40 -91 hhcurveto
            -32 -15 15 23 return
          </CharString>
          <CharString index="43">
            -10 -22 -9 -21 0 0 -20 21 hvcurveto
            return
          </CharString>
          <CharString index="44">
            28 callgsubr
            -1 vhcurveto
            -6 -6 -21 -22 -30 callgsubr
            return
          </CharString>
          <CharString index="45">
            78 callsubr
            -4 -2 4 3 4 3 3 0 hvcurveto
            12 11 6 10 8 vvcurveto
            10 -6 5 -10 -42 -112 -81 -54 -10 6 -6 14 vhcurveto
            50 60 70 8 hhcurveto
            7 -1 3 -4 -5 return
          </CharString>
          <CharString index="46">
            -125 -228 -238 -155 -70 25 -25 34 73 116 116 32 82 callgsubr
            -2 1 return
          </CharString>
          <CharString index="47">
            5 4 2 3 2 42 callsubr
            -3 -3 2 callsubr
            return
          </CharString>
          <CharString index="48">
            -13 callsubr
            38 25 -27 -65 -254 -272 -279 -149 -56 -38 39 94 hvcurveto
            return
          </CharString>
          <CharString index="49">
            -8 5 -2 8 -56 callgsubr
            return
          </CharString>
          <CharString index="50">
            5 -29 3 -24 rrcurveto
            -17 0 -23 21 4 5 2 6 3 vhcurveto
            15 35 19 40 20 42 return
          </CharString>
          <CharString index="51">
            -7 callsubr
            -5 -4 -8 0 hvcurveto
            -69 -44 -59 -43 -42 hhcurveto
            return
          </CharString>
          <CharString index="52">
            1 -4 0 -3 -4 vvcurveto
            -93 -144 -193 -77 callgsubr
            return
          </CharString>
          <CharString index="53">
            -150 -92 -192 -86 -40 18 -39 58 hvcurveto
            162 345 rmoveto
            35 14 -23 -34 return
          </CharString>
          <CharString index="54">
            -27 -33 -16 -36 -24 vvcurveto
            -28 12 -12 19 30 45 30 40 35 vhcurveto
            return
          </CharString>
          <CharString index="55">
            32 hhcurveto
            28 1 -15 -10 -89 -120 -47 -23 -4 -1 2 2 8 21 19 12 8 hvcurveto
            3 3 79 callsubr
            10 -18 5 -1 vhcurveto
            hintmask 11111000
            -7 -46 -29 -26 -17 19 -6 5 89 110 99 69 20 -10 19 -37 hvcurveto
            -264 -239 rmoveto
            -196 -104 -84 -122 -44 hhcurveto
            -4 -2 3 6 return
          </CharString>
          <CharString index="56">
            rmoveto
            -49 callgsubr
            83 53 0 6 120 vhcurveto
            1 callsubr
            return
          </CharString>
          <CharString index="57">
            220 70 -66 callgsubr
            -19 hhcurveto
            -12 hlineto
            22 30 16 34 32 vvcurveto
            return
          </CharString>
          <CharString index="58">
            hhcurveto
            9 9 -3 -13 -28 callsubr
            33 38 19 16 -18 9 -30 return
          </CharString>
          <CharString index="59">
            0 1 -2 -3 vvcurveto
            -4 -1 -5 -8 -4 vhcurveto
            return
          </CharString>
          <CharString index="60">
            -20 callsubr
            -54 callsubr
            return
          </CharString>
          <CharString index="61">
            35 callsubr
            vhcurveto
            0 -11 -3 -11 callgsubr
            return
          </CharString>
          <CharString index="62">
            28 -55 callgsubr
            hintmask 11010000
            10 5 54 36 22 vvcurveto
            17 -10 7 -18 -94 -110 -110 -62 return
          </CharString>
          <CharString index="63">
            rmoveto
            5 3 2 4 3 vvcurveto
            4 -3 3 0 vhcurveto
            -103 90 rlineto
            0 -15 -4 -8 vvcurveto
            -3 3 -3 5 -5 vhcurveto
            66 -70 -118 return
          </CharString>
          <CharString index="64">
            -24 vvcurveto
            -16 -16 -14 -4 -3 vhcurveto
            -4 -3 -3 -4 -3 vvcurveto
            -2 1 -1 2 2 2 1 1 4 vhcurveto
            17 6 28 15 29 vvcurveto
            return
          </CharString>
          <CharString index="65">
            rmoveto
            14 -11 14 18 43 71 28 6 vvcurveto
            3 -5 2 -3 vhcurveto
            -16 -6 -82 -28 -82 vvcurveto
            -15 7 -19 19 7 13 4 18 vhcurveto
            return
          </CharString>
          <CharString index="66">
            -26 callgsubr
            -112 45 -46 66 return
          </CharString>
          <CharString index="67">
            50 60 46 -43 -59 34 vhcurveto
            14 -27 rmoveto
            21 -42 14 -48 11 -44 return
          </CharString>
          <CharString index="68">
            -8 3 -9 11 return
          </CharString>
          <CharString index="69">
            138 66 60 -23 23 hstemhm
            hintmask 01000000
            357 103 28 callgsubr
            -2 vhcurveto
            -4 -14 -21 -31 -36 -57 41 -47 hhcurveto
            -46 -37 -35 -6 hvcurveto
            2 -1 rlineto
            12 24 19 20 hhcurveto
            hintmask 10000000
            52 38 -37 56 hhcurveto
            hintmask 01000000
            32 39 16 21 hvcurveto
            endchar
          </CharString>
          <CharString index="70">
            76 vmoveto
            -2 -1 -1 -3 -35 callsubr
            9 6 10 6 10 8 50 40 rcurveline
            0 6 5 4 1 1 0 -1 vhcurveto
            -16 -79 -97 -27 vvcurveto
            -6 2 -7 4 11 8 9 116 161 vhcurveto
            return
          </CharString>
          <CharString index="71">
            -8 -13 -39 -51 -31 vvcurveto
            -14 8 -10 23 -103 callgsubr
            return
          </CharString>
          <CharString index="72">
            -2 vvcurveto
            -3 1 -2 3 66 callsubr
            1 2 vhcurveto
            return
          </CharString>
          <CharString index="73">
            -133 -152 -95 -46 -15 17 -10 38 68 95 55 79 92 hvcurveto
            45 -14 19 -33 -44 vvcurveto
            -29 -5 -29 -7 -28 vhcurveto
            -208 -94 -207 -213 -84 vvcurveto
            -29 13 -13 22 92 246 222 201 74 vhcurveto
            return
          </CharString>
          <CharString index="74">
            -10 7 -11 18 45 108 98 10 11 vhcurveto
            -5 -7 -49 -62 -1 -23 rrcurveto
            return
          </CharString>
          <CharString index="75">
            rmoveto
            -19 -19 1 3 -18 hvcurveto
            -12 45 -17 57 -27 51 rrcurveto
            return
          </CharString>
          <CharString index="76">
            0 -14 -13 -4 vvcurveto
            -2 7 callsubr
            vhcurveto
            return
          </CharString>
          <CharString index="77">
            -1 -1 9 hvcurveto
            14 17 15 6 3 -10 return
          </CharString>
          <CharString index="78">
            4 14 10 7 16 -35 10 -32 hvcurveto
            -76 -103 -24 -4 hhcurveto
            -4 0 2 3 27 151 98 -9 -6 hvcurveto
            63 42 154 87 88 vvcurveto
            35 -35 13 -33 -106 -99 -81 -42 -14 12 -10 27 55 75 37 24 vhcurveto
            return
          </CharString>
          <CharString index="79">
            hvcurveto
            -22 -22 0 -11 vvcurveto
            -4 5 -3 3 16 return
          </CharString>
          <CharString index="80">
            23 31 27 11 vvcurveto
            5 -3 4 -7 1 vhcurveto
            return
          </CharString>
          <CharString index="81">
            0 -122 -79 -46 return
          </CharString>
          <CharString index="82">
            -7 -6 -58 -34 -36 hhcurveto
            -21 -9 10 15 84 152 98 68 20 13 -9 -19 -24 -41 -28 -7 hvcurveto
            return
          </CharString>
          <CharString index="83">
            84 -44 callsubr
            -69 11 callgsubr
            return
          </CharString>
          <CharString index="84">
            -2 -2 -1 -2 -35 callsubr
            return
          </CharString>
          <CharString index="85">
            -43 -52 -38 -48 -10 1 -9 3 -8 return
          </CharString>
          <CharString index="86">
            137 -24 29 168 34 423 31 -31 74 return
          </CharString>
          <CharString index="87">
            rmoveto
            106 134 150 123 71 -39 13 -35 return
          </CharString>
          <CharString index="88">
            50 callgsubr
            -2 -2 vvcurveto
            -32 -116 -116 -73 -34 -25 25 70 155 228 238 125 47 33 -34 -85 -250 -314 -316 -173 -66 -45 46 112 return
          </CharString>
          <CharString index="89">
            -47 -43 -194 -212 -95 hhcurveto
            -27 -13 18 23 hvcurveto
            125 return
          </CharString>
          <CharString index="90">
            -19 -14 -20 -14 -18 -10 -8 -5 rcurveline
            -4 1 3 -1 4 hhcurveto
            60 callgsubr
            1 3 hvcurveto
            return
          </CharString>
          <CharString index="91">
            35 callgsubr
            235 189 25 callsubr
            hintmask 01100000
            -6 callsubr
            return
          </CharString>
          <CharString index="92">
            22 30 16 34 32 vvcurveto
            -45 callgsubr
            return
          </CharString>
          <CharString index="93">
            rrcurveto
            -9 9 -9 8 60 callgsubr
            6 2 vhcurveto
            return
          </CharString>
          <CharString index="94">
            -30 -21 22 52 153 190 196 102 return
          </CharString>
          <CharString index="95">
            274 226 228 145 48 return
          </CharString>
          <CharString index="96">
            rrcurveto
            1 2 1 3 1 vvcurveto
            return
          </CharString>
          <CharString index="97">
            35 vstem
            261 412 -42 callsubr
            return
          </CharString>
          <CharString index="98">
            vvcurveto
            -33 29 -25 46 vhcurveto
            hintmask 01101000
            170 121 79 110 96 hvcurveto
            97 -1 125 12 callgsubr
            return
          </CharString>
          <CharString index="99">
            277 -55 33 210 36 481 54 return
          </CharString>
          <CharString index="100">
            73 callgsubr
            0 -1 hhcurveto
            return
          </CharString>
          <CharString index="101">
            -6 -120 -53 0 -83 hhcurveto
            -32 -3 3 7 6 2 14 13 1 hvcurveto
            return
          </CharString>
          <CharString index="102">
            40 -30 callsubr
            1 return
          </CharString>
          <CharString index="103">
            1 59 25 23 16 -16 2 -13 return
          </CharString>
          <CharString index="104">
            2 -1 rlineto
            10 15 19 13 return
          </CharString>
          <CharString index="105">
            rmoveto
            -42 hlineto
            9 -37 3 -26 31 callgsubr
            12 24 18 39 vhcurveto
            endchar
          </CharString>
          <CharString index="106">
            -42 36 -28 90 40 47 10 0 vhcurveto
            return
          </CharString>
          <CharString index="107">
            -119 39 488 31 109 30 return
          </CharString>
          <CharString index="108">
            13 1 2 12 9 vvcurveto
            return
          </CharString>
          <CharString index="109">
            -3 8 callsubr
            vhcurveto
            return
          </CharString>
          <CharString index="110">
            13 vvcurveto
            6 -4 7 -8 1 vhcurveto
            -6 -5 -4 0 hvcurveto
            -12 -23 return
          </CharString>
          <CharString index="111">
            -51 -9 -76 -31 -38 vvcurveto
            -18 20 -9 26 51 74 32 55 return
          </CharString>
          <CharString index="112">
            hstemhm
            -14 54 8 51 252 38 return
          </CharString>
          <CharString index="113">
            3 1 60 callsubr
            return
          </CharString>
          <CharString index="114">
            3 -1 2 return
          </CharString>
          <CharString index="115">
            -1 -2 -2 return
          </CharString>
          <CharString index="116">
            -90 -13 -123 -113 -55 vvcurveto
            -18 13 -11 30 30 44 28 42 48 vhcurveto
            -1 -7 0 -7 -6 vvcurveto
            return
          </CharString>
          <CharString index="117">
            28 32 25 21 2 4 -1 -3 -9 -26 -31 0 vhcurveto
            return
          </CharString>
          <CharString index="118">
            168 -442 45 353 28 51 24 286 44 return
          </CharString>
          <CharString index="119">
            -62 -21 86 -21 34 -21 277 67 362 -20 hstemhm
            48 32 255 29 -6 32 255 29 return
          </CharString>
          <CharString index="120">
            52 20 -33 -50 -177 -246 -397 0 hvcurveto
            0 -8 -12 -9 vvcurveto
            -6 6 -3 5 8 return
          </CharString>
          <CharString index="121">
            -73 callsubr
            -42 -58 return
          </CharString>
          <CharString index="122">
            54 22 68 44 0 55 callsubr
            -53 -36 -52 -27 vhcurveto
            return
          </CharString>
          <CharString index="123">
            -43 -34 -132 -73 -106 hhcurveto
            -77 -63 39 119 return
          </CharString>
          <CharString index="124">
            1 rrcurveto
            7 2 2 7 6 vvcurveto
            10 0 1 -11 return
          </CharString>
          <CharString index="125">
            -16 -15 -17 -16 -12 -6 10 8 12 11 22 21 return
          </CharString>
          <CharString index="126">
            hstemhm
            -16 50 -50 167 return
          </CharString>
          <CharString index="127">
            1 3 3 vvcurveto
            return
          </CharString>
          <CharString index="128">
            -54 callsubr
            hvcurveto
            return
          </CharString>
          <CharString index="129">
            hhcurveto
            64 23 -23 -29 hvcurveto
            -2 vlineto
            -124 -12 -83 -85 -44 vvcurveto
            -16 10 -10 23 vhcurveto
            return
          </CharString>
          <CharString index="130">
            20 24 20 21 16 vvcurveto
            8 -5 4 -8 -28 return
          </CharString>
          <CharString index="131">
            rmoveto
            -31 callsubr
            return
          </CharString>
          <CharString index="132">
            rmoveto
            7 2 -2 -3 -9 -2 -12 -13 -1 hvcurveto
            return
          </CharString>
          <CharString index="133">
            hstemhm
            -31 43 -16 42 -42 228 return
          </CharString>
          <CharString index="134">
            37 26 -37 39 hhcurveto
            return
          </CharString>
          <CharString index="135">
            169 140 123 120 119 -118 59 -102 hvcurveto
            -4 -20 rmoveto
            97 return
          </CharString>
          <CharString index="136">
            336 -440 36 412 31 -3 26 116 24 137 42 332 26 return
          </CharString>
          <CharString index="137">
            7 14 -11 callsubr
            endchar
          </CharString>
          <CharString index="138">
            -20 hstemhm
            -299 28 326 223 -41 41 hintmask 11110100
            231 197 rmoveto
            return
          </CharString>
          <CharString index="139">
            vvcurveto
            7 callsubr
            -6 -9 callgsubr
            return
          </CharString>
          <CharString index="140">
            132 169 101 29 9 -3 3 -5 return
          </CharString>
          <CharString index="141">
            hhcurveto
            -11 -5 8 13 hvcurveto
            return
          </CharString>
          <CharString index="142">
            0 0 4 -5 return
          </CharString>
          <CharString index="143">
            5 -1 3 -2 -3 -5 -6 0 vhcurveto
            -70 -37 -111 -95 -120 hhcurveto
            return
          </CharString>
          <CharString index="144">
            hhcurveto
            7 5 -5 -17 1 hvcurveto
            return
          </CharString>
          <CharString index="145">
            vvcurveto
            -21 11 -14 23 return
          </CharString>
          <CharString index="146">
            -131 70 -42 86 33 callsubr
            vhcurveto
            return
          </CharString>
          <CharString index="147">
            -31 callsubr
            48 6 26 2 39 1 return
          </CharString>
          <CharString index="148">
            hvcurveto
            12 hlineto
            16 11 -2 9 hhcurveto
            7 return
          </CharString>
          <CharString index="149">
            81 callsubr
            2 return
          </CharString>
          <CharString index="150">
            hstemhm
            -150 39 328 33 30 30 117 31 -31 213 return
          </CharString>
          <CharString index="151">
            -55 -417 29 409 -21 31 140 -30 30 -30 43 return
          </CharString>
          <CharString index="152">
            rmoveto
            -188 -124 -141 -119 -87 64 -74 159 return
          </CharString>
          <CharString index="153">
            rmoveto
            12 20 11 21 13 21 rrcurveto
            return
          </CharString>
          <CharString index="154">
            -30 -38 -17 -29 -17 -14 6 14 return
          </CharString>
          <CharString index="155">
            -2 8 callsubr
            vvcurveto
            return
          </CharString>
          <CharString index="156">
            2 2 vvcurveto
            return
          </CharString>
          <CharString index="157">
            48 -5 callsubr
            return
          </CharString>
          <CharString index="158">
            hstemhm
            0 38 -8 34 -11 42 332 41 145 48 return
          </CharString>
          <CharString index="159">
            26 251 22 266 182 -24 24 hstemhm
            0 37 return
          </CharString>
          <CharString index="160">
            rmoveto
            8 6 5 7 4 vvcurveto
            7 -6 6 0 vhcurveto
            return
          </CharString>
          <CharString index="161">
            rmoveto
            -8 -6 -5 -7 -4 vvcurveto
            -7 6 -6 0 vhcurveto
            return
          </CharString>
          <CharString index="162">
            -48 callsubr
            0 return
          </CharString>
          <CharString index="163">
            -48 -414 29 379 31 return
          </CharString>
          <CharString index="164">
            hstem
            -228 34 327 34 return
          </CharString>
          <CharString index="165">
            -114 -16 31 return
          </CharString>
          <CharString index="166">
            -11 0 hvcurveto
            return
          </CharString>
          <CharString index="167">
            3 2 vvcurveto
            return
          </CharString>
          <CharString index="168">
            -125 -156 -144 -64 -18 13 -12 29 return
          </CharString>
          <CharString index="169">
            rlineto
            -11 -5 -6 -6 -13 vvcurveto
            -14 vlineto
            endchar
          </CharString>
          <CharString index="170">
            27 callgsubr
            endchar
          </CharString>
          <CharString index="171">
            rmoveto
            35 callsubr
            return
          </CharString>
          <CharString index="172">
            21 -16 31 0 -21 return
          </CharString>
          <CharString index="173">
            2 3 1 return
          </CharString>
          <CharString index="174">
            15 2 12 16 8 vvcurveto
            1 -1 1 -4 return
          </CharString>
          <CharString index="175">
            -11 -18 -41 -23 -12 -3 1 0 1 vhcurveto
            return
          </CharString>
          <CharString index="176">
            73 callsubr
            endchar
          </CharString>
          <CharString index="177" raw="1">
            898a890b   
          </CharString>
          <CharString index="178">
            -4 -8 -3 callgsubr
            return
          </CharString>
          <CharString index="179">
            vvcurveto
            3 -2 return
          </CharString>
          <CharString index="180">
            -3 callgsubr
            vvcurveto
            return
          </CharString>
          <CharString index="181">
            15 -144 -21 887 -20 hstem
            return
          </CharString>
          <CharString index="182">
            -1 3 4 4 2 5 0 hvcurveto
            return
          </CharString>
          <CharString index="183">
            1 -20 hstemhm
            hintmask 10000000
            return
          </CharString>
          <CharString index="184">
            -138 168 rmoveto
            return
          </CharString>
          <CharString index="185">
            189 119 rmoveto
            return
          </CharString>
          <CharString index="186">
            2 49 callsubr
            return
          </CharString>
          <CharString index="187">
            59 46 59 return
          </CharString>
          <CharString index="188">
            vvcurveto
            2 -2 return
          </CharString>
          <CharString index="189">
            0 0 vhcurveto
            return
          </CharString>
        <CharString name=".notdef">
          -122 endchar
        </CharString>
        <CharString name="A">
          1 callgsubr
          -104 callsubr
          115 -160 -34 callgsubr
        </CharString>
        <CharString name="AE">
          608 -54 28 -21 -21 85 -21 327 23 340 28 -3 25 hstemhm
          13 30 448 54 77 37 197 38 hintmask 1011011111000000
          883 -27 callgsubr
          35 7 33 -62 callgsubr
          -28 -6 -8 -27 hvcurveto
          8 vlineto
          34 -23 25 -61 -117 -192 -130 -114 -85 vhcurveto
          37 85 26 70 35 vvcurveto
          hintmask 0111101111000000
          -71 callgsubr
          44 -70 86 -47 hvcurveto
          -71 -82 -72 -74 -73 -55 -52 callgsubr
          0 callgsubr
          1 41 -18 49 -13 57 -5 rlinecurve
          6 -31 -57 callsubr
          33 3 37 5 30 7 rrcurveto
          -20 -32 -11 -31 -27 vvcurveto
          hintmask 1011011111000000
          -99 callsubr
          17 -19 -27 hvcurveto
          -7 vlineto
          -98 -39 -90 -75 -33 vvcurveto
          -10 8 -6 19 vhcurveto
          -490 -357 -32 callsubr
          hintmask 1011101111000000
          -60 callgsubr
          37 1 rmoveto
          40 82 44 91 39 85 rrcurveto
          -44 33 -30 93 40 47 10 0 vhcurveto
          -101 -47 -80 -64 -47 -62 -30 -12 -41 -7 -37 -2 rrcurveto
          -175 167 -31 callgsubr
          32 22 22 -40 callsubr
          -44 7 -40 14 -35 17 23 30 25 32 25 34 rrcurveto
          636 235 rmoveto
          -11 -5 3 6 21 65 52 81 32 hvcurveto
          -54 -23 -65 -60 -42 hhcurveto
          -521 -395 -34 callgsubr
        </CharString>
        <CharString name="Aacute">
          1 callgsubr
          113 -20 -93 callgsubr
          388 461 -106 callsubr
          -273 -621 -2 callsubr
        </CharString>
        <CharString name="Acircumflex">
          -95 callsubr
          399 511 -101 callgsubr
          -284 -671 -34 callgsubr
        </CharString>
        <CharString name="Adieresis">
          1 callgsubr
          36 61 10 -20 hstemhm
          13 30 524 59 -4 37 13 59 hintmask 1111010110000000
          -107 callgsubr
          447 532 -96 callgsubr
          hintmask 1110111010000000
          -105 10 -96 callgsubr
          -227 -702 -34 callgsubr
        </CharString>
        <CharString name="Agrave">
          -95 callsubr
          425 458 -101 callsubr
          -310 -618 -34 callgsubr
        </CharString>
        <CharString name="Aring">
          6 callgsubr
          718 37 -18 89 hstemhm
          38 callgsubr
          hintmask 11101100
          -103 callsubr
          363 485 rmoveto
          hintmask 11011100
          9 callgsubr
          hvcurveto
          hintmask 11101100
          18 callsubr
          vhcurveto
          -299 -684 -2 callsubr
        </CharString>
        <CharString name="Atilde">
          6 callgsubr
          763 -20 57 23 -93 callgsubr
          493 517 -72 callsubr
          -378 -677 -2 callsubr
        </CharString>
        <CharString name="B">
          434 -82 26 197 24 146 41 3 23 325 33 hstemhm
          -57 42 100 47 521 35 -6 29 -17 47 hintmask 1111111101000000
          653 273 rmoveto
          -43 -12 -38 -19 -34 vhcurveto
          5 -24 -28 2 -30 hhcurveto
          -205 -250 -134 -71 -25 32 -17 77 117 210 82 129 105 hvcurveto
          hintmask 1111111010000000
          34 -10 22 -17 -43 callsubr
          34 -27 22 -41 12 vhcurveto
          hintmask 1111111101000000
          28 42 17 46 49 vvcurveto
          54 -46 35 -85 -18 -19 -2 -4 -21 vhcurveto
          76 36 166 143 96 vvcurveto
          51 -47 38 -134 -227 -390 -189 -173 -65 callsubr
          148 316 165 231 119 43 -31 -44 -101 -229 -170 -37 -11 13 callgsubr
          16 36 30 5 25 hhcurveto
          84 38 -39 -43 hvcurveto
          -124 -132 rmoveto
          28 27 -3 -4 22 hvcurveto
          -129 -93 -212 -61 -102 hhcurveto
          -47 -20 10 15 53 236 119 161 hvcurveto
          11 498 -14 callgsubr
          -297 -488 -9 vvcurveto
          -69 callsubr
          78 131 201 346 30 callsubr
        </CharString>
        <CharString name="C">
          162 -34 52 callsubr
          206 30 350 42 hintmask 11011110
          -19 callgsubr
          hintmask 11101110
          -25 callgsubr
          39 callsubr
          endchar
        </CharString>
        <CharString name="Ccedilla">
          162 -124 116 -26 52 callsubr
          -37 125 118 30 350 42 hintmask 1010110110000000
          -19 callgsubr
          hintmask 1011001110000000
          -25 callgsubr
          -101 42 -47 58 -17 vhcurveto
          -7 -9 -12 -16 -1 -3 rrcurveto
          -42 callgsubr
          10 15 rlineto
          hintmask 0111010110000000
          -3 13 14 -1 14 hhcurveto
          33 callsubr
          hvcurveto
          endchar
        </CharString>
        <CharString name="D">
          287 -63 20 184 24 169 -90 callgsubr
          66 505 -14 callgsubr
          -280 -471 -9 vvcurveto
          -69 callsubr
          78 131 184 329 30 callsubr
        </CharString>
        <CharString name="DLE">
          endchar
        </CharString>
        <CharString name="E">
          -20 callgsubr
          5 callsubr
          hintmask 11011110
          -105 callgsubr
          hintmask 11101110
          -64 callgsubr
          endchar
        </CharString>
        <CharString name="Eacute">
          -20 callgsubr
          130 -20 5 callsubr
          hintmask 11101111
          378 495 rmoveto
          -19 -8 6 10 32 90 77 98 39 hvcurveto
          1 2 0 2 3 vvcurveto
          hintmask 11011111
          26 -18 19 -46 -123 -254 -198 -104 -37 33 -26 83 25 49 4 28 43 vhcurveto
          0 3 4 4 5 2 -9 -4 -5 -2 -4 -5 -2 vhcurveto
          -39 -18 -260 -120 -161 vvcurveto
          -33 13 -52 84 vhcurveto
          16 1 102 9 115 107 rrcurveto
          0 8 10 5 vhcurveto
          4 -1 2 -3 -4 vvcurveto
          -33 -173 -114 -115 -16 -99 3 97 85 108 125 167 77 vhcurveto
          0 -47 -10 -40 -90 -36 28 42 118 284 225 153 61 24 -25 -33 -3 0 -3 -1 -3 vhcurveto
          9 28 27 5 26 hhcurveto
          5 5 -1 -1 3 hvcurveto
          4 -1 2 -5 -5 vvcurveto
          -6 -3 -7 -5 -1 vhcurveto
          -34 -34 -7 -10 -32 hvcurveto
          hintmask 11101111
          -67 -28 -86 -77 -69 hhcurveto
          6 28 rmoveto
          -6 5 -3 11 41 65 60 54 24 vhcurveto
          -82 -33 -64 -52 -20 vvcurveto
          124 256 -102 callgsubr
        </CharString>
        <CharString name="Ecircumflex">
          -20 callgsubr
          118 -90 callsubr
          116 297 -100 callsubr
        </CharString>
        <CharString name="Edieresis">
          -20 callgsubr
          54 61 5 callsubr
          35 80 callsubr
          hintmask 1101111111000000
          -105 callgsubr
          hintmask 1110111111000000
          -64 callgsubr
          84 328 -83 callgsubr
          -84 callgsubr
          hvcurveto
          endchar
        </CharString>
        <CharString name="Egrave">
          -20 callgsubr
          121 -90 callsubr
          205 247 -98 callgsubr
        </CharString>
        <CharString name="Eth">
          287 -63 20 184 24 132 24 13 -90 callgsubr
          -278 167 rmoveto
          40 callsubr
          rrcurveto
          -48 -83 -38 -67 -3 vvcurveto
          -69 callsubr
          20 33 27 47 29 51 rrcurveto
          47 39 -30 callsubr
          1 -66 1 hvcurveto
          -37 hlineto
          82 143 93 166 5 10 -11 callsubr
          -46 callsubr
          2 -2 -99 -168 -80 -138 -51 -2 -36 -4 -9 69 callsubr
        </CharString>
        <CharString name="Euro">
          264 -34 26 251 22 31 26 209 182 -24 24 hstemhm
          -50 37 252 30 312 43 hintmask 11101111
          -80 309 24 callsubr
          29 3 21 3 21 1 -5 -12 -4 -13 -4 -12 -30 -2 -20 -2 -7 36 callgsubr
          34 4 23 3 24 1 rrcurveto
          -8 -33 -5 -33 -33 vvcurveto
          39 callsubr
          16 callsubr
          30 4 30 7 29 hvcurveto
          40 hlineto
          32 callgsubr
          -32 -30 -1 -1 -25 hvcurveto
          3 12 5 12 4 12 rrcurveto
          1 15 16 0 21 hhcurveto
          32 callgsubr
          -35 -33 -1 -2 -27 hvcurveto
          211 91 237 159 129 hhcurveto
          72 28 -35 -51 -124 -169 -214 -102 -25 -16 12 28 hvcurveto
          hintmask 11110111
          -33 callgsubr
          141 190 231 138 59 -35 42 -88 -147 -264 -170 -226 -100 vhcurveto
          -25 -2 -18 -1 -6 69 callsubr
        </CharString>
        <CharString name="F">
          113 -2 -21 217 34 80 38 316 38 4 -20 hstemhm
          -128 21 hintmask 11110100
          459 700 rmoveto
          -365 -222 -213 -112 -40 29 -27 60 146 166 125 16 callgsubr
          -65 -79 hhcurveto
          -51 -23 18 27 87 237 185 298 hvcurveto
          15 8 -1 375 hhcurveto
          71 33 33 4 hvcurveto
          hintmask 11101100
          71 callgsubr
          hintmask 11110100
          -3 -21 -191 0 -233 hhcurveto
          32 -82 rmoveto
          -46 callsubr
          2 -2 -106 -201 -91 -172 -83 -3 -72 -5 -10 -1 rrcurveto
          -22 -2 -8 -5 0 0 -19 -16 -6 vvcurveto
          -3 4 -1 4 vhcurveto
          56 7 68 3 66 2 rrcurveto
          -60 -114 -49 -94 -4 vvcurveto
          -69 callsubr
          98 191 rlineto
          62 hlineto
          66 53 -1 -1 14 hvcurveto
          18 24 20 8 5 -13 1 -52 1 hvcurveto
          -38 hlineto
          -36 -41 -1 -1 -41 hvcurveto
          199 386 rlineto
          1 2 1 3 1 vvcurveto
          endchar
        </CharString>
        <CharString name="G">
          198 -296 -21 341 29 370 27 259 23 hstem
          -6 45 349 37 vstem
          471 273 rmoveto
          2 1 -1 -3 -19 -299 -431 -30 -83 hvcurveto
          -6 -17 -2 -12 -8 vvcurveto
          -13 5 -3 7 17 53 33 6 3 -6 0 -2 vhcurveto
          -25 -2 rlineto
          -5 -4 1 4 2 1 3 2 4 hvcurveto
          13 21 379 605 10 20 rrcurveto
          5 9 4 5 3 vvcurveto
          3 -3 1 -5 -12 -13 -8 -12 -10 vhcurveto
          -67 -56 -219 -264 -161 hhcurveto
          -51 -22 30 47 313 381 266 143 33 20 -14 -31 hvcurveto
          -1 vlineto
          -96 -48 -132 -102 -66 vvcurveto
          -17 10 -7 16 60 145 106 116 20 vhcurveto
          7 20 18 5 14 hhcurveto
          8 8 12 9 5 -3 5 -9 2 hvcurveto
          -13 -19 -6 -9 -21 hvcurveto
          39 -2 -25 18 -41 hhcurveto
          -166 -414 -291 -320 -59 31 -38 72 159 215 249 0 hvcurveto
          -31 177 rmoveto
          -9 -6 5 9 51 103 80 85 39 hvcurveto
          -102 -20 -112 -82 -41 hhcurveto
          endchar
        </CharString>
        <CharString name="H">
          171 -89 -21 125 -21 417 38 277 -20 hstem
          -8 35 vstem
          558 176 rmoveto
          -47 -23 -52 -13 -55 -3 104 190 210 364 6 10 rrcurveto
          5 9 3 6 4 vvcurveto
          5 -4 1 -4 vhcurveto
          -30 -2 -6 -11 -5 -9 -33 -59 -177 -319 -97 -189 rrcurveto
          -23 -23 1 3 -22 hvcurveto
          -11 48 -18 44 -22 39 rrcurveto
          217 385 2 5 3 vvcurveto
          7 callsubr
          -6 -28 -11 -16 0 vhcurveto
          -195 -344 rlineto
          86 -58 -74 53 -51 hhcurveto
          -35 -25 -25 -58 -88 68 -69 93 -42 hvcurveto
          -144 -253 rlineto
          -71 callsubr
          15 29 23 -2 -4 vhcurveto
          135 241 32 -12 34 -8 35 -5 rlinecurve
          8 -34 5 -36 -38 vvcurveto
          -21 7 -4 11 12 4 17 16 9 vhcurveto
          2 8 20 35 26 50 58 2 56 12 46 23 rrcurveto
          6 3 5 7 4 vvcurveto
          3 -4 2 -3 vhcurveto
          -395 8 rmoveto
          -80 40 -56 64 82 vvcurveto
          28 13 13 21 39 67 -48 -79 53 vhcurveto
          -21 -115 rmoveto
          13 25 18 30 13 23 17 -31 14 -34 11 -37 -30 5 -29 8 -27 11 rrcurveto
          112 -45 rmoveto
          -2 19 19 -2 18 hhcurveto
          -20 -40 -17 -33 -9 -22 rrcurveto
          0 -1 4 7 vvcurveto
          30 -3 29 -6 29 vhcurveto
          endchar
        </CharString>
        <CharString name="I">
          -8 callsubr
          -97 callgsubr
          endchar
        </CharString>
        <CharString name="Iacute">
          -8 callsubr
          116 -20 hstem
          0 callsubr
          82 41 vstem
          -119 1 rmoveto
          109 1 281 114 218 hhcurveto
          18 20 -1 -2 21 hvcurveto
          123 115 97 147 163 vvcurveto
          41 -16 18 -23 -63 -119 -137 -171 -19 1 -52 17 -10 vhcurveto
          3 -2 2 80 callgsubr
          -12 -6 -10 -5 -10 hhcurveto
          -14 -14 11 22 247 154 187 85 32 22 -26 -59 -184 -101 -154 -129 -119 hvcurveto
          56 -10 51 -22 -43 vvcurveto
          -28 -47 -34 -24 -3 vhcurveto
          -5 -6 0 4 -1 hvcurveto
          2 3 3 8 5 vhcurveto
          18 11 24 17 16 vvcurveto
          30 -51 15 -62 5 vhcurveto
          -154 -183 -224 -86 -72 hhcurveto
          -71 -4 56 0 hvcurveto
          493 187 rmoveto
          -198 -253 -83 -90 -3 hvcurveto
          -25 2 21 -12 33 hhcurveto
          90 182 80 129 154 hvcurveto
          1 -10 -9 0 -9 hhcurveto
          301 600 -102 callgsubr
        </CharString>
        <CharString name="Icircumflex">
          -8 callsubr
          107 -20 -97 callgsubr
          320 644 -100 callsubr
        </CharString>
        <CharString name="Idieresis">
          -8 callsubr
          48 61 hstemhm
          0 callsubr
          16 59 7 41 -2 59 hintmask 1111111110000000
          -105 callsubr
          264 680 -96 callgsubr
          105 -10 rmoveto
          hintmask 1111111101000000
          -91 callsubr
          endchar
        </CharString>
        <CharString name="Igrave">
          -8 callsubr
          115 -20 -97 callgsubr
          350 599 -98 callgsubr
        </CharString>
        <CharString name="J">
          228 -422 45 360 120 -27 27 -10 31 542 30 hstemhm
          -118 41 98 35 410 39 51 49 hintmask 1010111110000000
          439 76 rmoveto
          20 7 -12 -15 -17 -9 -20 -10 -9 hvcurveto
          -8 -4 -6 -8 -5 vvcurveto
          hintmask 1100111110000000
          -2 1 -1 3 37 31 44 42 22 -32 12 -22 -35 -34 -6 -9 -34 vhcurveto
          140 222 117 227 72 vvcurveto
          62 -26 25 -41 -154 -363 -356 -187 vhcurveto
          hintmask 1001111110000000
          -43 21 -17 31 87 164 133 71 5 -3 2 -2 -5 -6 -3 -4 -1 vhcurveto
          -53 -13 -110 -120 -77 hhcurveto
          -36 -15 19 30 161 330 332 124 28 18 -18 -41 -62 -117 -242 -134 -229 hvcurveto
          -233 -87 -190 -269 -101 vvcurveto
          -24 11 -15 24 74 181 235 247 158 vhcurveto
          hintmask 1010111110000000
          10 35 37 6 37 hhcurveto
          -516 -430 rmoveto
          75 154 238 210 85 vhcurveto
          -220 -133 -145 -201 -68 hhcurveto
          -12 -6 8 15 hvcurveto
          endchar
        </CharString>
        <CharString name="K">
          230 -6 -21 39 -21 202 20 119 22 377 -20 hstemhm
          0 36 423 31 hintmask 01111110
          467 688 rmoveto
          0 2 3 3 vvcurveto
          82 callgsubr
          -4 -11 -29 -7 -12 -5 vhcurveto
          -177 -325 rlineto
          -121 -121 -58 -59 -31 21 -13 36 28 38 8 16 44 hvcurveto
          -121 -222 rlineto
          -4 3 0 5 7 9 0 5 11 vhcurveto
          12 5 7 17 0 vvcurveto
          25 42 48 85 52 95 37 17 41 20 42 23 rrcurveto
          64 -36 50 -67 -113 vvcurveto
          -39 -14 -43 0 vhcurveto
          0 -6 -11 -8 vvcurveto
          hintmask 10111110
          -5 3 -5 5 vhcurveto
          0 43 46 97 vvcurveto
          107 -45 64 -63 34 vhcurveto
          178 105 185 153 55 135 rrcurveto
          11 -20 6 -10 -8 -1 -10 0 vhcurveto
          -70 -141 -173 -148 -160 -99 -23 9 -24 6 -26 3 91 167 87 162 4 8 rrcurveto
          -255 -356 rmoveto
          6 5 0 -1 6 hvcurveto
          -50 -92 rlineto
          -17 -42 -36 -9 -25 hhcurveto
          -26 -14 10 21 48 83 40 93 hvcurveto
          60 -6 rmoveto
          17 -3 17 -5 16 -7 -29 -17 -28 -16 -26 -13 10 20 12 21 11 20 rrcurveto
          endchar
        </CharString>
        <CharString name="L">
          -177 228 -39 39 438 67 callgsubr
          239 50 rmoveto
          1 -18 -17 0 -16 hhcurveto
          263 203 91 396 245 hhcurveto
          63 24 -22 -29 hvcurveto
          -4 vlineto
          -124 -12 -83 -85 -43 vvcurveto
          -16 10 -10 23 vhcurveto
          hintmask 10011000
          83 87 75 66 22 41 callsubr
          2 5 8 10 -6 2 0 hvcurveto
          3 -14 -13 1 -18 hhcurveto
          3 vlineto
          37 -28 28 -71 -300 -102 -413 -261 -194 vhcurveto
          -334 -7 -115 -97 -66 -9 callsubr
          -69 2 vhcurveto
          -690 -160 rmoveto
          50 110 75 289 2 vhcurveto
          -100 -84 -102 -70 -141 hhcurveto
          -46 -26 18 25 hvcurveto
          924 636 rmoveto
          30 63 64 107 13 vhcurveto
          -57 -24 -78 -66 -48 hhcurveto
          -14 -6 6 10 hvcurveto
          endchar
        </CharString>
        <CharString name="Lslash">
          -177 227 -38 38 439 67 callgsubr
          205 291 rmoveto
          -1 -9 -14 -5 -2 3 0 2 hvcurveto
          39 12 24 6 28 6 -46 -85 -48 -85 -55 -74 rrcurveto
          -333 -7 -115 -97 -65 -9 callsubr
          -233 7 vhcurveto
          1 -18 -17 0 -16 hhcurveto
          60 77 50 89 48 88 rrcurveto
          2 2 0 1 2 hvcurveto
          47 8 40 6 9 1 rrcurveto
          67 callsubr
          -26 -41 -8 -9 -43 vhcurveto
          198 107 95 180 165 22 callsubr
          hintmask 01011000
          3 callgsubr
          -19 hhcurveto
          4 vlineto
          36 -27 28 -71 -208 -113 -198 -209 -114 vhcurveto
          -50 -13 -42 -12 -7 -2 rrcurveto
          -420 -449 rmoveto
          -45 -27 19 24 50 110 75 289 2 hvcurveto
          -100 -84 -102 -70 -141 hhcurveto
          872 663 30 callgsubr
        </CharString>
        <CharString name="M">
          320 -7 22 -10 -21 33 -21 331 37 331 -20 hstemhm
          -243 30 hintmask 10011100
          464 25 rmoveto
          15 8 21 18 33 vhcurveto
          179 324 rlineto
          2 4 20 callsubr
          12 -14 7 -6 vhcurveto
          -33 -354 -402 -20 hhcurveto
          9 20 32 54 224 338 1 38 rlinecurve
          0 0 13 -27 vhcurveto
          -62 -62 -365 -382 43 callgsubr
          -231 -204 -185 -108 -44 34 -31 80 162 119 151 49 36 callsubr
          -61 -25 21 31 90 208 174 176 13 callsubr
          8 6 0 vhcurveto
          48 54 376 390 14 14 rrcurveto
          7 7 2 1 2 hhcurveto
          2 0 -2 -1 hvcurveto
          -11 -54 -257 -344 -55 vvcurveto
          hintmask 00111100
          -6 4 -7 7 13 17 20 0 vhcurveto
          40 42 333 339 9 8 rrcurveto
          7 7 9 6 2 hhcurveto
          2 0 -2 -1 hvcurveto
          -176 -306 rlineto
          -30 -51 -13 -28 -20 vvcurveto
          hintmask 01011100
          -57 callgsubr
          hintmask 10011100
          -7 callgsubr
          endchar
        </CharString>
        <CharString name="N">
          224 -16 31 337 37 331 -20 53 callgsubr
          15 10 33 229 446 vhcurveto
          2 4 20 callsubr
          12 -24 7 -6 vhcurveto
          -62 -62 -345 -397 43 callgsubr
          -220 -228 -187 -107 -43 37 -31 90 147 134 157 43 36 callsubr
          -64 -27 22 32 90 211 172 178 13 callsubr
          14 6 0 vhcurveto
          48 54 360 405 14 14 13 14 rcurveline
          0 -246 -447 -54 vvcurveto
          -12 5 -14 -86 callgsubr
          -5 2 8 vhcurveto
          endchar
        </CharString>
        <CharString name="Ntilde">
          224 -16 31 337 37 353 23 53 callgsubr
          -43 callgsubr
          54 246 447 0 vhcurveto
          -13 -14 -14 -14 -360 -405 -48 -54 rlinecurve
          0 -14 -6 -8 -5 -6 3 6 9 8 12 0 vhcurveto
          0 246 397 177 vvcurveto
          50 -20 33 -52 -178 -211 -172 -90 -32 27 -22 64 120 111 95 70 37 vhcurveto
          0 5 6 3 2 1 -3 -5 -43 -134 -157 -147 -90 -37 31 43 107 228 187 220 67 26 -39 -58 -178 -237 -361 0 vhcurveto
          9 5 345 397 62 62 rrcurveto
          6 24 -7 -12 -3 -1 -3 -2 -4 hvcurveto
          -229 -446 -10 -33 -15 vvcurveto
          276 717 -72 callsubr
          endchar
        </CharString>
        <CharString name="O">
          -21 callsubr
          -35 callgsubr
          hintmask 11011101
          -61 callgsubr
          hintmask 11101011
          -79 callsubr
          hintmask 11101101
          -59 callsubr
          hintmask 11101011
          -40 callgsubr
          endchar
        </CharString>
        <CharString name="OE">
          457 -54 28 2 29 168 34 116 23 149 241 -106 31 -31 74 7 25 hstemhm
          0 42 123 37 138 54 8 51 252 38 hintmask 1111010111111000
          732 -88 callgsubr
          -72 -99 -49 -64 -86 vhcurveto
          26 -15 -22 12 -27 hhcurveto
          -61 callsubr
          hvcurveto
          -56 callsubr
          -13 callsubr
          24 18 -11 -24 11 hvcurveto
          -83 -68 -62 -79 -55 vvcurveto
          -1 callsubr
          -105 -49 -82 -67 -46 -64 rrcurveto
          -89 -82 -96 -59 -68 hhcurveto
          -56 -38 39 94 -12 callsubr
          hvcurveto
          6 1 6 3 6 vvcurveto
          hintmask 1111001111111000
          -41 callsubr
          67 89 48 74 84 vhcurveto
          -7 -18 -4 -18 -16 -98 callsubr
          hintmask 1111100011111000
          -64 callgsubr
          endchar
        </CharString>
        <CharString name="Oacute">
          -21 callsubr
          88 -20 -35 callgsubr
          hintmask 1110110110000000
          -15 callgsubr
          hintmask 1110111010000000
          4 callgsubr
          hintmask 1110110110000000
          -19 callsubr
          vhcurveto
          hintmask 1101111010000000
          55 callgsubr
          104 7 -102 callgsubr
        </CharString>
        <CharString name="Ocircumflex">
          -21 callsubr
          114 -81 callsubr
          139 86 -100 callsubr
        </CharString>
        <CharString name="Odieresis">
          -21 callsubr
          53 61 -21 callgsubr
          41 59 44 41 -41 61 hintmask 1101111011000000
          -61 callgsubr
          hintmask 1110110111000000
          -79 callsubr
          hintmask 1110111010100000
          -59 callsubr
          hintmask 1110110110100000
          -40 callgsubr
          73 120 -83 callgsubr
          -84 callgsubr
          hvcurveto
          endchar
        </CharString>
        <CharString name="Ograve">
          -21 callsubr
          79 -81 callsubr
          191 -2 -98 callgsubr
        </CharString>
        <CharString name="Oslash">
          137 -93 -21 91 28 168 34 423 31 112 -20 -35 callgsubr
          hintmask 1111110110000000
          443 640 rmoveto
          -124 -61 -154 -184 -127 vvcurveto
          -40 8 -25 13 -15 vhcurveto
          -97 -171 rlineto
          -29 18 -18 38 65 vvcurveto
          -40 callgsubr
          -26 callgsubr
          -87 27 -47 43 -16 vhcurveto
          -42 -74 rlineto
          -85 callsubr
          37 67 rlineto
          -1 5 5 0 5 hhcurveto
          173 314 314 251 85 -33 34 -47 -13 -14 -2 -5 -14 hvcurveto
          49 89 13 23 25 callgsubr
          50 -215 rmoveto
          -255 -273 -278 -149 -8 -7 0 2 -7 vhcurveto
          35 62 30 54 30 52 rrcurveto
          -1 5 5 -1 6 hhcurveto
          73 116 115 33 82 callgsubr
          -2 1 hvcurveto
          -56 callsubr
          -9 -8 2 4 -7 hvcurveto
          231 411 rlineto
          4 12 11 2 10 hhcurveto
          38 26 -27 -65 hvcurveto
          hintmask 1111111010000000
          -355 -257 rmoveto
          123 122 150 101 55 vhcurveto
          -58 -104 -82 -143 -74 -130 rrcurveto
          -6 12 -3 16 21 vvcurveto
          endchar
        </CharString>
        <CharString name="Otilde">
          137 -24 29 0 168 0 34 423 31 0 105 18 23 -35 callgsubr
          hintmask 0101011011000000
          -15 callgsubr
          hintmask 1011011101000000
          4 callgsubr
          hintmask 1010111011000000
          -19 callsubr
          55 callgsubr
          227 86 -72 callsubr
          endchar
        </CharString>
        <CharString name="P">
          -34 -5 -21 332 39 366 34 hstem
          -151 42 732 49 vstem
          436 615 24 callgsubr
          -200 -357 -43 -14 -43 -9 -41 41 callgsubr
          3 -10 3 vhcurveto
          39 4 39 9 39 12 -133 -238 rcurveline
          -69 callsubr
          28 47 51 91 54 97 rrcurveto
          234 90 210 193 121 vvcurveto
          62 -55 43 -135 -235 -398 -216 -144 -2 callgsubr
          138 343 172 211 127 51 -39 -56 -106 -184 -167 -196 -80 hvcurveto
          92 164 95 173 4 9 -11 callsubr
          endchar
        </CharString>
        <CharString name="Q">
          173 -197 -21 234 31 131 27 197 27 231 28 hstemhm
          0 41 109 37 121 33 -3 32 78 35 163 31 hintmask 1111111011100000
          402 681 rmoveto
          -224 -87 -178 -269 -168 vvcurveto
          -83 44 -58 102 55 57 21 35 56 vhcurveto
          9 -69 15 -45 -61 vvcurveto
          -75 -27 -19 0 vhcurveto
          -6 -7 0 -2 -6 vvcurveto
          -2 1 -4 4 vhcurveto
          24 1 36 85 86 vvcurveto
          37 -8 53 -7 55 vhcurveto
          172 128 150 244 130 vvcurveto
          53 -24 34 -58 -190 -255 -293 -142 -45 26 -30 62 vhcurveto
          hintmask 1111111101100000
          22 24 7 12 24 hvcurveto
          -18 vlineto
          -34 1 -28 3 -26 vhcurveto
          -27 -46 -46 -17 -43 hhcurveto
          -95 -41 55 77 153 159 243 208 94 hvcurveto
          8 3 79 callsubr
          4 -16 1 0 vhcurveto
          244 -102 rmoveto
          -121 -140 -225 -154 -115 vhcurveto
          -5 35 -4 34 -2 29 rrcurveto
          76 52 66 89 45 vvcurveto
          17 -9 10 -21 -75 -57 -103 -109 -11 vhcurveto
          -7 -17 -17 -5 -17 hhcurveto
          -51 -21 25 39 125 221 266 160 55 23 -32 -49 hvcurveto
          -198 -193 rmoveto
          -33 -47 -76 -60 -42 vhcurveto
          8 vlineto
          59 54 99 40 1 vhcurveto
          9 4 -6 -10 hvcurveto
          endchar
        </CharString>
        <CharString name="R">
          267 -17 -21 52 -21 244 27 51 41 363 34 hstem
          -154 45 732 49 vstem
          435 623 24 callgsubr
          -201 -366 -34 -9 -33 -6 -33 41 callgsubr
          15 -2 3 vhcurveto
          27 3 28 5 27 7 -123 -224 rcurveline
          -69 callsubr
          26 45 46 82 49 90 rrcurveto
          11 hlineto
          231 44 -250 0 0 3 -24 8 -1 hvcurveto
          5 1 8 6 hvcurveto
          -1 147 -96 139 -139 2 rrcurveto
          209 90 168 171 115 vvcurveto
          62 -55 51 -135 -290 -346 -278 -113 -29 22 -18 53 107 188 127 58 39 vhcurveto
          3 5 4 5 4 vvcurveto
          2 -3 5 -4 -3 -11 33 callgsubr
          -46 -20 15 24 94 305 230 249 127 51 -47 -56 -111 -184 -172 -198 -74 hvcurveto
          91 167 96 182 5 9 -11 callsubr
          endchar
        </CharString>
        <CharString name="S">
          45 callgsubr
          43 callsubr
          hintmask 1111111010000000
          -74 callgsubr
          hintmask 1111111100000000
          -69 callgsubr
          endchar
        </CharString>
        <CharString name="Scaron">
          45 callgsubr
          124 -20 43 callsubr
          hintmask 1111111101000000
          -74 callgsubr
          hintmask 1111111110000000
          -69 callgsubr
          143 316 rmoveto
          0 -38 65 -11 -3 -3 -2 -4 -2 vhcurveto
          -30 14 20 -63 11 hhcurveto
          11 131 79 5 7 callsubr
          -4 -1 -1 0 72 callgsubr
          -39 -15 -42 -19 -40 -20 rrcurveto
          endchar
        </CharString>
        <CharString name="T">
          -32 -14 -21 317 38 331 37 4 -20 hstemhm
          -206 42 hintmask 11101000
          470 688 rmoveto
          -363 -313 -237 -112 -35 30 -22 67 146 166 139 16 callgsubr
          -79 -79 hhcurveto
          -41 -20 16 25 88 238 197 364 5 hvcurveto
          0 30 -1 265 71 33 33 4 vhcurveto
          hintmask 11011000
          71 callgsubr
          hintmask 11101000
          -3 -21 -87 0 -233 hhcurveto
          -45 -73 -14 callgsubr
          -341 -614 -9 vvcurveto
          -69 callsubr
          68 131 255 472 30 callsubr
        </CharString>
        <CharString name="Thorn">
          34 -5 -21 239 39 365 35 102 -20 hstem
          -171 42 732 49 vstem
          514 750 24 callgsubr
          -48 -86 rlineto
          -238 -23 -351 -199 -135 vvcurveto
          -2 callgsubr
          132 316 164 212 13 hvcurveto
          -269 -478 -30 -7 -30 -5 -29 41 callgsubr
          3 -10 3 vhcurveto
          26 3 27 5 27 7 -76 -135 rcurveline
          -69 callsubr
          16 26 26 46 32 56 rrcurveto
          249 82 234 209 128 vvcurveto
          62 -55 42 -135 vhcurveto
          -1 hlineto
          30 53 19 35 2 4 -11 callsubr
          -331 -595 rmoveto
          81 142 108 194 70 126 rrcurveto
          115 -3 46 -38 -53 vvcurveto
          -113 -209 -183 -211 -72 vhcurveto
          endchar
        </CharString>
        <CharString name="U">
          -107 callsubr
          endchar
        </CharString>
        <CharString name="Uacute">
          -107 callsubr
          128 586 -102 callgsubr
        </CharString>
        <CharString name="Ucircumflex">
          -107 callsubr
          173 644 -100 callsubr
        </CharString>
        <CharString name="Udieresis">
          -16 31 -8 27 289 42 263 67 4 -13 callgsubr
          82 80 callsubr
          hintmask 1011011111000000
          -81 callgsubr
          hintmask 0111011111000000
          -102 callsubr
          hintmask 1011011111000000
          -28 12 -16 23 -94 callsubr
          222 674 -96 callgsubr
          hintmask 1010111111000000
          -105 10 -96 callgsubr
          endchar
        </CharString>
        <CharString name="Ugrave">
          -107 callsubr
          188 557 -98 callgsubr
        </CharString>
        <CharString name="V">
          170 -5 26 302 42 330 -20 hstem
          -185 30 235 52 220 43 vstem
          352 596 rmoveto
          -119 -272 -310 -107 vvcurveto
          -43 9 -22 47 164 245 292 204 110 vhcurveto
          20 36 35 76 17 vvcurveto
          4 -6 5 -4 -19 -46 -79 -57 -68 vhcurveto
          -6 -5 -4 -5 -6 vvcurveto
          -8 10 -5 7 4 5 1 4 4 vhcurveto
          8 10 26 30 11 hhcurveto
          3 -1 0 -1 -1 vvcurveto
          -44 -322 -439 -146 -26 -11 20 26 98 262 313 -78 callsubr
          4 -4 -5 22 callgsubr
          vhcurveto
          -74 callsubr
          endchar
        </CharString>
        <CharString name="W">
          324 -5 23 -7 24 282 38 77 28 232 -20 hstemhm
          -214 31 235 49 184 32 7 36 199 29 hintmask 0111111111000000
          204 678 rmoveto
          87 33 -29 -46 hvcurveto
          -133 -272 -276 -129 vvcurveto
          -48 43 -6 23 51 58 24 36 58 vhcurveto
          -3 vlineto
          hintmask 1011111111000000
          -44 25 -29 62 189 244 410 56 27 vhcurveto
          0 44 85 5 10 vhcurveto
          1 2 0 49 callsubr
          6 -7 3 -6 1 vhcurveto
          -6 -3 -8 0 hvcurveto
          -32 -39 -23 -27 -43 -23 -9 -7 rlinecurve
          -5 -4 -1 -4 -5 vvcurveto
          -8 2 -7 9 4 11 6 30 45 vhcurveto
          -316 -165 -189 -142 -72 hhcurveto
          -54 -21 27 41 hvcurveto
          7 vlineto
          142 102 129 169 67 vvcurveto
          18 -9 11 -22 vhcurveto
          -53 -1 -195 -232 -22 -136 rrcurveto
          hintmask 0111111111000000
          -34 -53 -54 -22 -48 hhcurveto
          -23 -8 17 18 hvcurveto
          113 259 272 144 vvcurveto
          56 -40 37 -111 -218 -205 -194 -107 -53 29 -21 42 116 197 150 76 19 vhcurveto
          5 -2 3 -4 -5 22 callgsubr
          vhcurveto
          -53 -33 -169 -135 -99 hhcurveto
          -33 -22 16 44 88 202 175 185 hvcurveto
          355 -264 rmoveto
          -53 -112 -152 -127 -95 vhcurveto
          123 22 153 195 46 hhcurveto
          12 6 -6 -12 hvcurveto
          endchar
        </CharString>
        <CharString name="X">
          176 -17 -21 22 31 330 44 331 -20 hstem
          -205 38 373 47 69 42 vstem
          334 15 rmoveto
          -62 -19 49 60 72 27 88 14 42 hvcurveto
          153 119 131 104 0 vvcurveto
          116 89 93 43 6 2 rrcurveto
          3 2 2 3 4 vvcurveto
          7 -8 11 -9 -49 -161 -132 -8 -11 vhcurveto
          -92 -71 -83 -66 -77 -63 rrcurveto
          28 91 28 96 63 vvcurveto
          0 0 100 -129 -238 -202 -203 -107 -77 callsubr
          -45 -41 -120 -33 -108 hvcurveto
          -182 -148 -140 -119 -112 -70 rrcurveto
          -10 -6 -2 -7 -4 vvcurveto
          -5 5 0 0 9 10 10 0 vhcurveto
          42 25 189 145 179 139 rrcurveto
          -17 -53 -13 -60 -52 vvcurveto
          -74 26 -58 74 -94 callsubr
          endchar
        </CharString>
        <CharString name="Y">
          11 callsubr
          314 20 hstem
          -210 47 callgsubr
          vstem
          359 -104 callgsubr
          endchar
        </CharString>
        <CharString name="Yacute">
          11 callsubr
          314 20 hstem
          -208 47 callgsubr
          vstem
          361 -104 callgsubr
          517 938 -102 callgsubr
        </CharString>
        <CharString name="Ydieresis">
          11 callsubr
          250 61 3 20 hstem
          -212 47 callgsubr
          107 80 callsubr
          vstem
          357 -104 callgsubr
          540 1076 -83 callgsubr
          -84 callgsubr
          hvcurveto
          endchar
        </CharString>
        <CharString name="Z">
          29 callsubr
          51 callsubr
          hintmask 1101110101100000
          -54 callgsubr
          hintmask 1011111011100000
          -34 callsubr
          hintmask 1101111011100000
          -76 callsubr
          hintmask 1011111011100000
          39 callgsubr
          endchar
        </CharString>
        <CharString name="Zcaron">
          29 callsubr
          134 -20 51 callsubr
          hintmask 1101111010110000
          -54 callgsubr
          hintmask 1011111101110000
          -34 callsubr
          hintmask 1101111101110000
          -76 callsubr
          hintmask 1011111101110000
          39 callgsubr
          254 630 rmoveto
          0 -38 65 -11 -3 -3 -2 -4 -2 vhcurveto
          -30 14 20 -63 11 hhcurveto
          11 131 79 5 7 callsubr
          -4 -1 -1 0 72 callgsubr
          -39 -15 -42 -19 -40 -20 rrcurveto
          endchar
        </CharString>
        <CharString name="a">
          26 callgsubr
          19 callsubr
          hintmask 10101000
          -68 callgsubr
          hintmask 01110000
          -57 callgsubr
          hintmask 10101000
          -68 callsubr
          hintmask 10110000
          -73 callgsubr
          endchar
        </CharString>
        <CharString name="aacute">
          6 -16 42 -13 -21 185 22 124 -20 19 callsubr
          hintmask 10111000
          -62 callsubr
          vvcurveto
          hintmask 10110100
          -18 callgsubr
          hintmask 01111000
          -25 callsubr
          26 117 -102 callgsubr
        </CharString>
        <CharString name="acircumflex">
          26 callgsubr
          107 -20 hstemhm
          -16 50 76 41 hintmask 10111100
          -68 callgsubr
          hintmask 01111100
          -57 callgsubr
          hintmask 10111100
          -68 callsubr
          -73 callgsubr
          40 153 -100 callsubr
        </CharString>
        <CharString name="acute">
          58 callgsubr
          165 236 -102 callgsubr
        </CharString>
        <CharString name="adieresis">
          26 callgsubr
          35 61 10 -20 19 callsubr
          -16 80 callsubr
          hintmask 1011001010000000
          -68 callgsubr
          hintmask 0111010110000000
          -57 callgsubr
          hintmask 1011001010000000
          -68 callsubr
          hintmask 1011010110000000
          -73 callgsubr
          95 176 -96 callgsubr
          hintmask 1010110110000000
          -105 10 -96 callgsubr
          endchar
        </CharString>
        <CharString name="ae">
          121 -25 28 -11 34 -21 -21 113 23 57 22 19 21 19 callsubr
          -167 218 -218 244 hintmask 0011111000000000
          136 -16 rmoveto
          8 9 2 4 11 hvcurveto
          hintmask 1001110010000000
          -11 8 14 -4 18 hhcurveto
          40 57 21 17 33 hvcurveto
          -91 callgsubr
          19 callgsubr
          hintmask 0101110001000000
          -79 callgsubr
          -4 callsubr
          -47 -61 -27 -30 -42 hvcurveto
          12 -5 -11 5 -15 hhcurveto
          -66 callsubr
          hintmask 0011110100000000
          -12 5 -14 21 vhcurveto
          110 113 rmoveto
          -59 -37 -23 -27 -4 -18 rrcurveto
          -6 -3 3 7 hvcurveto
          -27 callsubr
          hintmask 0101111000000000
          -8 -60 -70 -50 hhcurveto
          -38 callgsubr
          -2 0 -3 72 callgsubr
          -11 -12 -6 -11 -9 vvcurveto
          -15 17 -11 43 vhcurveto
          endchar
        </CharString>
        <CharString name="agrave">
          26 callgsubr
          103 -20 19 callsubr
          hintmask 10110100
          -68 callgsubr
          hintmask 01111000
          -57 callgsubr
          hintmask 10110100
          -68 callsubr
          hintmask 10111000
          -73 callgsubr
          81 96 -98 callgsubr
        </CharString>
        <CharString name="ampersand">
          255 -52 22 317 28 367 -20 hstem
          -29 46 238 29 167 26 22 36 vstem
          537 -33 rmoveto
          11 -18 10 0 vhcurveto
          -35 17 -31 27 -26 30 rrcurveto
          64 53 44 66 66 vvcurveto
          67 -70 1 -8 -43 -54 -19 -28 -48 vhcurveto
          -3 9 -1 6 0 vvcurveto
          -17 48 -7 43 -1 39 rrcurveto
          102 73 92 68 80 vvcurveto
          48 -39 0 -4 -18 -81 -6 -104 -50 vhcurveto
          0 -26 -54 -4 -86 vhcurveto
          -133 -86 -151 -99 -150 vvcurveto
          -96 70 -53 102 84 96 37 55 76 vhcurveto
          34 -41 42 -38 44 -7 rrcurveto
          0 18 1 12 vvcurveto
          -215 192 rmoveto
          0 26 -53 40 -52 vhcurveto
          -55 -80 -103 -29 -49 hhcurveto
          -101 -38 48 70 128 120 93 118 85 hvcurveto
          2 -43 8 -48 18 -54 rrcurveto
          -49 -34 -36 -42 -37 vvcurveto
          -19 7 -4 7 11 3 14 0 vhcurveto
          8 40 26 33 31 26 8 -22 11 -22 12 -23 rrcurveto
          177 68 rmoveto
          -61 -35 -51 -47 -40 vhcurveto
          -48 61 -33 69 -16 42 rrcurveto
          26 42 45 14 25 hhcurveto
          66 1 -54 -6 hvcurveto
          -48 401 rmoveto
          -63 -76 -55 -91 -60 vhcurveto
          5 86 32 54 0 vvcurveto
          65 39 47 5 17 hhcurveto
          0 27 -4 -28 vvcurveto
          endchar
        </CharString>
        <CharString name="apple">
          335 -12 45 63 45 327 44 63 45 -45 163 hstemhm
          0 45 138 54 164 57 128 46 hintmask 1110111110000000
          434 738 rmoveto
          -60 hlineto
          -59 -61 -58 61 rlineto
          -59 hlineto
          90 -85 rlineto
          1 9 9 0 10 hhcurveto
          9 10 0 -1 9 hvcurveto
          288 -349 rmoveto
          hintmask 1111011110000000
          174 -142 142 -174 -175 -141 -142 -174 -174 141 -142 175 174 142 142 174 vhcurveto
          -46 hmoveto
          -150 -121 -121 -149 -150 -121 121 150 149 121 122 150 149 121 -122 -149 vhcurveto
          -128 -100 rmoveto
          134 -221 -10 85 vvcurveto
          32 32 23 48 35 39 -13 -29 33 vhcurveto
          11 43 rlineto
          12 -24 -42 31 -55 hhcurveto
          -57 -74 -24 -79 hvcurveto
          -112 218 -14 -83 vvcurveto
          -35 -36 -24 -54 -36 -45 12 29 -47 vhcurveto
          -9 -47 rlineto
          -18 37 44 -21 48 hhcurveto
          81 74 33 75 hvcurveto
          endchar
        </CharString>
        <CharString name="aring">
          61 callgsubr
          42 -18 89 -71 52 hstemhm
          -16 50 hintmask 01100011
          -62 callsubr
          -11 -31 -27 -23 vvcurveto
          -58 callsubr
          hintmask 10010011
          -12 callgsubr
          10 3 10 1 3 vhcurveto
          hintmask 01101001
          -25 callsubr
          27 135 rmoveto
          hintmask 10010101
          -6 callgsubr
          hintmask 10010011
          51 39 rmoveto
          11 6 -8 -11 18 callsubr
          hvcurveto
          endchar
        </CharString>
        <CharString name="asciicircum">
          43 72 -21 99 -20 hstem
          199 116 -100 callsubr
        </CharString>
        <CharString name="asciitilde">
          -38 callsubr
        </CharString>
        <CharString name="asterisk">
          -2 288 90 -74 -21 184 -20 hstemhm
          hintmask 01100000
          230 435 -22 callgsubr
          -32 -59 -23 64 rlineto
          5 -2 -6 6 -7 hhcurveto
          -9 -1 -5 -4 -8 vvcurveto
          -5 2 -4 0 vhcurveto
          32 -59 -66 16 rlineto
          -9 -8 -5 -9 -12 18 -2 -2 hvcurveto
          70 -6 -43 -54 rlineto
          -2 -4 59 callgsubr
          vvcurveto
          hintmask 10100000
          -7 5 -9 7 9 6 10 0 vhcurveto
          31 57 21 -59 rlineto
          hintmask 01100000
          -9 3 4 -4 7 hhcurveto
          9 7 4 9 6 -3 5 0 hvcurveto
          -31 56 rlineto
          -16 63 2 0 1 hhcurveto
          11 7 7 9 10 -16 3 0 hvcurveto
          -69 5 rlineto
          endchar
        </CharString>
        <CharString name="at">
          224 -123 24 37 22 34 31 -31 212 -19 106 -20 20 hstemhm
          -3 32 99 40 -40 233 -108 34 171 28 hintmask 1110011101100000
          486 161 rmoveto
          111 -99 21 -54 -187 -149 -173 -129 -83 53 -21 0 vhcurveto
          -7 15 14 -3 14 hhcurveto
          43 34 27 0 hvcurveto
          32 24 3 16 5 vvcurveto
          0 0 4 -3 -4 -5 -5 0 vhcurveto
          -25 -35 -31 -7 0 vvcurveto
          -4 -11 -10 -1 -9 hhcurveto
          -63 -15 65 30 124 126 153 176 hvcurveto
          0 127 0 -118 vvcurveto
          -95 -80 -100 -60 -16 -15 10 29 17 6 26 20 36 vhcurveto
          0 20 callsubr
          3 -3 15 -13 -3 -3 -1 -4 -3 vhcurveto
          0 -61 -72 -42 -2 -16 2 15 vhcurveto
          hintmask 1110101010100000
          30 77 115 63 8 10 -1 -12 -7 -4 -15 -24 -22 vhcurveto
          0 -2 -2 -2 vvcurveto
          -2 1 -2 5 3 15 1 13 15 vhcurveto
          0 26 20 24 vvcurveto
          hintmask 1101011101100000
          2 -1 24 -33 -72 -127 -101 -75 -14 6 -22 26 17 32 8 42 50 vhcurveto
          0 2 2 4 vhcurveto
          -2 -5 rlineto
          0 -10 -27 -26 vvcurveto
          -24 8 -26 37 105 83 144 79 vhcurveto
          endchar
        </CharString>
        <CharString name="atilde">
          61 callgsubr
          62 -1 -20 39 23 19 callsubr
          hintmask 0110101100000000
          -62 callsubr
          vvcurveto
          hintmask 1001011010000000
          -18 callgsubr
          hintmask 0110101100000000
          -25 callsubr
          99 160 -63 callsubr
          hintmask 1001011100000000
          -3 callsubr
          27 callsubr
          63 callsubr
        </CharString>
        <CharString name="b">
          -64 -22 33 -33 243 305 29 hstemhm
          -19 25 1 38 hintmask 01111000
          266 156 rmoveto
          -23 -16 -42 -14 -43 -6 rrcurveto
          3 vlineto
          17 -4 15 -7 13 vhcurveto
          119 110 167 180 70 65 callgsubr
          -73 -151 -187 -155 -96 vhcurveto
          5 -14 -14 3 -14 hhcurveto
          -49 -22 -20 -24 -34 22 -22 33 -11 hvcurveto
          -18 -37 -11 -30 -17 vvcurveto
          -34 14 -14 20 56 52 63 64 8 vhcurveto
          43 7 43 15 29 19 rrcurveto
          -60 callsubr
          -128 26 rmoveto
          -6 7 -7 7 -8 5 rrcurveto
          149 88 142 176 37 37 callsubr
          -7 -69 -148 -156 -104 -97 rrcurveto
          -35 -81 rmoveto
          11 11 0 1 11 hvcurveto
          hintmask 10111000
          -47 -3 -34 -44 -36 hhcurveto
          -7 -11 5 11 18 7 24 12 29 hvcurveto
          2 1 2 2 2 2 rrcurveto
          -2 11 11 0 11 hhcurveto
          -22 90 rmoveto
          -14 -23 -12 -22 -10 -20 rrcurveto
          -24 10 -15 18 28 vvcurveto
          12 9 9 23 13 15 -4 -8 15 vhcurveto
          6 -74 rmoveto
          12 9 13 11 13 12 6 -10 3 -11 1 -11 rrcurveto
          -1 -9 -9 0 -8 hhcurveto
          -8 -7 0 1 -7 hvcurveto
          29 45 rmoveto
          -14 -13 -12 -11 -12 -9 7 15 9 15 9 17 rrcurveto
          endchar
        </CharString>
        <CharString name="backslash">
          -50 -145 -21 890 -20 hstem
          32 695 rmoveto
          -2 -5 31 -15 -3 -2 -2 -3 -9 10 -64 128 -779 vhcurveto
          -14 4 7 -19 10 hhcurveto
          7 2 11 11 hvcurveto
          -3 14 -137 804 -3 21 rrcurveto
          endchar
        </CharString>
        <CharString name="bar">
          74 callsubr
          253 695 rmoveto
          -5 -24 -148 -801 -1 -12 rrcurveto
          68 callgsubr
          153 842 0 4 4 56 callgsubr
        </CharString>
        <CharString name="braceleft">
          15 -148 -21 889 28 hstem
          39 40 91 39 vstem
          167 345 rmoveto
          -7 -2 -2 -2 -2 vvcurveto
          -2 2 -2 1 -3 vhcurveto
          9 -16 0 -28 -17 vvcurveto
          -7 -97 -124 -125 -97 vvcurveto
          -50 41 -43 93 -28 vhcurveto
          7 12 10 4 1 -1 1 -1 hvcurveto
          -83 25 -28 39 45 93 130 130 88 vvcurveto
          22 -10 22 -9 18 vhcurveto
          19 8 22 10 15 18 57 67 -20 186 59 71 rrcurveto
          20 16 24 11 32 hhcurveto
          24 28 -6 -15 34 hvcurveto
          3 2 2 3 5 -4 7 -3 6 hvcurveto
          17 -41 -35 9 -28 hhcurveto
          -34 -25 -12 -21 -18 hvcurveto
          -62 -75 17 -177 -59 -77 -10 -13 -19 -23 -17 -5 rrcurveto
          endchar
        </CharString>
        <CharString name="braceright">
          -24 -168 28 889 -20 hstem
          204 39 91 40 vstem
          246 235 rmoveto
          7 2 2 2 2 42 callsubr
          -1 3 vhcurveto
          -9 16 0 28 17 vvcurveto
          7 97 124 125 97 vvcurveto
          50 -41 43 -93 28 vhcurveto
          -7 -12 -10 -4 -1 1 -1 1 hvcurveto
          83 -25 28 -39 -45 -93 -130 -130 -88 vvcurveto
          -22 10 -22 9 -18 vhcurveto
          -19 -8 -22 -10 -15 -18 -57 -67 20 -186 -59 -71 rrcurveto
          -20 -16 -24 -11 -32 hhcurveto
          -24 -28 6 15 -34 hvcurveto
          -3 -2 -2 -3 -5 4 -7 3 -6 hvcurveto
          -17 41 35 -9 28 hhcurveto
          34 25 12 21 18 hvcurveto
          62 75 -17 177 59 77 10 13 19 23 17 5 rrcurveto
          endchar
        </CharString>
        <CharString name="bracketleft">
          111 -150 32 833 33 hstem
          89 -118 rmoveto
          104 280 102 273 103 280 rrcurveto
          217 hlineto
          24 12 7 6 6 vvcurveto
          9 -16 82 callsubr
          -241 hlineto
          -4 -9 -11 -9 -4 hvcurveto
          -329 -866 rlineto
          -12 14 82 callsubr
          239 hlineto
          23 11 7 6 6 vvcurveto
          9 -15 82 callsubr
          endchar
        </CharString>
        <CharString name="bracketright">
          67 -150 33 833 32 hstem
          483 716 rmoveto
          -104 -280 -102 -273 -103 -280 rrcurveto
          -217 hlineto
          -24 -12 -7 -6 -6 vvcurveto
          -9 16 82 callsubr
          241 hlineto
          4 9 11 9 4 hvcurveto
          329 866 rlineto
          12 -14 82 callsubr
          -239 hlineto
          -23 -11 -7 -6 -6 vvcurveto
          -9 15 82 callsubr
          endchar
        </CharString>
        <CharString name="breve">
          6 238 28 58 -20 hstem
          344 316 rmoveto
          -14 -14 -43 -36 -38 hhcurveto
          -24 -22 14 44 -11 hvcurveto
          -3 -3 -2 -4 -2 hvcurveto
          -4 vlineto
          -57 21 -19 26 42 57 48 25 19 vhcurveto
          endchar
        </CharString>
        <CharString name="brokenbar">
          74 callsubr
          99 -142 rmoveto
          68 callgsubr
          30 164 19 116 20 107 rrcurveto
          0 -11 8 -7 -4 -2 -2 -6 vhcurveto
          -38 -205 -33 -186 -6 vvcurveto
          154 837 rmoveto
          -3 -11 -31 -171 -34 -183 rrcurveto
          0 11 -8 7 4 2 2 6 vhcurveto
          69 381 0 4 3 56 callgsubr
        </CharString>
        <CharString name="bullet">
          -7 79 100 hstem
          94 108 vstem
          136 79 rmoveto
          22 44 32 30 20 -22 18 -22 -20 -44 -18 -42 0 0 -40 42 hvcurveto
          endchar
        </CharString>
        <CharString name="c">
          -71 -14 26 167 20 hstemhm
          -14 44 -44 232 hintmask 11100000
          133 -45 callsubr
          -24 16 -17 41 33 40 14 13 26 vhcurveto
          -85 callgsubr
          endchar
        </CharString>
        <CharString name="caron">
          95 246 -21 99 -20 hstem
          241 259 rmoveto
          0 -38 65 -11 -3 -3 -2 -4 -2 vhcurveto
          -30 14 20 -63 11 hhcurveto
          11 131 79 5 7 callsubr
          -4 -1 -1 0 72 callgsubr
          -39 -15 -42 -19 -40 -20 rrcurveto
          endchar
        </CharString>
        <CharString name="ccedilla">
          -57 -112 124 167 20 hstemhm
          0 44 -44 232 hintmask 11100000
          147 -45 callsubr
          -21 12 -15 29 -4 vhcurveto
          -6 -8 -14 -18 -1 -3 rrcurveto
          -42 callgsubr
          13 19 33 1 39 13 26 13 rlinecurve
          -85 callgsubr
          endchar
        </CharString>
        <CharString name="cedilla">
          -54 -81 -21 107 -20 hstem
          159 3 rmoveto
          1 -3 -5 1 -2 hhcurveto
          -6 -3 -5 0 hvcurveto
          -24 -32 rlineto
          -42 callgsubr
          endchar
        </CharString>
        <CharString name="cent">
          -11 56 -21 171 167 137 -20 hstemhm
          -38 44 -44 232 hintmask 11110000
          109 222 -55 callgsubr
          hintmask 11101000
          10 5 54 36 22 vvcurveto
          15 -8 7 -14 2 vhcurveto
          60 107 3 3 25 callgsubr
          -3 -6 -7 -9 -48 -84 rrcurveto
          -89 -14 -94 -99 -57 vvcurveto
          -21 12 -16 30 -3 vhcurveto
          -62 -109 -7 -9 -3 -4 rrcurveto
          -85 callsubr
          41 74 -4 -9 32 55 30 3 33 12 23 12 rrcurveto
          -85 callgsubr
          endchar
        </CharString>
        <CharString name="circumflex">
          95 245 -21 99 -20 hstem
          233 289 -100 callsubr
        </CharString>
        <CharString name="colon">
          -80 5 -21 238 -20 hstem
          131 172 -86 callsubr
          -70 -188 -80 callgsubr
        </CharString>
        <CharString name="comma">
          -106 -75 -21 135 -10 callgsubr
          endchar
        </CharString>
        <CharString name="copyright">
          315 -63 21 -21 100 26 167 20 108 -20 20 hstemhm
          49 27 -27 126 232 174 -27 27 hintmask 1010110010000000
          361 358 45 callsubr
          28 callsubr
          -4 100 -52 -105 vvcurveto
          21 callgsubr
          vhcurveto
          -35 -259 rmoveto
          15 callsubr
          hintmask 0111001100000000
          -13 -26 -40 -14 -33 hhcurveto
          -41 -16 17 24 62 110 110 94 18 10 -7 -17 -22 -54 -36 -10 -5 hvcurveto
          8 callsubr
          0 -1 hhcurveto
          -5 -4 4 4 2 1 2 3 2 hvcurveto
          8 5 27 21 14 vvcurveto
          10 -5 4 -8 -36 -100 -89 -43 -27 17 -8 21 29 36 16 0 vhcurveto
          endchar
        </CharString>
        <CharString name="currency">
          171 122 61 -55 -21 54 22 201 23 47 -20 hstemhm
          82 39 188 41 hintmask 01111110
          196 161 rmoveto
          24 22 6 10 20 hvcurveto
          -28 15 23 -42 15 hhcurveto
          6 3 4 6 4 -2 6 -2 4 hvcurveto
          -2 3 -6 5 -29 51 rrcurveto
          41 30 26 47 43 vvcurveto
          17 -5 18 -11 16 vhcurveto
          60 50 rlineto
          2 2 79 callsubr
          3 -4 3 -7 -12 -13 -12 0 vhcurveto
          -41 -34 rlineto
          18 -19 -28 12 -40 hhcurveto
          -24 -22 -6 -10 -20 hvcurveto
          -19 32 -3 7 -2 4 rrcurveto
          0 -11 20 -14 -6 -1 -2 -3 -2 2 -2 36 -64 vhcurveto
          -41 -26 -27 -45 -45 vvcurveto
          -28 10 -23 16 -17 vhcurveto
          -54 -45 -6 -4 -3 -2 rrcurveto
          -6 -5 -4 -7 -5 vvcurveto
          hintmask 10011110
          -3 2 -4 6 23 45 43 16 17 vhcurveto
          hintmask 01111110
          -13 20 24 -7 24 hhcurveto
          -75 100 rmoveto
          57 42 66 68 54 24 -35 -41 -57 -45 -68 -67 -46 -30 35 43 vhcurveto
          endchar
        </CharString>
        <CharString name="d">
          -22 1 -21 27 -21 499 32 hstemhm
          -31 48 415 37 hintmask 01111000
          167 40 rmoveto
          16 2 19 5 19 vhcurveto
          138 136 157 220 42 vvcurveto
          10 -7 15 -11 -62 -134 -172 -149 -73 vhcurveto
          9 callsubr
          hintmask 10111000
          15 callgsubr
          hvcurveto
          265 437 rmoveto
          -58 -133 -172 -114 -119 vhcurveto
          153 53 154 204 34 hhcurveto
          4 2 -3 -5 hvcurveto
          -415 -454 8 callgsubr
          endchar
        </CharString>
        <CharString name="dagger">
          -72 -21 544 23 138 -20 hstem
          499 451 28 callgsubr
          -2 vhcurveto
          -5 -17 -21 -37 hhcurveto
          -19 -30 9 9 -25 hvcurveto
          70 127 11 24 5 vvcurveto
          0 0 5 -9 -9 callgsubr
          -73 -132 rlineto
          8 -23 -24 6 -21 hhcurveto
          -55 -45 -35 -6 hvcurveto
          3 -1 rlineto
          14 29 19 24 hhcurveto
          30 26 -8 -10 27 hvcurveto
          -280 -502 rlineto
          -85 callsubr
          134 238 86 154 55 100 rrcurveto
          -6 21 21 -4 24 hhcurveto
          39 46 16 21 hvcurveto
          endchar
        </CharString>
        <CharString name="degree">
          -35 498 23 107 25 hstem
          68 25 102 25 vstem
          68 552 rmoveto
          -29 20 -25 34 44 54 50 45 33 -22 27 -34 -63 -33 -75 -26 vhcurveto
          91 76 rmoveto
          23 13 -17 -23 -32 -31 -35 -33 -26 -12 20 16 26 23 45 43 hvcurveto
          endchar
        </CharString>
        <CharString name="dieresis">
          97 244 61 -50 -21 hstemhm
          140 80 callsubr
          hintmask 10110000
          184 305 -96 callgsubr
          105 -10 rmoveto
          -39 callgsubr
          hvcurveto
          hintmask 01110000
          -39 callsubr
          -84 callgsubr
          vhcurveto
          endchar
        </CharString>
        <CharString name="divide">
          59 179 114 0 80 50 35 callgsubr
          274 320 25 callsubr
          -6 callsubr
          94 -139 -86 callsubr
          hintmask 01100000
          75 194 -80 callgsubr
        </CharString>
        <CharString name="dollar">
          233 -108 -21 128 -21 465 27 -27 235 135 -20 hstemhm
          -130 47 191 45 167 32 -32 54 101 37 hintmask 1110111011000000
          357 678 rmoveto
          -147 -7 -102 -85 -75 vvcurveto
          -19 11 -37 61 -54 vhcurveto
          18 -16 -80 -147 -83 -152 -51 -95 rlinecurve
          -60 24 -7 51 26 vvcurveto
          20 -15 16 -13 -10 -9 -9 -23 -43 24 -59 79 -24 vhcurveto
          -42 -75 rlineto
          -85 callsubr
          38 68 rlineto
          -2 15 16 -2 19 hhcurveto
          62 callgsubr
          hvcurveto
          -16 23 -52 54 -36 36 61 113 45 85 31 61 32 -1 24 -9 15 -13 rrcurveto
          -69 -35 -60 -51 -58 vvcurveto
          -31 27 -17 34 56 75 47 104 17 -5 15 -8 11 vhcurveto
          42 15 44 8 37 17 callsubr
          -31 -52 -13 -22 -53 vhcurveto
          -26 20 -40 6 -29 1 rrcurveto
          48 94 14 33 25 callgsubr
          hintmask 1101111101000000
          -356 -815 rmoveto
          -20 -17 2 3 -15 hvcurveto
          85 152 69 124 56 103 20 -19 21 -24 20 -26 rrcurveto
          0 47 -41 -65 vvcurveto
          -24 -6 -27 -18 -30 vhcurveto
          74 callgsubr
          90 547 rmoveto
          81 112 42 80 8 vhcurveto
          -36 -65 -44 -83 -47 -87 -13 13 rcurveline
          -42 38 -10 31 22 vvcurveto
          199 -28 rmoveto
          51 49 44 61 29 vhcurveto
          9 -12 4 -16 -15 vvcurveto
          hintmask 1110111101000000
          -51 -43 -57 -55 -15 -10 9 18 vhcurveto
          endchar
        </CharString>
        <CharString name="dotaccent">
          6 257 -21 50 -20 hstem
          231 236 rmoveto
          11 22 16 15 10 -11 9 -11 -64 callsubr
          endchar
        </CharString>
        <CharString name="dotlessi">
          58 callsubr
          166 -20 hstem
          -87 callgsubr
          endchar
        </CharString>
        <CharString name="e">
          37 callgsubr
          26 callsubr
          hintmask 11110000
          -89 callgsubr
          hintmask 11101000
          -79 callgsubr
          hintmask 11100100
          -32 callgsubr
          endchar
        </CharString>
        <CharString name="eacute">
          -69 -25 28 -28 145 98 21 125 -20 26 callsubr
          hintmask 10110010
          56 97 rmoveto
          -43 -17 11 15 41 121 75 78 13 16 -2 -16 -23 -59 -25 59 callgsubr
          1 7 -3 hvcurveto
          5 7 3 0 vhcurveto
          0 17 11 8 vvcurveto
          8 -13 2 -5 vhcurveto
          hintmask 01110100
          -34 -89 -55 -28 -9 10 -6 25 8 9 1 1 11 hvcurveto
          4 6 -1 -4 hvcurveto
          hintmask 10111000
          -15 -99 -36 -38 vvcurveto
          -18 13 -7 18 29 42 16 9 21 vhcurveto
          15 callsubr
          -17 -33 -57 -21 -40 hhcurveto
          -26 -19 9 24 19 20 28 67 42 hvcurveto
          88 180 -102 callgsubr
        </CharString>
        <CharString name="ecircumflex">
          37 callgsubr
          116 -78 callgsubr
          134 224 -100 callsubr
        </CharString>
        <CharString name="edieresis">
          37 callgsubr
          52 61 hstemhm
          -31 43 -16 42 47 59 46 34 -34 59 hintmask 1111101010000000
          -89 callgsubr
          hintmask 1111011100000000
          -79 callgsubr
          -32 callgsubr
          73 255 -83 callgsubr
          hvcurveto
          hintmask 1111101010000000
          -89 callsubr
          endchar
        </CharString>
        <CharString name="egrave">
          37 callgsubr
          131 -78 callgsubr
          159 186 -98 callgsubr
        </CharString>
        <CharString name="eight">
          233 -19 -21 39 -21 680 21 hstemhm
          -97 47 191 45 176 45 94 44 hintmask 10111110
          378 286 rmoveto
          -15 23 -44 44 -35 36 32 15 rcurveline
          88 43 141 68 79 vvcurveto
          76 -89 9 -44 -158 -113 -89 -79 -19 9 -40 63 -51 vhcurveto
          0 7 -6 11 -11 vhcurveto
          -12 -5 rlineto
          -113 -51 -203 -87 -145 vvcurveto
          -54 39 -82 141 62 callgsubr
          vhcurveto
          -40 -180 rmoveto
          hintmask 01111110
          74 callgsubr
          -133 -13 79 35 128 183 98 112 53 hvcurveto
          0 117 -92 -92 vvcurveto
          -24 -6 -27 -18 -30 vhcurveto
          -100 328 rmoveto
          -42 38 -10 31 22 vvcurveto
          91 141 42 78 42 54 -10 -50 -58 -45 -50 -186 -88 vhcurveto
          endchar
        </CharString>
        <CharString name="ellipsis">
          237 -15 50 -30 -21 50 -20 hstemhm
          hintmask 10000000
          79 -15 rmoveto
          -58 callgsubr
          hvcurveto
          hintmask 01100000
          -10 -22 -9 -21 hvcurveto
          hintmask 10000000
          0 0 -20 21 vhcurveto
          hintmask 01100000
          140 -1 -86 callsubr
          140 hmoveto
          -87 callsubr
          endchar
        </CharString>
        <CharString name="emdash">
          252 108 26 76 callsubr
          49 134 rmoveto
          -22 -1 -13 -5 -6 4 -2 53 138 87 0 5 201 hvcurveto
          22 1 4 10 7 vvcurveto
          hintmask 01000000
          3 -4 1 -12 vhcurveto
          endchar
        </CharString>
        <CharString name="endash">
          59 108 26 76 callsubr
          88 134 -48 callgsubr
          hintmask 01000000
          3 -2 1 -6 vhcurveto
          endchar
        </CharString>
        <CharString name="equal">
          105 235 32 44 32 1 -20 hstemhm
          hintmask 11000000
          -8 266 -51 callsubr
          3 -2 2 -7 vhcurveto
          -236 74 -51 callsubr
          hintmask 10100000
          3 -2 2 -7 vhcurveto
          endchar
        </CharString>
        <CharString name="eth">
          -22 1 -21 27 -21 531 -20 hstemhm
          -31 48 hintmask 01110000
          165 291 rmoveto
          -1 -9 -14 -5 -2 3 0 2 hvcurveto
          31 9 22 7 22 5 -19 -32 -18 -32 -16 -31 rrcurveto
          9 callsubr
          hintmask 10110000
          15 callgsubr
          16 2 19 5 19 hvcurveto
          65 64 69 82 55 74 45 7 rcurveline
          67 callsubr
          -12 -16 -2 -3 -17 vhcurveto
          50 70 34 58 20 vvcurveto
          10 -7 15 -11 -46 -84 -93 -109 -71 vhcurveto
          -233 -292 8 callgsubr
          415 454 rmoveto
          -27 -29 -51 -41 -59 vhcurveto
          -25 -4 -26 -6 -26 -7 rrcurveto
          90 58 63 72 20 hhcurveto
          4 2 -3 -5 hvcurveto
          -92 -167 rmoveto
          -46 -61 -56 -66 -53 -55 18 54 32 60 34 56 18 3 32 6 21 3 rrcurveto
          endchar
        </CharString>
        <CharString name="exclam">
          30 16 -21 648 -20 hstem
          434 639 64 callsubr
          vhcurveto
          0 -18 -6 -11 callgsubr
          4 -3 -273 -509 -9 vvcurveto
          -5 2 -4 4 6 11 9 24 19 vhcurveto
          68 131 207 368 7 14 -11 callsubr
          -352 -644 -80 callgsubr
        </CharString>
        <CharString name="exclamdown">
          42 -338 -21 648 -20 hstem
          -100 -355 rmoveto
          1 1 3 1 2 vhcurveto
          7 14 207 368 68 131 rrcurveto
          24 19 11 9 6 hhcurveto
          4 2 -4 -5 -9 -273 -509 4 -3 hvcurveto
          0 -6 -10 -14 -5 vhcurveto
          -14 -5 -18 -6 0 vvcurveto
          -5 0 4 0 hvcurveto
          341 594 -80 callgsubr
        </CharString>
        <CharString name="f">
          -101 -365 37 843 -20 hstemhm
          -174 245 -28 28 254 36 hintmask 11101000
          -2 26 rmoveto
          8 13 7 14 9 13 rrcurveto
          11 12 328 276 139 -72 callgsubr
          43 24 32 20 0 vvcurveto
          42 24 35 24 0 vvcurveto
          -95 callgsubr
          3 0 vhcurveto
          -39 -25 -65 -38 -63 -33 -11 16 -20 10 -32 1 rrcurveto
          -164 -343 48 callgsubr
          34 16 38 20 35 20 rrcurveto
          hintmask 11011000
          1 -4 0 -4 -4 vvcurveto
          -94 -145 -192 -77 callgsubr
          85 6 46 callsubr
          2 hlineto
          24 15 -8 -13 8 hvcurveto
          -31 -16 -29 -15 -25 -10 rrcurveto
          endchar
        </CharString>
        <CharString name="fi">
          82 -365 37 312 31 500 -20 hstemhm
          -174 245 -29 29 254 36 -36 65 hintmask 11110100
          225 27 rmoveto
          23 60 87 24 27 vhcurveto
          3 6 callsubr
          0 -7 9 -12 -8 22 callgsubr
          vhcurveto
          -22 -26 -23 -30 -18 -29 -39 -25 -60 -34 -58 -30 51 callgsubr
          -47 callgsubr
          83 47 -5 0 59 35 rrcurveto
          -12 -22 -7 -20 -14 -82 callsubr
          -391 -344 44 callgsubr
          hintmask 11101010
          -55 callsubr
          508 365 -96 callgsubr
          -423 -359 46 callsubr
          2 hlineto
          24 46 callgsubr
        </CharString>
        <CharString name="five">
          175 -71 21 446 20 185 39 4 -20 hstemhm
          -140 35 415 41 hintmask 11101100
          -140 33 rmoveto
          -25 16 -79 135 136 99 103 0 vhcurveto
          87 85 18 84 55 vvcurveto
          39 -9 24 0 vhcurveto
          80 -23 -64 17 -51 hhcurveto
          -41 -33 59 callsubr
          59 callgsubr
          -1 -2 hhcurveto
          -5 75 callsubr
          47 65 70 110 0 vvcurveto
          5 6 13 2 14 hhcurveto
          261 6 13 14 18 vvcurveto
          hintmask 11011100
          5 -11 0 -8 vhcurveto
          hintmask 11101100
          -3 -28 -37 -1 -40 hhcurveto
          hintmask 11011100
          -79 -89 4 0 hvcurveto
          -14 -7 -8 0 0 -114 -193 -56 -66 hvcurveto
          0 -4 -6 -5 vvcurveto
          -4 3 -4 8 -2 vhcurveto
          0 18 1 27 17 vhcurveto
          0 41 22 46 27 29 -8 -25 24 vhcurveto
          0 32 -35 -64 vvcurveto
          -47 -17 -62 -57 -75 vhcurveto
          0 -91 -130 -138 -33 -79 6 83 vhcurveto
          21 12 3 10 vvcurveto
          4 -2 6 -10 -4 -31 -12 -38 vhcurveto
          endchar
        </CharString>
        <CharString name="fl">
          92 -365 37 312 31 490 29 hstemhm
          42 29 254 36 -36 246 hintmask 11110100
          223 -16 rmoveto
          -67 callgsubr
          hvcurveto
          40 callgsubr
          -29 0 40 0 7 1 8 1 8 vhcurveto
          81 57 266 280 92 65 callgsubr
          -100 -235 -313 -154 -35 vhcurveto
          -35 -21 -44 -25 -42 -22 51 callgsubr
          hintmask 11111000
          -47 callgsubr
          43 24 32 20 0 vvcurveto
          13 7 12 8 11 6 -1 -16 rcurveline
          -8 callgsubr
          -701 -800 44 callgsubr
          -55 callsubr
          85 6 46 callsubr
          26 46 callgsubr
        </CharString>
        <CharString name="four">
          266 -44 -21 223 25 485 -20 hstem
          159 -48 rmoveto
          31 62 42 72 46 72 77 2 119 6 27 20 rrcurveto
          3 2 2 60 callsubr
          4 -6 3 -10 vhcurveto
          -5 hlineto
          -61 -7 -66 -5 -63 -3 rrcurveto
          131 204 151 199 0 vvcurveto
          35 44 2 18 4 vvcurveto
          1 vlineto
          10 -3 -8 3 -9 hhcurveto
          -39 -99 -53 -121 -181 hvcurveto
          -118 -80 -133 -102 -117 -126 rrcurveto
          0 -6 -10 -10 vvcurveto
          -9 6 -9 23 vhcurveto
          0 194 9 92 1 vhcurveto
          13 hlineto
          -57 -86 -46 -72 -16 -32 rrcurveto
          0 -6 -10 -9 vvcurveto
          -13 14 -1 13 9 12 3 14 7 vhcurveto
          -139 227 rmoveto
          -31 hlineto
          -9 -3 3 5 7 7 10 0 hvcurveto
          224 263 323 156 31 callgsubr
          8 3 5 3 2 8 callsubr
          -2 -2 -3 -5 vhcurveto
          0 -169 -239 -128 -192 vhcurveto
          -4 -97 -86 0 -44 hhcurveto
          endchar
        </CharString>
        <CharString name="foursuperior">
          111 224 -21 133 20 286 -20 hstem
          160 213 -84 callsubr
        </CharString>
        <CharString name="fraction">
          -72 -62 -21 784 -20 hstem
          286 -23 callgsubr
          endchar
        </CharString>
        <CharString name="g">
          -43 -393 29 291 26 43 31 170 26 hstem
          -199 34 148 49 133 35 vstem
          254 200 rmoveto
          0 0 23 -28 -83 -160 -141 -58 -21 11 -7 16 35 60 37 12 24 vhcurveto
          0 -23 -46 -33 -60 vhcurveto
          -147 -50 -125 -172 -75 38 callsubr
          78 92 158 157 90 vhcurveto
          3 17 17 2 18 -49 callsubr
          -14 -13 -1 -2 -14 vhcurveto
          33 55 33 56 31 46 rrcurveto
          11 -7 2 -9 1 vhcurveto
          -11 -21 -33 -6 -8 hvcurveto
          0 -75 -55 -29 -11 -5 5 8 39 115 116 49 2 vhcurveto
          8 7 -5 -9 -8 -5 -8 -20 -18 hvcurveto
          0 -7 -5 66 callgsubr
          4 -3 3 19 49 38 28 vhcurveto
          -419 -543 rmoveto
          56 88 148 134 50 vhcurveto
          -119 -67 -95 -156 -44 34 callsubr
          endchar
        </CharString>
        <CharString name="germandbls">
          18 -331 -21 152 26 396 26 232 35 hstem
          -192 42 431 34 22 37 vstem
          -143 -328 rmoveto
          -1 6 -6 -2 7 vvcurveto
          105 428 691 52 1 vhcurveto
          4 3 0 -5 -42 -72 -105 -84 -100 13 callgsubr
          4 16 14 2 12 hhcurveto
          33 13 -16 -26 -102 -213 -250 -116 -2 hvcurveto
          -17 -7 -6 -6 -7 8 -7 11 hvcurveto
          136 4 232 271 118 vvcurveto
          33 -18 22 -44 -12 -13 -2 -3 -15 vhcurveto
          101 120 60 96 31 vvcurveto
          10 -7 15 -12 -139 -408 -790 -63 -9 9 -5 10 12 14 8 16 4 vhcurveto
          endchar
        </CharString>
        <CharString name="grave">
          58 callgsubr
          267 236 -98 callgsubr
        </CharString>
        <CharString name="greater">
          75 callgsubr
          302 258 53 callsubr
          -179 156 54 callgsubr
          145 -131 -245 -119 62 callsubr
        </CharString>
        <CharString name="greaterequal">
          59 162 26 -11 -21 326 -16 callsubr
          325 136 53 callsubr
          -199 129 54 callgsubr
          165 -104 -255 -90 62 callsubr
        </CharString>
        <CharString name="guillemotleft">
          100 24 -21 197 -29 callgsubr
          -54 -90 -44 callgsubr
          59 rlineto
          6 3 4 3 8 vvcurveto
          3 -1 4 -1 4 vhcurveto
          endchar
        </CharString>
        <CharString name="guillemotright">
          127 25 -21 197 -20 hstem
          345 -24 callsubr
          54 90 -44 callsubr
          -59 11 callgsubr
          endchar
        </CharString>
        <CharString name="guilsinglleft">
          -12 34 -21 187 -29 callgsubr
          endchar
        </CharString>
        <CharString name="guilsinglright">
          15 25 -21 187 -20 hstem
          233 -24 callsubr
          endchar
        </CharString>
        <CharString name="h">
          17 -41 56 -31 31 -31 188 322 27 hstemhm
          -36 197 -41 41 -41 120 102 33 hintmask 10011001
          16 13 rmoveto
          12 32 61 44 74 vhcurveto
          72 63 211 193 79 vvcurveto
          24 -24 2 0 -100 -287 -515 -31 -8 3 -8 7 23 67 80 82 111 vhcurveto
          hintmask 01010101
          0 -55 -67 -42 vvcurveto
          -12 5 -16 -86 callgsubr
          -5 3 8 vhcurveto
          hintmask 00110011
          50 79 54 28 vvcurveto
          8 -7 6 -9 vhcurveto
          -29 -159 -159 -20 hhcurveto
          326 471 rmoveto
          -69 -147 -143 -78 -71 vhcurveto
          135 83 108 158 29 76 callgsubr
        </CharString>
        <CharString name="hungarumlaut">
          58 callgsubr
          165 236 -106 callsubr
          68 hmoveto
          -106 callgsubr
          endchar
        </CharString>
        <CharString name="hyphen">
          -38 callsubr
        </CharString>
        <CharString name="i">
          58 callsubr
          290 -20 hstem
          135 59 vstem
          179 305 -96 callgsubr
          -150 -278 -94 callgsubr
          endchar
        </CharString>
        <CharString name="iacute">
          58 callsubr
          296 -20 hstem
          -10 39 vstem
          29 27 rmoveto
          -12 15 0 0 -56 callgsubr
          -12 callgsubr
          37 50 74 45 52 vhcurveto
          0 5 8 8 12 7 -9 0 -2 59 callgsubr
          -3 vhcurveto
          -24 -27 -60 -87 -23 vvcurveto
          101 197 -102 callgsubr
        </CharString>
        <CharString name="icircumflex">
          58 callsubr
          282 -20 hstem
          -87 callgsubr
          120 236 -100 callsubr
        </CharString>
        <CharString name="idieresis">
          58 callsubr
          229 61 hstem
          71 80 callsubr
          vstem
          -87 callgsubr
          86 278 -83 callgsubr
          -84 callgsubr
          hvcurveto
          endchar
        </CharString>
        <CharString name="igrave">
          58 callsubr
          281 -20 hstem
          -87 callgsubr
          129 182 -98 callgsubr
        </CharString>
        <CharString name="j">
          -129 -438 29 303 26 383 -20 hstem
          -296 34 331 35 53 59 vstem
          3 64 rmoveto
          48 32 38 27 6 8 -37 -75 -40 -77 -39 -72 rrcurveto
          -148 -52 -127 -183 -75 38 callsubr
          70 103 162 165 92 vhcurveto
          3 15 16 2 17 -49 callsubr
          -13 -12 -1 -2 -13 vhcurveto
          55 98 50 98 36 61 rrcurveto
          18 callgsubr
          -13 -9 -27 -56 -75 hvcurveto
          -17 callsubr
          -249 -473 rmoveto
          -11 -5 8 13 56 90 158 135 51 hvcurveto
          -159 -88 -83 -127 -38 hhcurveto
          447 712 -96 callgsubr
          endchar
        </CharString>
        <CharString name="k">
          -6 -15 29 -29 138 -129 -21 133 129 -25 25 285 27 hstemhm
          68 36 148 43 49 33 hintmask 1001011110000000
          238 46 rmoveto
          77 callgsubr
          hvcurveto
          -11 -20 -38 -19 -29 hhcurveto
          -24 -20 13 43 13 4 13 7 10 hvcurveto
          112 68 61 38 18 -15 12 -31 -66 -70 -57 -53 -52 hvcurveto
          28 50 rlineto
          72 65 216 202 79 vvcurveto
          24 -24 2 0 -67 -149 -228 -162 -92 vhcurveto
          0 -79 -136 -10 -20 vhcurveto
          -3 -6 -1 -5 -3 vvcurveto
          hintmask 0010111110000000
          -9 11 -5 9 9 5 9 0 vhcurveto
          17 34 17 32 17 32 rrcurveto
          126 108 58 4 17 hhcurveto
          21 11 -9 -13 hvcurveto
          hintmask 0100111110000000
          -26 -45 -39 -101 -30 -8 -44 -28 -50 21 -16 29 40 54 31 18 32 vhcurveto
          38 22 30 20 0 vvcurveto
          -100 callgsubr
          0 -40 -26 -42 -22 vhcurveto
          106 464 rmoveto
          -70 -154 -152 -80 -74 vhcurveto
          185 105 84 121 40 76 callgsubr
        </CharString>
        <CharString name="l">
          -104 -16 31 490 29 hstem
          27 -16 rmoveto
          -67 callgsubr
          hvcurveto
          40 callgsubr
          -29 0 40 0 7 1 8 1 8 vhcurveto
          81 57 266 280 92 65 callgsubr
          -108 -266 -366 -135 -8 callgsubr
          endchar
        </CharString>
        <CharString name="less">
          75 callgsubr
          26 306 54 callsubr
          179 -156 rlineto
          0 13 2 15 vvcurveto
          4 -6 6 -9 9 vhcurveto
          -145 131 245 119 63 callgsubr
        </CharString>
        <CharString name="lessequal">
          59 162 26 -11 -21 319 -16 callsubr
          57 171 54 callsubr
          218 -116 rlineto
          14 4 6 8 7 vvcurveto
          5 -3 5 -5 2 vhcurveto
          -198 96 259 98 63 callgsubr
        </CharString>
        <CharString name="logicalnot">
          59 204 -21 104 31 1 35 callgsubr
          283 315 rmoveto
          82 callgsubr
          -3 vhcurveto
          hintmask 11000000
          -1 -2 0 72 callgsubr
          -282 hlineto
          -49 callgsubr
          77 51 0 4 102 vhcurveto
          -9 -25 -9 -30 -10 -35 -14 callsubr
          44 125 rlineto
          endchar
        </CharString>
        <CharString name="lslash">
          -104 -16 31 490 29 hstem
          -16 248 rmoveto
          -1 -7 -12 -4 -1 2 0 1 hvcurveto
          25 7 34 8 35 7 rrcurveto
          -53 -85 -38 -84 -51 vvcurveto
          -30 13 -19 32 -70 callsubr
          -29 0 40 0 7 1 8 1 8 vhcurveto
          81 57 266 280 92 65 callgsubr
          -64 -118 -127 -131 -86 vhcurveto
          -51 -13 -46 -14 -7 -1 rrcurveto
          355 235 42 callgsubr
          12 46 27 56 33 57 28 5 27 5 21 3 rrcurveto
          12 2 9 12 7 vvcurveto
          1 0 1 -3 -19 -29 -5 -7 -31 vhcurveto
          115 72 93 107 41 37 callsubr
          endchar
        </CharString>
        <CharString name="m">
          191 -16 -21 21 31 -31 161 -161 193 -170 -21 hstemhm
          117 172 0 36 hintmask 10001010
          32 83 rmoveto
          5 8 18 15 7 hhcurveto
          1 73 callgsubr
          hvcurveto
          -14 -73 -97 -10 vvcurveto
          -10 9 -6 4 -1 vhcurveto
          13 14 17 0 hvcurveto
          51 45 114 86 16 7 -72 -112 rcurveline
          -6 0 -14 9 14 9 1 116 161 vhcurveto
          -36 callsubr
          hintmask 01000010
          -26 callsubr
          -16 -7 2 7 vhcurveto
          24 69 76 3 callsubr
          -132 -106 -14 hhcurveto
          64 callgsubr
          28 50 52 67 16 vvcurveto
          hintmask 00010100
          7 -5 7 -10 vhcurveto
          -17 -172 -158 -18 hhcurveto
          -1 -1 1 1 hvcurveto
          14 61 68 31 vvcurveto
          hintmask 00100100
          5 -3 6 -8 -24 -57 -56 -13 -26 vhcurveto
          -23 callsubr
          endchar
        </CharString>
        <CharString name="macron">
          79 246 24 1 -20 hstemhm
          hintmask 01000000
          107 271 rmoveto
          -10 -1 -1 -11 -4 vvcurveto
          hintmask 10000000
          -6 2 -3 24 100 26 1 2 41 vhcurveto
          10 1 1 9 6 vvcurveto
          3 -1 1 -6 vhcurveto
          endchar
        </CharString>
        <CharString name="minus">
          59 287 32 76 callsubr
          -8 318 -51 callsubr
          hintmask 01000000
          3 -2 2 -7 vhcurveto
          endchar
        </CharString>
        <CharString name="mu">
          21 -105 -21 110 31 0 -21 209 -20 hstemhm
          hintmask 11010000
          125 10 rmoveto
          -12 5 -14 -86 callgsubr
          -5 2 8 vhcurveto
          6 22 60 78 50 70 rrcurveto
          3 -9 3 -11 2 vhcurveto
          -9 -4 -7 0 hvcurveto
          -40 -31 -129 -131 -43 hhcurveto
          -9 -1 9 3 15 66 91 -73 callsubr
          -33 -46 -44 -61 -17 -38 rrcurveto
          -55 -93 -47 -63 -4 vvcurveto
          -4 4 -1 5 15 19 14 13 7 vhcurveto
          12 25 23 31 25 38 rrcurveto
          hintmask 10110000
          -1 3 3 0 4 hhcurveto
          45 108 98 10 11 hvcurveto
          -5 -7 -49 -62 -1 -23 rrcurveto
          endchar
        </CharString>
        <CharString name="multiply">
          103 187 -21 273 -20 21 35 callgsubr
          46 410 rmoveto
          5 -7 38 -46 43 -49 -135 -109 rcurveline
          -4 -4 -3 -7 -6 vvcurveto
          -6 3 -5 5 66 callsubr
          2 3 vhcurveto
          143 115 48 -56 48 -55 7 -4 rlinecurve
          -5 4 7 -3 6 hhcurveto
          6 5 3 4 50 callgsubr
          -2 3 hvcurveto
          -108 126 143 115 rlineto
          2 1 1 1 vvcurveto
          6 -4 3 -7 vhcurveto
          hintmask 11000000
          -9 -12 -5 -9 -12 hvcurveto
          -117 -95 -98 115 rlineto
          hintmask 10100000
          -2 -1 1 -2 hhcurveto
          -7 -4 -4 -7 -5 2 -7 6 -7 hvcurveto
          endchar
        </CharString>
        <CharString name="n">
          60 -16 31 -16 -21 193 -20 hstemhm
          20 175 -36 36 hintmask 01110000
          -37 callsubr
          hintmask 10101000
          -59 callgsubr
          endchar
        </CharString>
        <CharString name="nine">
          -87 25 302 24 417 -20 hstem
          9 38 391 37 vstem
          444 413 rmoveto
          4 10 1 8 7 vvcurveto
          23 -17 5 0 vhcurveto
          1 -2 -1 0 -2 hhcurveto
          -15 -17 -22 0 hvcurveto
          -140 -144 -112 -41 -44 hhcurveto
          -39 -9 26 23 121 206 229 134 15 36 0 -47 -46 -63 -105 -100 -38 hvcurveto
          0 -13 -7 -7 vvcurveto
          -2 0 -4 7 3 5 1 3 7 vhcurveto
          76 28 115 98 82 vvcurveto
          54 -45 8 -36 -177 -208 -211 -140 -24 9 -66 68 38 100 22 146 158 vhcurveto
          0 6 5 4 2 1 8 callsubr
          -1 -3 -2 -4 vhcurveto
          0 -121 -251 -138 -130 vhcurveto
          0 -86 -82 -79 -13 -13 2 5 -12 vhcurveto
          0 -8 5 -6 -2 -2 -1 -1 -1 vhcurveto
          0 -3 -6 -6 vvcurveto
          -9 6 -10 28 -3 vhcurveto
          0 4 -1 8 33 97 13 137 131 vhcurveto
          0 160 167 69 183 vhcurveto
          endchar
        </CharString>
        <CharString name="ntilde">
          60 -16 31 -31 224 -209 -21 211 60 -23 23 hstemhm
          20 175 -36 36 hintmask 00110100
          -37 callsubr
          hintmask 10001010
          -59 callgsubr
          313 150 28 callgsubr
          -1 vhcurveto
          hintmask 01001100
          -6 -6 -21 -22 hhcurveto
          -30 callgsubr
          -3 callsubr
          hhcurveto
          hintmask 10010100
          27 callsubr
          hintmask 10001100
          63 callsubr
        </CharString>
        <CharString name="numbersign">
          147 177 -21 132 31 71 31 -31 169 hstemhm
          hintmask 11100000
          254 288 rmoveto
          48 1 47 2 41 2 rrcurveto
          2 callgsubr
          -134 hlineto
          25 71 49 1 49 2 43 2 rlinecurve
          2 callgsubr
          -139 hlineto
          42 119 rlineto
          hintmask 11010000
          5 callgsubr
          -10 -28 -14 -37 -14 -43 rrcurveto
          -81 hlineto
          42 120 rlineto
          5 callgsubr
          -39 -108 rlineto
          -120 -5 callgsubr
          89 hlineto
          -24 -71 rlineto
          -1 callgsubr
          -13 -39 -12 -39 -11 -35 -14 callsubr
          44 124 rlineto
          26 28 0 1 28 hvcurveto
          -14 -40 -12 -39 -11 -35 -14 callsubr
          22 156 rmoveto
          -81 hlineto
          25 70 rlineto
          26 27 0 1 28 hvcurveto
          endchar
        </CharString>
        <CharString name="o">
          34 callgsubr
          20 callgsubr
          hintmask 11010000
          -50 callsubr
          47 -26 19 -30 -22 callsubr
          vhcurveto
          hintmask 11100000
          -53 callsubr
          -97 callsubr
          endchar
        </CharString>
        <CharString name="oacute">
          34 callgsubr
          97 -20 20 callgsubr
          hintmask 11110000
          -16 callgsubr
          hintmask 11101000
          -75 callsubr
          131 145 -102 callgsubr
        </CharString>
        <CharString name="ocircumflex">
          34 callgsubr
          99 -83 callsubr
          121 200 -100 callsubr
        </CharString>
        <CharString name="odieresis">
          34 callgsubr
          38 61 hstemhm
          -5 39 0 95 -59 59 -59 115 -15 64 hintmask 11110010
          -50 callsubr
          hintmask 11101001
          -45 callgsubr
          hintmask 11110101
          -53 callsubr
          -97 callsubr
          64 234 -83 callgsubr
          -84 callgsubr
          hvcurveto
          endchar
        </CharString>
        <CharString name="oe">
          107 -25 28 -28 145 -118 -21 220 26 -9 21 hstemhm
          -5 39 111 43 -18 44 -44 230 hintmask 1001011000000000
          148 51 rmoveto
          8 8 0 1 8 hvcurveto
          -20 -18 -7 -15 -11 -92 callsubr
          hintmask 0100110100000000
          19 callgsubr
          -79 callgsubr
          hintmask 1000110010000000
          -4 callsubr
          -63 -91 -49 -40 -33 hvcurveto
          1 3 0 4 4 vvcurveto
          hintmask 0011010100000000
          -45 callgsubr
          -53 callsubr
          -12 134 -99 callgsubr
          182 5 rmoveto
          -16 -10 -13 -9 -11 -9 rrcurveto
          -3 -11 -11 -1 -11 hhcurveto
          -12 hlineto
          11 15 10 17 6 16 rrcurveto
          -10 7 17 -6 34 hhcurveto
          endchar
        </CharString>
        <CharString name="ogonek">
          -69 -61 -21 84 -20 hstem
          51 33 vstem
          156 -64 rmoveto
          -3 -12 -12 -2 -11 hhcurveto
          -21 -16 7 16 11 7 15 18 20 hvcurveto
          1 -1 -3 1 -2 hhcurveto
          77 callgsubr
          hvcurveto
          -35 -22 -14 -18 -14 vvcurveto
          -17 22 -11 30 17 19 3 7 19 vhcurveto
          endchar
        </CharString>
        <CharString name="ograve">
          34 callgsubr
          102 -83 callsubr
          177 150 -98 callgsubr
        </CharString>
        <CharString name="one">
          30 8 -21 697 -20 hstem
          434 663 rmoveto
          5 6 1 4 3 vvcurveto
          8 -13 0 -4 -16 -7 -9 0 vhcurveto
          -156 -121 -186 -71 31 callgsubr
          -28 -7 -7 -30 vhcurveto
          -2 0 -4 7 4 6 1 3 8 vhcurveto
          0 172 80 108 83 vhcurveto
          0 3 1 3 2 3 -1 -2 -4 -281 -395 -94 -198 vhcurveto
          0 -3 -5 -5 vvcurveto
          -8 13 -3 9 9 11 4 15 9 vhcurveto
          0 205 391 217 266 vhcurveto
          endchar
        </CharString>
        <CharString name="onehalf">
          319 -79 -21 130 29 218 23 -23 147 260 -20 hstemhm
          283 35 -35 168 71 34 hintmask 11101101
          -88 callsubr
          139 -288 -51 callgsubr
          hintmask 11011011
          -29 callsubr
          -58 326 rmoveto
          -10 -19 -404 -709 -7 -12 rrcurveto
          -85 callsubr
          420 746 2 4 4 32 callsubr
          endchar
        </CharString>
        <CharString name="onequarter">
          373 -79 -21 239 20 525 -20 hstem
          -88 callsubr
          81 38 rmoveto
          -10 -19 -404 -709 -7 -12 rrcurveto
          -85 callsubr
          420 746 2 4 4 32 callsubr
          -50 -648 -84 callsubr
        </CharString>
        <CharString name="onesuperior">
          -33 241 -21 421 -20 hstem
          -88 callsubr
          endchar
        </CharString>
        <CharString name="ordfeminine">
          49 253 26 61 23 162 22 hstemhm
          8 50 -50 167 hintmask 11101000
          213 467 -75 callgsubr
          -12 5 -14 21 53 135 92 0 vhcurveto
          8 4 1 5 4 vvcurveto
          3 -1 2 0 vhcurveto
          -68 callsubr
          hintmask 11110000
          -73 callgsubr
          -213 -188 -37 callgsubr
          endchar
        </CharString>
        <CharString name="ordmasculine">
          -50 263 26 44 33 187 26 hstemhm
          19 39 0 151 hintmask 11101000
          244 422 -66 callgsubr
          -31 hhcurveto
          -15 callsubr
          hintmask 11110000
          -53 callsubr
          12 hlineto
          26 25 6 13 21 hvcurveto
          -96 115 -96 callsubr
          -188 -248 -37 callgsubr
          -121 154 -80 callsubr
          endchar
        </CharString>
        <CharString name="oslash">
          -90 -67 -21 102 187 0 26 40 -20 20 callgsubr
          hintmask 10110100
          -50 callsubr
          20 -5 14 -8 11 vhcurveto
          34 57 rlineto
          3 -1 1 -5 -13 -10 -18 0 vhcurveto
          -17 -31 rlineto
          6 -9 -11 3 -11 hhcurveto
          -22 callsubr
          hvcurveto
          hintmask 11011000
          -27 -33 -16 -36 -24 vvcurveto
          -24 9 -13 15 -2 vhcurveto
          -28 -49 rlineto
          -2 -3 -2 -6 -3 vvcurveto
          -6 3 -3 5 7 12 23 0 vhcurveto
          28 49 29 8 36 26 29 33 rlinecurve
          -97 callsubr
          endchar
        </CharString>
        <CharString name="otilde">
          -90 -19 33 0 187 0 26 0 44 18 23 20 callgsubr
          hintmask 10101100
          -16 callgsubr
          hintmask 01011010
          -75 callsubr
          215 197 -72 callsubr
          endchar
        </CharString>
        <CharString name="p">
          -16 -389 29 528 29 196 31 callsubr
          -32 -39 -14 -23 -41 hvcurveto
          57 93 56 92 17 29 rrcurveto
          -36 callgsubr
          -16 -32 -54 -91 -52 -86 rrcurveto
          -170 -123 -194 -248 -121 52 callgsubr
          20 37 43 72 45 75 rrcurveto
          21 37 35 13 -52 callsubr
          90 163 238 156 119 hvcurveto
          endchar
        </CharString>
        <CharString name="paragraph">
          218 -214 -21 469 238 hstem
          382 472 rmoveto
          61 callsubr
          44 78 41 24 42 hvcurveto
          -283 -510 rlineto
          -85 callsubr
          319 567 52 99 14 vvcurveto
          2 -1 0 -1 vhcurveto
          54 -22 rmoveto
          -10 -19 -351 -630 -7 -12 rrcurveto
          -85 callsubr
          636 358 16 39 -3 hhcurveto
          0 0 5 -9 -9 callgsubr
          endchar
        </CharString>
        <CharString name="parenleft">
          20 -143 -21 932 -20 hstem
          103 32 vstem
          103 47 rmoveto
          -71 35 -89 29 -47 vhcurveto
          -3 2 50 callgsubr
          hhcurveto
          3 0 5 3 hvcurveto
          -26 50 -14 58 66 vvcurveto
          342 221 273 268 124 vhcurveto
          0 6 6 3 vvcurveto
          1 0 1 -2 vhcurveto
          0 -525 -202 -519 vvcurveto
          endchar
        </CharString>
        <CharString name="parenright">
          118 -143 -21 932 -20 hstem
          402 32 vstem
          434 557 rmoveto
          71 -35 89 -29 47 vhcurveto
          3 -2 -2 1 -1 hhcurveto
          -3 0 -5 -3 hvcurveto
          26 -50 14 -58 -66 vvcurveto
          -342 -221 -273 -268 -124 vhcurveto
          0 -6 -6 -3 vvcurveto
          -1 0 -1 2 vhcurveto
          0 525 202 519 vvcurveto
          endchar
        </CharString>
        <CharString name="percent">
          415 12 callsubr
          hintmask 1101111010000000
          -76 callgsubr
          hintmask 1101110110000000
          21 callsubr
          hintmask 1011110110000000
          -41 callgsubr
          vhcurveto
          endchar
        </CharString>
        <CharString name="period">
          -80 5 -21 50 -20 hstem
          62 -16 -80 callgsubr
        </CharString>
        <CharString name="periodcentered">
          -69 125 -21 50 -20 hstem
          114 104 -80 callgsubr
        </CharString>
        <CharString name="perthousand">
          732 12 callsubr
          1 32 255 29 hintmask 1101111011100000
          -76 callgsubr
          hintmask 1101110111100000
          21 callsubr
          hintmask 1011110111100000
          -41 callgsubr
          vhcurveto
          hintmask 1101111011100000
          155 -345 -47 callsubr
          hvcurveto
          hintmask 1011111011100000
          -41 callgsubr
          vhcurveto
          endchar
        </CharString>
        <CharString name="plus">
          59 177 -21 137 26 133 -20 hstem
          140 288 14 callgsubr
          40 114 rlineto
          5 callgsubr
          -36 -103 rlineto
          -1 callgsubr
          -11 -31 -11 -36 -14 -46 -14 callsubr
          endchar
        </CharString>
        <CharString name="plusminus">
          59 156 32 134 26 104 -20 hstem
          -47 187 -51 callsubr
          3 -2 2 -7 vhcurveto
          -86 128 14 callgsubr
          31 85 rlineto
          5 callgsubr
          -13 -37 -2 -2 -12 -35 rrcurveto
          -1 callgsubr
          -11 -31 -2 -12 -14 -46 -14 callsubr
          endchar
        </CharString>
        <CharString name="q">
          -23 -408 36 183 31 -31 126 55 31 184 23 hstemhm
          -105 247 -219 35 21 50 93 20 106 39 hintmask 1011101111000000
          266 12 rmoveto
          -43 -39 -48 -35 -45 -27 -5 7 -8 7 -10 4 40 57 39 53 28 36 rrcurveto
          6 8 2 5 4 vvcurveto
          4 -4 7 -8 -3 -4 -1 -4 -5 vhcurveto
          0 -81 -75 -56 -23 -9 8 12 48 144 116 55 8 12 -3 -9 vhcurveto
          -22 -48 -19 -10 vvcurveto
          -3 4 -3 3 22 58 45 24 15 -10 8 -17 61 callsubr
          63 66 52 0 vhcurveto
          -23 -36 -25 -35 -25 -37 rrcurveto
          1 -5 -5 0 -5 hhcurveto
          hintmask 1101110001000000
          -98 -69 -67 -37 -13 11 -9 19 22 28 7 12 30 hvcurveto
          hintmask 1101101111000000
          -46 -75 -36 -72 -64 vvcurveto
          -19 9 -8 13 vhcurveto
          55 142 178 100 10 -2 9 -3 8 hvcurveto
          42 26 41 29 35 29 rrcurveto
          9 8 7 15 7 vvcurveto
          2 -1 1 -1 77 callgsubr
          vhcurveto
          -212 -162 rmoveto
          21 11 22 12 22 13 rrcurveto
          2 -7 1 -7 -8 vvcurveto
          -85 -117 -151 -35 -8 -4 5 11 44 43 80 53 82 vhcurveto
          12 71 rmoveto
          -15 -22 -15 -21 -14 -22 rrcurveto
          -9 -23 -20 -5 -14 hhcurveto
          -17 -10 6 13 hvcurveto
          47 30 55 13 33 hhcurveto
          40 -8 rmoveto
          6 -3 6 -5 4 -5 -39 -21 rcurveline
          endchar
        </CharString>
        <CharString name="question">
          30 16 -21 438 27 190 22 hstem
          67 45 14 196 163 48 vstem
          150 174 rmoveto
          71 178 312 111 118 vvcurveto
          84 -127 7 -24 -153 -162 -100 -90 -15 3 -34 69 69 114 42 25 4 -2 1 -3 -5 -7 -5 0 vhcurveto
          -28 -46 -51 -12 -37 hhcurveto
          -56 -3 32 9 53 108 96 143 13 109 0 -66 hvcurveto
          -134 -359 -141 -123 vvcurveto
          -10 2 -9 8 -6 vhcurveto
          0 9 1 5 12 vhcurveto
          -68 -179 -80 callgsubr
        </CharString>
        <CharString name="questiondown">
          30 -377 22 190 27 438 -20 hstem
          -235 48 163 196 14 45 vstem
          148 121 rmoveto
          5 12 9 1 0 vvcurveto
          8 -6 2 -9 -10 -123 -359 -141 -134 vvcurveto
          -66 109 0 13 143 108 96 53 9 -3 32 -56 -37 -51 -12 -28 -46 vhcurveto
          0 -7 -5 -5 -3 -2 1 4 25 114 42 69 69 3 -34 -15 -90 -162 -100 -153 -24 -127 7 84 118 312 111 71 178 vhcurveto
          57 129 -80 callgsubr
        </CharString>
        <CharString name="quotedbl">
          -24 -24 callgsubr
          141 79 -50 callgsubr
          endchar
        </CharString>
        <CharString name="quotedblbase">
          -41 -78 -21 180 -20 hstem
          75 21 65 21 vstem
          33 -69 -53 callgsubr
        </CharString>
        <CharString name="quotedblleft">
          50 377 -21 184 -20 hstem
          215 35 44 -10 callsubr
          79 -34 -42 callsubr
          endchar
        </CharString>
        <CharString name="quotedblright">
          50 387 -21 180 -20 hstem
          171 21 65 21 vstem
          129 396 -53 callgsubr
        </CharString>
        <CharString name="quoteleft">
          -23 411 -21 150 -20 hstem
          215 -10 callsubr
          endchar
        </CharString>
        <CharString name="quoteright">
          -39 397 -21 170 -20 hstem
          171 21 vstem
          129 396 -82 callgsubr
          endchar
        </CharString>
        <CharString name="quotesinglbase">
          -127 -68 -21 170 -20 hstem
          75 21 vstem
          33 -69 -82 callgsubr
          endchar
        </CharString>
        <CharString name="quotesingle">
          -107 -24 callgsubr
          endchar
        </CharString>
        <CharString name="r">
          -52 -16 31 242 22 hstem
          52 40 53 28 vstem
          7 67 rmoveto
          29 17 34 32 30 32 rrcurveto
          20 -4 19 -1 0 vvcurveto
          4 -1 2 -1 -3 -14 -93 -52 -62 vvcurveto
          -12 5 -14 -86 callgsubr
          -6 8 8 41 47 41 19 11 vhcurveto
          12 7 3 10 12 vvcurveto
          14 -23 5 -25 4 vhcurveto
          23 26 14 31 22 vvcurveto
          15 -7 9 -13 -40 -58 -55 -34 -21 22 -11 23 -7 vhcurveto
          -28 -30 -33 -29 -29 -16 rrcurveto
          -23 callsubr
          62 139 rmoveto
          23 36 28 19 10 5 -7 -12 -16 -9 -23 -17 -21 vhcurveto
          -23 4 -21 7 17 vvcurveto
          endchar
        </CharString>
        <CharString name="registered">
          315 -63 21 -21 164 -164 189 24 208 -73 73 -20 20 hstemhm
          49 27 -27 99 25 238 -21 191 -143 143 -27 27 hintmask 0011000110100000
          356 263 rmoveto
          -81 -102 -75 -28 -6 5 -4 12 24 39 20 31 30 hvcurveto
          0 5 5 4 4 3 -3 -5 -1 -2 -5 -3 -5 vhcurveto
          -18 -13 -64 -43 -39 hhcurveto
          -20 -10 8 13 hvcurveto
          hintmask 1000101010100000
          39 120 99 101 49 20 -20 -23 -38 -51 -54 -64 -34 vhcurveto
          hintmask 0101001001000000
          40 -10 26 -43 1 -46 rrcurveto
          -4 -3 -6 -4 -6 -3 13 0 0 -13 81 -74 vhcurveto
          -3 -1 -39 -71 rlineto
          -1 -3 -4 -4 -2 vhcurveto
          -3 -5 -4 -1 -3 hhcurveto
          -5 -3 0 7 hvcurveto
          37 68 rlineto
          -1 -6 -5 -2 -6 hhcurveto
          -2 -10 3 4 6 4 2 5 hvcurveto
          10 1 10 2 10 3 67 121 rcurveline
          -1 hlineto
          7 3 12 3 5 hhcurveto
          7 0 -6 0 hvcurveto
          -61 -114 rlineto
          hintmask 1001001010100000
          60 27 54 51 34 vvcurveto
          15 -16 14 -39 vhcurveto
          5 95 45 callsubr
          hvcurveto
          hintmask 1000011010010000
          28 callsubr
          100 -59 -102 21 callgsubr
          hvcurveto
          endchar
        </CharString>
        <CharString name="ring">
          250 89 hstem
          218 281 rmoveto
          9 callgsubr
          18 callsubr
          hvcurveto
          endchar
        </CharString>
        <CharString name="s">
          -100 -39 21 258 -67 callsubr
          -98 -165 -28 callgsubr
        </CharString>
        <CharString name="scaron">
          -100 -39 21 383 -67 callsubr
          25 133 rmoveto
          0 -38 65 -11 -3 -3 -2 -4 -2 vhcurveto
          -30 14 20 -63 11 hhcurveto
          11 131 79 5 7 callsubr
          -4 -1 -1 0 72 callgsubr
          -39 -15 -42 -19 -40 -20 rrcurveto
          -123 -298 -28 callgsubr
        </CharString>
        <CharString name="section">
          -51 -39 21 348 -20 hstem
          -21 40 31 25 50 25 42 33 vstem
          50 144 rmoveto
          -45 37 -6 19 -27 vhcurveto
          4 callsubr
          4 0 4 -1 3 vhcurveto
          39 13 37 27 39 vvcurveto
          10 callgsubr
          23 callsubr
          -65 -46 -49 -1 vhcurveto
          -32 -13 -43 -38 -40 vvcurveto
          25 19 rmoveto
          28 31 24 21 1 vhcurveto
          12 -42 53 2 -57 vvcurveto
          -24 -24 -16 -24 -5 vhcurveto
          -17 39 -52 21 29 vvcurveto
          42 -134 rmoveto
          47 callsubr
          17 callgsubr
          33 224 rmoveto
          10 callsubr
          -8 -10 -9 -9 -9 -9 rrcurveto
          -4 6 -3 6 7 vvcurveto
          endchar
        </CharString>
        <CharString name="semicolon">
          -106 -75 -21 135 123 50 -10 callgsubr
          37 123 -80 callgsubr
        </CharString>
        <CharString name="seven">
          136 -8 -21 647 44 hstem
          -100 -29 rmoveto
          34 3 5 15 6 hvcurveto
          15 52 37 61 48 62 rrcurveto
          79 102 99 94 0 vvcurveto
          77 68 191 173 0 vvcurveto
          37 34 -1 14 0 vvcurveto
          -1 8 -25 0 0 vvcurveto
          2 -34 -36 1 -36 hhcurveto
          -117 -114 -8 0 hvcurveto
          -30 -40 -62 0 hvcurveto
          0 -4 -7 -5 vvcurveto
          -4 2 -3 8 vhcurveto
          0 13 5 11 9 vhcurveto
          23 27 93 8 131 hhcurveto
          32 39 -2 -10 -6 -74 -73 -134 -124 hvcurveto
          0 -175 -157 -102 -134 vhcurveto
          -35 -46 -24 -43 -9 -33 rrcurveto
          0 -1 -3 -4 vvcurveto
          -5 2 -7 8 vhcurveto
          endchar
        </CharString>
        <CharString name="six">
          242 -17 -21 40 -21 374 20 293 21 hstemhm
          -50 73 -27 27 373 36 hintmask 01111010
          339 375 rmoveto
          -148 -165 -166 0 hvcurveto
          -3 -3 -2 -1 -1 hhcurveto
          -2 0 2 8 hvcurveto
          19 43 32 52 0 vvcurveto
          107 177 214 180 134 1 24 -1 rcurveline
          10 7 2 7 4 -4 6 -20 2 hvcurveto
          0 -4 1 -9 -176 -223 -209 -134 -83 vhcurveto
          0 -96 -148 -53 vvcurveto
          -6 1 7 -24 14 hhcurveto
          2 2 0 1 2 hvcurveto
          0 6 1 16 25 vhcurveto
          26 14 170 187 146 hhcurveto
          39 27 -15 -44 -86 -164 -229 -144 -28 -37 15 48 58 44 48 45 29 hvcurveto
          0 7 5 5 vvcurveto
          3 -1 3 -8 -4 -7 -1 -5 -8 vhcurveto
          hintmask 10110110
          0 -95 -58 -87 vvcurveto
          -25 11 -57 75 180 170 197 131 59 -30 26 -63 vhcurveto
          endchar
        </CharString>
        <CharString name="slash">
          15 -93 -21 784 -20 hstem
          444 650 rmoveto
          -10 -19 -404 -709 -7 -12 rrcurveto
          -85 callsubr
          420 746 2 4 4 32 callsubr
          endchar
        </CharString>
        <CharString name="space">
          -122 endchar
        </CharString>
        <CharString name="sterling">
          452 -120 227 -39 39 199 24 35 24 69 236 -95 95 hstemhm
          -274 25 789 30 hintmask 10111011
          160 317 24 callsubr
          48 6 26 2 38 1 -35 -69 -36 -69 -41 -61 rrcurveto
          -293 -10 -132 -115 -62 vvcurveto
          -24 19 -16 37 181 117 80 109 88 vhcurveto
          97 -1 126 12 callgsubr
          -233 7 vhcurveto
          1 -19 -18 0 -18 hhcurveto
          44 62 36 68 34 68 rrcurveto
          46 38 -30 callsubr
          2 -38 hvcurveto
          -64 hlineto
          18 35 rlineto
          45 38 -30 callsubr
          2 -38 hvcurveto
          -63 hlineto
          157 79 79 133 149 22 callsubr
          hintmask 01110111
          3 callgsubr
          -13 hhcurveto
          -6 4 hlineto
          36 -27 28 -71 -186 -96 -143 -164 -86 vhcurveto
          -50 -2 -36 -4 -8 36 callgsubr
          48 6 26 2 39 1 -7 -13 -5 -12 -7 -12 -49 23 callgsubr
          vvcurveto
          -362 -418 rmoveto
          -32 -15 9 14 45 155 97 217 4 hvcurveto
          -98 -77 -98 -71 -150 hhcurveto
          792 575 30 callgsubr
        </CharString>
        <CharString name="t">
          -98 -9 24 285 34 -34 168 hstemhm
          -22 43 hintmask 11010000
          22 330 rmoveto
          -22 -1 -1 -14 -5 vvcurveto
          -6 4 -4 53 13 16 0 2 48 vhcurveto
          -80 -106 -75 -126 -47 vvcurveto
          0 0 -32 45 25 38 10 31 61 vhcurveto
          38 22 32 22 0 vvcurveto
          -100 callgsubr
          0 -39 -25 -42 -22 vhcurveto
          -9 -18 -48 -23 -30 hhcurveto
          -16 -11 6 17 32 33 67 43 71 hvcurveto
          30 21 48 35 43 41 188 8 rcurveline
          22 1 4 10 9 vvcurveto
          3 -4 1 -12 -15 -28 -1 -2 -51 vhcurveto
          0 -33 -1 -43 vhcurveto
          40 41 30 43 36 vvcurveto
          hintmask 10110000
          9 -4 6 -10 -27 -59 -60 -77 -60 vhcurveto
          -1 -66 -62 0 -6 hhcurveto
          263 102 rmoveto
          -30 -25 -36 -31 -34 vhcurveto
          -50 hlineto
          60 45 41 45 16 hhcurveto
          3 1 -2 -3 hvcurveto
          -84 -128 rmoveto
          -33 -30 -34 -26 -23 -17 16 24 15 25 16 23 rrcurveto
          1 11 18 0 14 hhcurveto
          endchar
        </CharString>
        <CharString name="thorn">
          -16 -389 29 528 29 347 31 callsubr
          -33 -39 -15 -24 -42 hvcurveto
          217 367 rlineto
          -36 callgsubr
          -210 -362 rlineto
          -170 -123 -191 -247 -120 52 callgsubr
          16 30 42 70 48 82 rrcurveto
          22 37 37 14 -52 callsubr
          89 161 237 156 120 hvcurveto
          -39 -66 -30 -53 -10 -18 rrcurveto
          endchar
        </CharString>
        <CharString name="three">
          -19 -21 39 -21 380 135 -28 28 155 20 hstemhm
          79 38 -38 219 64 48 54 45 hintmask 0101101110000000
          499 555 rmoveto
          7 14 3 11 11 vvcurveto
          65 -94 12 -44 -150 -142 -91 -70 -8 3 -34 64 48 104 31 35 4 -1 1 -3 -3 2 callsubr
          -23 -30 -47 -17 -47 hhcurveto
          hintmask 0110110110000000
          -45 0 22 6 55 116 72 114 39 78 -7 -56 -15 -7 -18 -17 -23 hvcurveto
          0 -61 -94 -215 -47 vhcurveto
          0 -5 -1 -5 -4 vhcurveto
          0 -11 -13 -8 vvcurveto
          -3 2 -2 5 vhcurveto
          3 12 1 18 hhcurveto
          58 121 -11 -98 -88 -118 -183 -191 -33 -91 7 82 0 -2 105 141 27 hvcurveto
          0 12 3 5 72 callsubr
          5 -14 -6 -156 -19 -131 -11 vhcurveto
          hintmask 1010101110000000
          -20 8 -85 141 150 220 114 174 123 -164 9 0 vhcurveto
          -7 1 -3 1 2 vvcurveto
          3 11 4 0 vhcurveto
          216 69 36 95 0 vvcurveto
          endchar
        </CharString>
        <CharString name="threequarters">
          475 -79 -21 239 20 306 83 -18 121 33 -20 69 callgsubr
          hintmask 1101111110000000
          446 16 -93 callsubr
          -97 589 rmoveto
          39 -56 7 -26 -90 -86 -54 -42 -5 2 -20 39 28 63 18 21 7 callsubr
          -2 vhcurveto
          -1 hlineto
          hintmask 1110111110000000
          -5 -8 -42 -21 -26 hhcurveto
          -12 -8 4 13 33 61 41 68 42 16 -12 -17 -35 -67 -58 -50 -17 hvcurveto
          -20 -7 -19 -5 -12 -3 rrcurveto
          0 -3 0 -3 -3 vhcurveto
          0 -6 -9 -5 vvcurveto
          -2 1 -1 3 vhcurveto
          20 hlineto
          69 28 -30 -39 -67 -84 -92 -91 -49 -22 24 27 32 30 36 51 11 hvcurveto
          3 3 2 60 callsubr
          3 -3 2 -6 -3 -94 -12 -78 -6 vhcurveto
          -12 4 -51 85 90 132 68 104 74 -98 6 0 -5 -1 1 1 2 6 2 0 vhcurveto
          51 18 106 44 58 vvcurveto
          16 -450 -65 callgsubr
          131 509 rmoveto
          -10 -19 -404 -709 -7 -12 rrcurveto
          -85 callsubr
          420 746 2 4 4 32 callsubr
          endchar
        </CharString>
        <CharString name="threesuperior">
          57 248 -21 238 83 -18 121 69 callgsubr
          hintmask 10111110
          349 605 rmoveto
          39 -56 7 -26 -90 -86 -54 -42 -5 2 -20 39 28 63 18 21 7 callsubr
          -2 vhcurveto
          -1 hlineto
          hintmask 11011110
          -5 -8 -42 -21 -26 hhcurveto
          -12 -8 4 13 33 61 41 68 42 16 -12 -17 -35 -67 -58 -50 -17 hvcurveto
          -20 -7 -19 -5 -12 -3 rrcurveto
          0 -3 0 -3 -3 vhcurveto
          0 -6 -9 -5 vvcurveto
          -2 1 -1 3 vhcurveto
          20 hlineto
          69 28 -30 -39 -67 -84 -92 -91 -49 -22 24 27 32 30 36 51 11 hvcurveto
          3 3 2 60 callsubr
          3 -3 2 -6 -3 -94 -12 -78 -6 vhcurveto
          -12 4 -51 85 90 132 68 104 74 -98 6 0 -5 -1 1 1 2 6 2 0 vhcurveto
          51 18 106 44 58 vvcurveto
          endchar
        </CharString>
        <CharString name="tilde">
          80 207 60 -23 23 hstemhm
          hintmask 01000000
          320 244 -70 callgsubr
          hhcurveto
          hintmask 10000000
          27 callsubr
          hintmask 01000000
          63 callsubr
        </CharString>
        <CharString name="trademark">
          33 141 137 -135 -21 85 99 5 -20 hstemhm
          -14 196 hintmask 10011000
          240 152 rmoveto
          3 2 6 5 8 vhcurveto
          56 105 rlineto
          3 -2 1 -4 -6 -10 -3 -2 -3 vhcurveto
          -23 -22 -72 -96 -4 hhcurveto
          10 18 60 92 9 72 callsubr
          1 -2 -3 -3 -1 -2 -4 vhcurveto
          -15 -15 -81 -91 -3 -1 rrcurveto
          0 45 51 45 vvcurveto
          11 -5 7 -8 -5 -6 -2 -5 -7 vhcurveto
          13 5 -8 -13 -44 -51 -61 0 hvcurveto
          hintmask 01101000
          0 -2 80 callgsubr
          hintmask 10011000
          -2 6 0 1 2 2 1 0 vhcurveto
          14 13 94 110 -6 -10 -67 -91 -13 vvcurveto
          -2 5 -4 2 3 4 5 0 vhcurveto
          5 6 31 40 33 42 38 36 rlinecurve
          -61 -110 -4 -8 -5 vvcurveto
          -3 1 -4 6 13 34 23 0 vhcurveto
          2 1 0 2 1 vvcurveto
          1 vlineto
          0 -25 -17 -11 -2 -2 1 2 vhcurveto
          64 159 rmoveto
          hintmask 01101000
          -4 -18 -20 -1 -21 -26 -28 2 -27 hhcurveto
          -49 -49 -6 -29 -43 hvcurveto
          -23 -16 -14 -19 -17 vvcurveto
          -9 7 -5 17 37 41 35 20 9 vhcurveto
          1 vlineto
          0 0 73 callgsubr
          -2 -3 0 vhcurveto
          -25 -24 -38 -20 -19 hhcurveto
          -11 -5 4 7 10 12 16 21 14 hvcurveto
          27 42 49 4 52 24 24 -1 25 hhcurveto
          20 18 1 4 13 hvcurveto
          7 2 4 5 1 vvcurveto
          hintmask 01011000
          1 -2 0 -1 vhcurveto
          -160 -27 rmoveto
          0 0 1 -2 vhcurveto
          0 -7 -1 -4 -1 vhcurveto
          -3 -1 -2 -3 0 vvcurveto
          1 -85 -154 -2 -1 1 0 1 2 7 1 1 3 hvcurveto
          3 1 2 3 0 vvcurveto
          82 155 rlineto
          endchar
        </CharString>
        <CharString name="two">
          227 -4 -21 34 -21 23 36 375 23 201 21 hstemhm
          87 45 356 48 hintmask 10111110
          372 524 rmoveto
          6 -2 2 -3 -5 -7 -6 0 vhcurveto
          -56 -51 -76 -25 -47 hhcurveto
          -49 0 24 9 67 152 101 117 40 47 -9 -55 -26 -13 -37 -49 -52 hvcurveto
          0 -59 -76 -198 -129 vhcurveto
          2 -1 -306 -203 -67 vvcurveto
          -6 3 -10 13 4 5 1 2 6 vhcurveto
          0 130 33 135 64 42 0 -18 54 vhcurveto
          hintmask 01111110
          0 10 -5 8 7 4 4 13 26 -58 16 -54 vhcurveto
          -126 -172 -42 -7 hhcurveto
          -6 75 callsubr
          31 70 211 149 0 vvcurveto
          165 113 201 106 129 vvcurveto
          58 -49 21 -56 -165 -179 -115 -83 -34 27 -13 41 92 125 63 39 vhcurveto
          endchar
        </CharString>
        <CharString name="twosuperior">
          74 257 -21 22 29 218 23 -23 147 hstemhm
          94 35 -35 168 71 34 hintmask 11101010
          263 566 -51 callgsubr
          hintmask 11010110
          -29 callsubr
          endchar
        </CharString>
        <CharString name="u">
          65 callsubr
          209 35 callgsubr
          125 10 rmoveto
          -12 5 -14 -86 callgsubr
          -5 2 8 vhcurveto
          6 22 60 78 50 70 rrcurveto
          3 -9 3 -11 2 vhcurveto
          -9 -4 -7 0 hvcurveto
          -40 -31 -129 -131 -43 hhcurveto
          -9 -1 9 3 15 66 91 14 callsubr
          -59 -82 -29 vvcurveto
          hintmask 01100000
          -33 callsubr
          endchar
        </CharString>
        <CharString name="uacute">
          21 -6 31 -20 -21 327 35 callgsubr
          125 10 rmoveto
          1 23 49 62 5 7 rrcurveto
          -10 -11 -108 -98 -45 hhcurveto
          -18 -7 11 10 29 59 82 42 58 hvcurveto
          29 callgsubr
          -66 -91 -15 vvcurveto
          -3 1 -9 9 43 129 131 40 31 vhcurveto
          0 4 7 9 vhcurveto
          11 -2 9 -3 -3 vvcurveto
          -50 -70 -60 -78 -6 -22 rrcurveto
          -58 callsubr
          hintmask 01100000
          -12 callgsubr
          vhcurveto
          60 214 -102 callgsubr
        </CharString>
        <CharString name="ucircumflex">
          65 callsubr
          329 35 callgsubr
          125 10 rmoveto
          -12 5 -14 -86 callgsubr
          -5 2 8 vhcurveto
          6 22 60 78 50 70 rrcurveto
          3 -9 3 -11 2 vhcurveto
          -9 -4 -7 0 hvcurveto
          -40 -31 -129 -131 -43 hhcurveto
          -9 -1 9 3 15 66 91 14 callsubr
          -59 -82 -29 vvcurveto
          hintmask 01100000
          -33 callsubr
          109 279 -100 callsubr
        </CharString>
        <CharString name="udieresis">
          65 callsubr
          252 61 10 -20 hstemhm
          143 80 callsubr
          hintmask 10101100
          125 10 rmoveto
          -12 5 -14 -86 callgsubr
          -5 2 8 vhcurveto
          6 22 60 78 50 70 rrcurveto
          3 -9 3 -11 2 vhcurveto
          -9 -4 -7 0 hvcurveto
          -40 -31 -129 -131 -43 hhcurveto
          -9 -1 9 3 15 66 91 14 callsubr
          -59 -82 -29 vvcurveto
          hintmask 01101100
          -33 callsubr
          167 297 -96 callgsubr
          hintmask 10011100
          -105 10 -96 callgsubr
          endchar
        </CharString>
        <CharString name="ugrave">
          65 callsubr
          326 35 callgsubr
          125 10 rmoveto
          -12 5 -14 -86 callgsubr
          -5 2 8 vhcurveto
          6 22 60 78 50 70 rrcurveto
          3 -9 3 -11 2 vhcurveto
          -9 -4 -7 0 hvcurveto
          -40 -31 -129 -131 -43 hhcurveto
          -9 -1 9 3 15 66 91 14 callsubr
          -59 -82 -29 vvcurveto
          hintmask 01100000
          -33 callsubr
          99 223 -98 callgsubr
        </CharString>
        <CharString name="underscore">
          59 -38 27 hstem
          37 -12 -37 callgsubr
          endchar
        </CharString>
        <CharString name="v">
          -84 3 -21 236 42 hstem
          25 138 rmoveto
          -28 -2 -57 -13 -67 vhcurveto
          -3 2 -1 3 6 8 7 0 vhcurveto
          127 123 80 102 41 7 -4 -8 9 hhcurveto
          20 30 28 11 10 -15 1 0 -76 -135 -172 -52 -53 hvcurveto
          0 6 53 44 vvcurveto
          32 -3 28 68 callsubr
          3 13 7 9 hhcurveto
          4 3 -1 -4 2 hvcurveto
          endchar
        </CharString>
        <CharString name="w">
          40 3 -21 33 -21 263 -20 hstemhm
          29 38 -38 184 34 26 -26 120 hintmask 01101010
          247 146 rmoveto
          -14 9 -9 13 -2 vhcurveto
          -47 -51 -55 -46 -1 18 46 114 20 vvcurveto
          10 -8 2 -4 -5 -16 -12 -11 -11 vhcurveto
          -35 -35 -87 -71 0 vvcurveto
          64 callgsubr
          hintmask 01110100
          5 19 17 76 23 vvcurveto
          10 -4 10 68 callsubr
          5 19 13 7 hhcurveto
          2 1 -4 -4 -30 -38 -101 -8 -16 hvcurveto
          -5 -9 -2 -5 -3 vvcurveto
          -4 3 0 6 -2 vhcurveto
          9 21 20 0 0 121 101 8 6 hvcurveto
          4 4 2 1 2 hhcurveto
          1 1 -1 0 -4 -31 -104 -8 -13 hvcurveto
          -2 -5 -1 -4 -3 vvcurveto
          hintmask 10110010
          -6 3 -4 7 17 83 68 70 64 vhcurveto
          52 5 62 50 0 vvcurveto
          4 3 1 4 3 vvcurveto
          82 callgsubr
          -1 vhcurveto
          0 -69 -51 -25 vhcurveto
          -7 hlineto
          37 42 28 40 24 vvcurveto
          9 -5 4 -8 -31 -76 -59 -52 vhcurveto
          86 75 rmoveto
          -21 -20 -29 -25 -30 vhcurveto
          hintmask 01110100
          -8 2 -7 5 10 vvcurveto
          38 39 31 15 4 2 -2 -4 vhcurveto
          endchar
        </CharString>
        <CharString name="x">
          -47 -40 -21 45 31 204 -20 hstem
          238 219 rmoveto
          -8 -67 -52 -58 -72 hvcurveto
          4 36 7 34 9 vvcurveto
          7 -2 7 -6 4 vhcurveto
          1 -2 -2 1 -2 hhcurveto
          -12 -17 -16 0 hvcurveto
          -19 -14 -5 -8 -3 vvcurveto
          -3 5 82 callsubr
          7 10 6 1 3 hhcurveto
          5 2 -6 -10 -17 -6 -29 -4 -29 hvcurveto
          -77 -64 -74 -61 0 vvcurveto
          -5 -6 -2 80 callgsubr
          -3 4 -3 3 66 callsubr
          3 3 vhcurveto
          49 41 45 36 47 36 rrcurveto
          -1 -7 0 -7 -6 vvcurveto
          -29 7 -23 24 -70 callsubr
          -17 -6 23 30 vhcurveto
          15 vlineto
          48 36 50 36 59 39 rrcurveto
          7 4 2 5 3 vvcurveto
          6 -10 7 -7 vhcurveto
          endchar
        </CharString>
        <CharString name="y">
          56 callsubr
          175 -20 57 callsubr
          vstem
          209 116 rmoveto
          1 1 45 69 1 vvcurveto
          5 -6 3 -13 2 vhcurveto
          -9 -6 -7 0 0 -18 -25 -38 -43 hvcurveto
          -42 -38 -70 -55 -24 hhcurveto
          -9 -1 9 3 15 70 99 14 callsubr
          -63 -90 -29 vvcurveto
          -10 7 -11 18 48 104 96 0 0 -42 -76 -54 -90 vhcurveto
          -154 -43 -133 -191 -69 38 callsubr
          70 103 158 159 97 vhcurveto
          2 12 13 1 13 hhcurveto
          9 10 -3 -8 -28 callsubr
          32 33 19 16 -18 9 -30 -9 -9 0 -1 -8 vhcurveto
          41 67 39 66 36 52 rrcurveto
          -403 -480 rmoveto
          49 92 165 143 45 vhcurveto
          -131 -79 -100 -149 -40 34 callsubr
          endchar
        </CharString>
        <CharString name="yacute">
          56 callsubr
          295 -20 57 callsubr
          vstem
          209 116 rmoveto
          -36 -52 -39 -66 -41 -67 rrcurveto
          1 8 9 0 9 hhcurveto
          30 18 -9 -16 -19 -32 -33 -16 -3 -5 3 4 hvcurveto
          11 22 0 22 vvcurveto
          8 -10 3 -9 -13 -13 -1 -2 -12 vhcurveto
          -159 -97 -103 -158 -70 hhcurveto
          -23 -11 14 21 69 133 191 154 43 hvcurveto
          54 90 42 76 31 callgsubr
          -104 -96 -48 -18 -7 11 10 29 63 90 42 58 vhcurveto
          29 callgsubr
          -70 -99 -15 vvcurveto
          -3 1 -9 9 24 70 55 42 38 vhcurveto
          38 43 18 25 31 callgsubr
          6 7 9 vhcurveto
          13 -2 6 -3 -5 vvcurveto
          -1 -45 -69 -1 -1 vhcurveto
          -403 -480 rmoveto
          -13 5 -8 11 40 100 149 131 79 vhcurveto
          -143 -45 -92 -165 -49 vvcurveto
          371 597 -102 callgsubr
        </CharString>
        <CharString name="ydieresis">
          56 callsubr
          219 61 57 callsubr
          55 59 vstem
          209 116 rmoveto
          1 1 45 69 1 vvcurveto
          5 -6 3 -13 2 vhcurveto
          -9 -6 -7 0 0 -18 -25 -38 -43 hvcurveto
          -42 -38 -70 -55 -24 hhcurveto
          -9 -1 9 3 15 70 99 14 callsubr
          -63 -90 -29 vvcurveto
          -10 7 -11 18 48 104 96 0 0 -42 -76 -54 -90 vhcurveto
          -154 -43 -133 -191 -69 38 callsubr
          70 103 158 159 97 vhcurveto
          2 12 13 1 13 hhcurveto
          9 10 -3 -8 -28 callsubr
          32 33 19 16 -18 9 -30 -9 -9 0 -1 -8 vhcurveto
          41 67 39 66 36 52 rrcurveto
          -403 -480 rmoveto
          49 92 165 143 45 vhcurveto
          -131 -79 -100 -149 -40 34 callsubr
          355 669 -83 callgsubr
          -84 callgsubr
          hvcurveto
          endchar
        </CharString>
        <CharString name="yen">
          217 -226 45 271 28 58 24 35 24 -8 24 545 20 hstemhm
          -106 35 93 38 148 42 hintmask 1111011110000000
          161 246 24 callsubr
          47 6 26 2 38 1 -7 -13 -8 -12 -7 -12 -47 -2 -33 -4 -8 36 callgsubr
          45 5 25 2 35 1 -15 -24 -14 -25 -16 -24 rrcurveto
          -203 -51 -86 -162 -83 vvcurveto
          -20 8 -12 18 65 108 139 167 112 vhcurveto
          6 33 37 4 40 -63 callgsubr
          -33 -31 -3 -5 -29 hvcurveto
          42 66 rlineto
          60 -5 callsubr
          -66 1 hvcurveto
          -17 -16 0 -1 -16 hvcurveto
          7 12 8 12 8 12 rrcurveto
          3 hlineto
          50 callsubr
          -66 1 hvcurveto
          -14 -14 0 -1 -13 hvcurveto
          60 96 54 94 47 73 18 28 15 25 13 21 rrcurveto
          -46 callgsubr
          hintmask 1110111110000000
          -18 callsubr
          190 103 193 vvcurveto
          0 0 103 -129 -29 -8 -4 -5 -5 9 -6 0 79 36 -32 -77 vhcurveto
          -144 -186 -96 -17 callgsubr
          -27 -44 -48 -86 -55 -95 -49 23 callgsubr
          vvcurveto
          -217 -427 rmoveto
          -10 -5 8 13 61 68 121 166 48 hvcurveto
          -136 -86 -85 -115 -48 hhcurveto
          endchar
        </CharString>
        <CharString name="z">
          44 callsubr
          32 -92 callgsubr
          endchar
        </CharString>
        <CharString name="zcaron">
          44 callsubr
          146 -92 callgsubr
          276 632 rmoveto
          0 -38 65 -11 -3 -3 -2 -4 -2 vhcurveto
          -30 14 20 -63 11 hhcurveto
          11 131 79 5 7 callsubr
          -4 -1 -1 0 72 callgsubr
          -39 -15 -42 -19 -40 -20 rrcurveto
          endchar
        </CharString>
        <CharString name="zero">
          264 -23 20 659 20 hstem
          -66 44 536 36 vstem
          83 -23 rmoveto
          207 260 294 241 138 -75 26 -69 -294 -178 -376 -168 -79 34 -76 115 hvcurveto
          431 560 rmoveto
          -207 -244 -333 -182 -102 -8 61 58 170 187 370 236 14 99 -5 -114 vhcurveto
          endchar
        </CharString>
      <CharString index="0">
        -41 -68 rmoveto
        0 callgsubr
        vlineto
        42 -18 49 -13 57 -4 6 -32 -57 callsubr
        rrcurveto
        70 6 86 15 26 vvcurveto
        5 -5 7 -8 -2 -1 -10 -4 -10 vhcurveto
        -31 -15 -48 -9 -43 -3 rrcurveto
        98 204 131 259 80 vvcurveto
        -71 callgsubr
        43 -71 87 -47 hvcurveto
        -71 -81 -72 -75 -73 -54 -52 callgsubr
        434 206 -32 callsubr
        -60 callgsubr
        -138 168 -31 callgsubr
        31 22 23 -40 callsubr
        -45 7 -40 14 -35 17 24 30 25 32 25 34 rrcurveto
        return
      </CharString>
      <CharString index="1">
        6 6 4 2 4 hvcurveto
        85 54 rlineto
        4 7 callgsubr
        6 vvcurveto
        8 -5 6 -9 -4 -3 59 callgsubr
        vhcurveto
        -79 -65 -4 -4 -4 -3 -1 -5 rlinecurve
        -3 2 -2 3 -1 vhcurveto
        return
      </CharString>
      <CharString index="2">
        378 -88 callgsubr
        -153 -284 -225 -118 -1 callsubr
        -167 -77 -108 -125 -85 -98 callsubr
        return
      </CharString>
      <CharString index="3">
        620 rmoveto
        0 0 103 -129 -238 -202 -205 -108 -77 callsubr
        hvcurveto
        -144 -254 -195 -17 callgsubr
        -35 -56 -69 -127 -76 -128 rrcurveto
        -199 -77 -132 -208 -80 vvcurveto
        -20 8 -12 18 74 132 182 200 128 vhcurveto
        10 37 40 6 43 -63 callgsubr
        -36 -34 -5 -8 -33 hvcurveto
        76 119 73 123 57 92 46 74 rcurveline
        -46 callgsubr
        -18 callsubr
        258 202 193 vvcurveto
        -389 -996 rmoveto
        59 100 169 177 71 vhcurveto
        -164 -99 -107 -156 -56 hhcurveto
        -10 -5 8 13 hvcurveto
        return
      </CharString>
      <CharString index="4">
        -67 callgsubr
        vhcurveto
        -100 callgsubr
        return
      </CharString>
      <CharString index="5">
        -106 callsubr
        endchar
      </CharString>
      <CharString index="6">
        rmoveto
        0 38 -65 11 3 3 2 4 2 vhcurveto
        30 -14 -20 63 -11 hhcurveto
        -11 -131 -79 -5 -3 1 -2 4 1 1 0 1 2 hvcurveto
        39 15 42 19 40 20 rrcurveto
        return
      </CharString>
      <CharString index="7">
        -95 callgsubr
        2 0 vhcurveto
        return
      </CharString>
      <CharString index="8">
        -96 callsubr
        -74 -93 -80 callsubr
        return
      </CharString>
      <CharString index="9">
        -101 callsubr
        endchar
      </CharString>
      <CharString index="10">
        hstem
        0 callsubr
        82 41 vstem
        -105 callsubr
        return
      </CharString>
      <CharString index="11">
        rmoveto
        -91 callsubr
        return
      </CharString>
      <CharString index="12">
        8 4 1 5 4 vvcurveto
        3 -1 return
      </CharString>
      <CharString index="13">
        rmoveto
        23 60 87 24 27 vhcurveto
        3 6 callsubr
        0 -7 9 -12 -8 22 callgsubr
        vhcurveto
        -45 -52 -50 -74 -37 -82 callsubr
        return
      </CharString>
      <CharString index="14">
        hstem
        38 callgsubr
        vstem
        -103 callsubr
        return
      </CharString>
      <CharString index="15">
        -20 hstemhm
        -151 34 130 178 -35 35 52 35 hintmask 1100111101000000
        197 163 rmoveto
        16 -12 5 -17 vhcurveto
        hintmask 1101011101000000
        -28 -13 -13 -51 hhcurveto
        -5 -13 2 8 8 17 11 0 hvcurveto
        0 7 3 5 vvcurveto
        7 -3 -3 1 -3 hhcurveto
        -1 -59 -25 -23 -20 26 -7 31 39 50 14 9 9 hvcurveto
        -45 -130 -86 -18 -14 vhcurveto
        -8 -6 -5 -4 -5 vvcurveto
        -3 4 -1 2 7 10 8 0 vhcurveto
        hintmask 1110011011000000
        21 26 28 2 20 hhcurveto
        24 28 -15 -24 -13 -3 -15 -6 -17 hvcurveto
        -152 -58 -146 -196 -75 38 callsubr
        74 177 211 138 46 vhcurveto
        3 15 15 2 15 -49 callsubr
        -14 -15 -1 -3 -14 vhcurveto
        3 11 1 11 9 vvcurveto
        37 -36 23 -46 -11 -9 -2 -1 -3 vhcurveto
        5 3 106 79 34 vvcurveto
        -314 -530 rmoveto
        56 111 176 144 55 vhcurveto
        -124 -48 -137 -184 -54 34 callsubr
        return
      </CharString>
      <CharString index="16">
        -85 callgsubr
        -9 -21 -42 -16 -29 hhcurveto
        -18 -13 7 18 hvcurveto
        38 99 36 15 vvcurveto
        4 -6 1 -4 vhcurveto
        return
      </CharString>
      <CharString index="17">
        41 328 34 hstem
        -136 42 92 49 482 29 130 41 vstem
        69 -63 rmoveto
        129 149 81 112 124 hvcurveto
        35 -10 23 -18 -43 callsubr
        33 -25 22 -39 12 vhcurveto
        135 129 100 162 121 vvcurveto
        101 -70 73 -178 -249 -368 -192 -148 -65 callsubr
        140 315 150 225 175 67 -67 -94 -113 -97 -150 -125 -121 hvcurveto
        5 -23 -26 2 -28 hhcurveto
        -165 -226 -74 -104 -34 28 -16 43 hvcurveto
        307 204 rmoveto
        24 22 -2 -3 20 hvcurveto
        -104 -114 -133 -75 -105 hhcurveto
        -27 -16 10 23 96 188 55 141 hvcurveto
        return
      </CharString>
      <CharString index="18">
        56 97 rmoveto
        -67 -42 -20 -28 -19 -92 callsubr
        19 callgsubr
        return
      </CharString>
      <CharString index="19">
        -27 callgsubr
        34 7 34 -62 callgsubr
        -27 -5 -9 -28 hvcurveto
        1 3 0 3 3 vvcurveto
        33 -24 25 -61 return
      </CharString>
      <CharString index="20">
        29 27 -94 callgsubr
        return
      </CharString>
      <CharString index="21">
        21 -70 callsubr
        -8 return
      </CharString>
      <CharString index="22">
        52 27 53 36 0 vvcurveto
        -100 callgsubr
        0 -68 -44 -54 -22 vhcurveto
        return
      </CharString>
      <CharString index="23">
        23 22 26 21 7 -3 7 -12 return
      </CharString>
      <CharString index="24">
        -96 callgsubr
        105 -10 rmoveto
        -4 callgsubr
        return
      </CharString>
      <CharString index="25">
        rmoveto
        0 0 -20 22 33 8 54 18 54 -41 42 0 vhcurveto
        73 callgsubr
        1 -1 hhcurveto
        -2 -4 72 callgsubr
        -8 29 -36 -35 -41 -42 -2 -25 vvcurveto
        return
      </CharString>
      <CharString index="26">
        362 15 rmoveto
        0 -16 -1 25 vvcurveto
        30 23 69 99 154 vhcurveto
        97 151 0 49 callsubr
        4 -4 0 -2 vhcurveto
        -17 1 rlineto
        -13 -7 59 callsubr
        -89 -122 rlineto
        return
      </CharString>
      <CharString index="27">
        -86 callsubr
        endchar
      </CharString>
      <CharString index="28">
        -25 -10 6 9 28 89 55 34 5 13 -2 -8 -8 -17 59 callsubr
        0 -7 -3 -5 vvcurveto
        -7 3 3 -1 3 hhcurveto
        return
      </CharString>
      <CharString index="29">
        -20 26 callsubr
        hintmask 11111000
        -89 callgsubr
        hintmask 11110100
        -79 callgsubr
        hintmask 11110010
        -32 callgsubr
        return
      </CharString>
      <CharString index="30">
        -57 -5 -2 4 7 vhcurveto
        491 785 rmoveto
        -102 -234 -219 -45 -41 vhcurveto
        116 191 125 182 27 1 rrcurveto
        2 9 -1 -11 hvcurveto
        -458 -528 rmoveto
        18 39 32 46 12 vhcurveto
        -14 -24 -12 -24 -13 -24 rrcurveto
        -2 -8 -7 -2 -5 hhcurveto
        -18 -8 6 8 hvcurveto
        return
      </CharString>
      <CharString index="31">
        552 -23 callgsubr
        -428 -409 -47 callsubr
        -41 callgsubr
        hvcurveto
        148 -635 -20 callsubr
        hvcurveto
        return
      </CharString>
      <CharString index="32">
        rmoveto
        7 41 28 24 19 -13 9 -20 -66 callsubr
        return
      </CharString>
      <CharString index="33">
        466 470 rmoveto
        61 110 73 118 3 hvcurveto
        31 8 31 4 27 17 callsubr
        -22 -32 -7 -11 -34 vhcurveto
        60 -7 -45 25 -59 hhcurveto
        -125 -186 -117 -159 hvcurveto
        -110 63 -82 -91 vvcurveto
        -16 -2 -15 -2 -14 vhcurveto
        -179 -31 -247 -114 -118 vvcurveto
        -27 27 -13 41 114 222 101 181 47 vhcurveto
        3 20 19 1 17 hhcurveto
        47 32 -10 -24 -17 -30 -17 0 hvcurveto
        -3 48 callsubr
        -5 8 -5 0 vhcurveto
        return
      </CharString>
      <CharString index="34">
        -38 callgsubr
        -8 -6 -10 -12 -11 hvcurveto
        0 -3 -3 66 callgsubr
        2 -4 4 vhcurveto
        return
      </CharString>
      <CharString index="35">
        vvcurveto
        12 -6 10 -16 -80 -169 -261 -233 -128 vhcurveto
        -67 -18 -69 -59 -33 vvcurveto
        -13 11 -8 25 8 13 3 5 14 vhcurveto
        -62 -120 -43 -95 -21 vvcurveto
        -19 7 -8 12 88 172 214 111 9 -1 8 -2 7 vhcurveto
        return
      </CharString>
      <CharString index="36">
        14 -5 17 -25 1 vhcurveto
        -70 -1 -134 -192 -159 -200 rrcurveto
        59 -36 -51 46 -68 hhcurveto
        -66 -32 -36 -47 -55 return
      </CharString>
      <CharString index="37">
        -63 callsubr
        -3 callsubr
        return
      </CharString>
      <CharString index="38">
        31 19 17 13 26 vvcurveto
        35 -39 16 -58 -17 -19 -2 -2 -19 vhcurveto
        2 15 2 15 16 114 -60 109 55 vvcurveto
        163 155 83 111 54 43 -20 -40 10 vhcurveto
        -92 -33 -104 -64 -76 vvcurveto
        -23 16 -11 23 vhcurveto
        -577 -545 rmoveto
        97 221 89 161 27 vhcurveto
        -167 -42 -186 -75 -96 hhcurveto
        -35 -23 10 19 hvcurveto
        570 585 rmoveto
        66 81 53 85 27 vhcurveto
        -90 -2 -101 -75 -43 hhcurveto
        -12 -8 6 13 hvcurveto
        return
      </CharString>
      <CharString index="39">
        189 119 -75 callgsubr
        return
      </CharString>
      <CharString index="40">
        53 135 92 0 return
      </CharString>
      <CharString index="41">
        rmoveto
        -60 callsubr
        -11 -17 -19 -4 return
      </CharString>
      <CharString index="42">
        rmoveto
        -19 hlineto
        -5 -2 2 3 4 4 6 0 hvcurveto
        126 141 192 107 31 callgsubr
        7 callgsubr
        2 1 0 -2 -1 -1 -1 -2 -3 vhcurveto
        0 -99 -140 -77 -116 vhcurveto
        -2 -58 -43 0 -26 hhcurveto
        return
      </CharString>
      <CharString index="43">
        -10 8 -6 19 vhcurveto
        6 28 rmoveto
        20 64 52 82 33 vhcurveto
        -54 -24 -65 -60 -41 hhcurveto
        -11 -5 3 6 hvcurveto
        return
      </CharString>
      <CharString index="44">
        hhcurveto
        14 25 -2 -12 -11 -25 -12 -3 -2 hvcurveto
        -3 -1 -5 -2 66 callgsubr
        4 0 3 3 53 9 37 vhcurveto
        27 -2 -36 4 -25 hhcurveto
        return
      </CharString>
      <CharString index="45">
        hhcurveto
        5 1 3 7 6 vvcurveto
        5 -2 5 -4 1 vhcurveto
        1 -3 -5 1 -5 hhcurveto
        -26 return
      </CharString>
      <CharString index="46">
        425 698 rmoveto
        -41 callsubr
        173 314 316 250 vhcurveto
        return
      </CharString>
      <CharString index="47">
        181 137 151 210 41 hhcurveto
        9 3 -8 -9 -46 -154 -329 -75 -156 hvcurveto
        return
      </CharString>
      <CharString index="48">
        -36 callsubr
        0 -122 -79 -46 -16 -7 2 7 vhcurveto
        24 68 72 3 callsubr
        -128 -105 -14 hhcurveto
        64 callgsubr
        11 21 62 81 28 vvcurveto
        7 -5 7 -10 -13 -73 -69 -26 -45 vhcurveto
        return
      </CharString>
      <CharString index="49">
        20 13 17 14 10 -7 9 -15 return
      </CharString>
      <CharString index="50">
        -12 5 -14 21 -103 callgsubr
        return
      </CharString>
      <CharString index="51">
        46 122 79 0 vhcurveto
        -48 callsubr
        return
      </CharString>
      <CharString index="52">
        rmoveto
        0 -36 -16 -29 -21 -17 8 27 43 100 89 36 8 5 -4 -10 -14 -27 -21 -8 -5 vhcurveto
        -3 48 callsubr
        -4 4 -4 5 1 2 0 1 2 vhcurveto
        return
      </CharString>
      <CharString index="53">
        502 739 rmoveto
        -238 -234 -213 -112 -54 27 -21 40 113 218 169 74 5 -1 3 -3 -4 -1 -2 -9 -2 hvcurveto
        -55 -15 -190 -143 -95 hhcurveto
        -32 -21 16 42 88 218 186 184 106 41 -45 -66 -111 -117 -172 -127 -119 hvcurveto
        1 -9 -11 1 -11 hhcurveto
        return
      </CharString>
      <CharString index="54">
        -82 callgsubr
        86 -10 -82 callgsubr
        endchar
      </CharString>
      <CharString index="55">
        rrcurveto
        49 callgsubr
        -2 vvcurveto
        -2 1 -4 2 -3 vhcurveto
        -6 3 7 -9 21 hhcurveto
        return
      </CharString>
      <CharString index="56">
        rmoveto
        6 -2 2 -3 -2 2 callsubr
        -34 -30 -39 -9 -28 hhcurveto
        -17 -8 6 8 30 94 67 58 24 28 -5 -33 -70 -144 -92 -47 -30 hvcurveto
        1 -1 -184 -122 -40 vvcurveto
        -4 2 -6 8 66 callsubr
        1 4 vhcurveto
        0 78 20 81 38 25 0 -11 33 vhcurveto
        0 6 -3 5 vhcurveto
        return
      </CharString>
      <CharString index="57">
        -22 callgsubr
        -53 -88 rlineto
        8 callsubr
        -5 66 callgsubr
        1 -3 4 7 7 10 0 vhcurveto
        return
      </CharString>
      <CharString index="58">
        -13 -1 -2 -14 -6 vvcurveto
        -7 3 -3 32 return
      </CharString>
      <CharString index="59">
        rmoveto
        -11 -1 -1 -12 -5 vvcurveto
        -6 2 -2 27 69 44 0 5 100 vhcurveto
        11 1 2 10 7 vvcurveto
        return
      </CharString>
      <CharString index="60">
        40 35 295 256 132 -72 callgsubr
        return
      </CharString>
      <CharString index="61">
        2 3 20 callsubr
        10 -16 4 -8 1 vhcurveto
        -7 -7 -11 0 0 -17 -28 -42 -46 hvcurveto
        return
      </CharString>
      <CharString index="62">
        47 -26 19 -30 -22 callsubr
        vhcurveto
        return
      </CharString>
      <CharString index="63">
        rmoveto
        -5 -3 -2 -4 -3 vvcurveto
        -4 3 -3 0 vhcurveto
        103 -90 rlineto
        0 15 4 8 vvcurveto
        3 -3 3 -5 5 vhcurveto
        -66 70 118 return
      </CharString>
      <CharString index="64">
        -58 callsubr
        -12 callgsubr
        return
      </CharString>
      <CharString index="65">
        6 16 -3 -16 hvcurveto
        -27 -2 -40 -15 -28 hhcurveto
        -3 8 callsubr
        -3 3 -2 4 32 55 15 41 3 hvcurveto
        18 -20 5 0 vhcurveto
        return
      </CharString>
      <CharString index="66">
        -95 -112 -180 -93 -35 -15 24 35 95 108 178 98 return
      </CharString>
      <CharString index="67">
        -12 callsubr
        vhcurveto
        6 1 6 3 6 vvcurveto
        return
      </CharString>
      <CharString index="68">
        -9 -35 -10 -34 return
      </CharString>
      <CharString index="69">
        -14 -6 6 10 54 112 81 42 10 6 -5 -10 return
      </CharString>
      <CharString index="70">
        -48 callgsubr
        3 -2 1 -6 vhcurveto
        return
      </CharString>
      <CharString index="71">
        18 callgsubr
        -8 -3 -3 0 hvcurveto
        -1 -5 -38 -40 -47 -35 -17 callsubr
        57 39 rlineto
        26 18 11 13 0 vvcurveto
        return
      </CharString>
      <CharString index="72">
        -21 callgsubr
        144 41 return
      </CharString>
      <CharString index="73">
        rmoveto
        -18 -39 -12 -24 31 callgsubr
        -3 26 -9 37 vhcurveto
        endchar
      </CharString>
      <CharString index="74">
        74 126 152 76 vhcurveto
        0 5 7 6 72 callsubr
        3 -6 -81 -148 -170 -86 -36 21 -15 33 return
      </CharString>
      <CharString index="75">
        -4 callsubr
        -78 -121 -75 -41 -15 17 -11 43 hvcurveto
        return
      </CharString>
      <CharString index="76">
        rmoveto
        -29 -36 -29 -36 -30 -35 rrcurveto
        -79 46 -45 64 45 vvcurveto
        return
      </CharString>
      <CharString index="77">
        -25 -40 41 -32 hhcurveto
        -32 -26 -35 -6 hvcurveto
        return
      </CharString>
      <CharString index="78">
        -20 hstem
        71 120 -44 callgsubr
        69 rlineto
        6 3 4 3 8 vvcurveto
        3 -1 4 -1 4 vhcurveto
        return
      </CharString>
      <CharString index="79">
        rmoveto
        17 callgsubr
        47 callsubr
        vhcurveto
        63 142 rmoveto
        -5 6 -2 6 7 vvcurveto
        10 callsubr
        endchar
      </CharString>
      <CharString index="80">
        495 rmoveto
        69 86 77 67 28 hvcurveto
        10 32 return
      </CharString>
      <CharString index="81">
        0 -1 6 -6 -58 -360 -229 -341 return
      </CharString>
      <CharString index="82">
        -33 callgsubr
        146 222 246 136 52 -33 36 -81 -184 -367 -266 -308 return
      </CharString>
      <CharString index="83">
        437 -21 115 -20 hstem
        207 505 -50 callgsubr
        return
      </CharString>
      <CharString index="84">
        681 rmoveto
        -10 -19 -404 -709 -7 -12 rrcurveto
        -85 callsubr
        420 746 2 4 4 32 callsubr
        return
      </CharString>
      <CharString index="85">
        rmoveto
        2 4 20 callsubr
        7 -5 9 -7 -9 -6 -10 0 vhcurveto
        return
      </CharString>
      <CharString index="86">
        hstemhm
        0 42 123 37 -37 248 return
      </CharString>
      <CharString index="87">
        103 -54 28 349 23 149 241 -25 25 return
      </CharString>
      <CharString index="88">
        449 108 rmoveto
        16 callsubr
        289 333 250 161 66 26 -30 -43 -121 -203 -230 -106 -25 -16 12 28 hvcurveto
        return
      </CharString>
      <CharString index="89">
        -11 -31 -27 -23 vvcurveto
        -43 callgsubr
        10 3 10 1 3 vhcurveto
        return
      </CharString>
      <CharString index="90">
        -160 vvcurveto
        -54 43 -6 18 120 202 231 0 vhcurveto
        return
      </CharString>
      <CharString index="91">
        79 callgsubr
        -13 -21 -25 -6 -26 hhcurveto
        -12 hlineto
        -40 -35 -45 -30 -30 hhcurveto
        -19 -12 12 28 24 16 36 27 33 hvcurveto
        -3 8 -1 9 10 vvcurveto
        48 52 38 43 vhcurveto
        return
      </CharString>
      <CharString index="92">
        425 698 rmoveto
        -6 -6 -3 -6 -1 vhcurveto
        -145 -48 -226 -228 -274 vvcurveto
        -94 38 -39 56 149 272 279 254 65 -25 27 -38 vhcurveto
        return
      </CharString>
      <CharString index="93">
        rmoveto
        -46 callsubr
        4 -3 return
      </CharString>
      <CharString index="94">
        -20 hstemhm
        -227 30 240 47 220 43 return
      </CharString>
      <CharString index="95">
        0 -135 -92 -53 -21 -5 14 12 return
      </CharString>
      <CharString index="96">
        -14 -5 vhcurveto
        -14 -5 -6 -10 0 vvcurveto
        return
      </CharString>
      <CharString index="97">
        -20 hstem
        74 39 rmoveto
        -8 -10 -9 -13 hvcurveto
        -10 7 -8 -13 -57 -85 -10 -9 vvcurveto
        -3 2 -3 3 vhcurveto
        0 109 12 9 96 vhcurveto
        0 0 27 -27 vhcurveto
        return
      </CharString>
      <CharString index="98">
        -14 -11 -20 0 vhcurveto
        return
      </CharString>
      <CharString index="99">
        -30 13 -19 32 vhcurveto
        312 499 42 callgsubr
        rrcurveto
        147 38 192 258 63 37 callsubr
        return
      </CharString>
      <CharString index="100">
        -26 callsubr
        -8 -5 2 8 vhcurveto
        return
      </CharString>
      <CharString index="101">
        -17 11 -14 20 25 31 29 26 19 -12 15 -20 -37 -18 -42 -16 vhcurveto
        return
      </CharString>
      <CharString index="102">
        hlineto
        -49 callgsubr
        vhcurveto
        return
      </CharString>
      <CharString index="103">
        -39 callgsubr
        -39 callsubr
        return
      </CharString>
      <CharString index="104">
        -1 rrcurveto
        -16 -2 -5 -2 0 return
      </CharString>
      <CharString index="105">
        -57 31 -22 46 121 219 151 46 2 -3 5 -4 -6 -8 33 callgsubr
        -42 -28 18 38 return
      </CharString>
      <CharString index="106">
        -126 -5 callgsubr
        95 hlineto
        return
      </CharString>
      <CharString index="107">
        0 117 104 97 119 vhcurveto
        1 return
      </CharString>
      <CharString index="108">
        6 callgsubr
        690 28 return
      </CharString>
      <CharString index="109">
        1 callsubr
        2 -2 2 -4 vhcurveto
        return
      </CharString>
      <CharString index="110">
        83 86 75 66 23 41 callsubr
        1 5 8 1 hvcurveto
        6 -6 6 0 vhcurveto
        3 -14 -13 1 return
      </CharString>
      <CharString index="111">
        -102 -190 -196 -153 -52 21 -22 30 42 59 43 69 44 hvcurveto
        0 4 8 5 1 1 0 -1 1 vhcurveto
        return
      </CharString>
      <CharString index="112">
        10 -9 9 -9 -5 -5 -6 -25 -9 vhcurveto
        return
      </CharString>
      <CharString index="113">
        218 -47 -21 85 -21 return
      </CharString>
      <CharString index="114">
        4 2 3 return
      </CharString>
      <CharString index="115">
        rmoveto
        36 84 92 69 17 vhcurveto
        -14 -30 -10 -30 -7 -25 rrcurveto
        -45 -47 -40 -30 -18 hhcurveto
        -12 -5 6 9 hvcurveto
        return
      </CharString>
      <CharString index="116">
        -6 callgsubr
        51 39 rmoveto
        11 6 -8 -11 return
      </CharString>
      <CharString index="117">
        40 -40 25 -21 23 vhcurveto
        9 10 10 10 9 11 rrcurveto
        return
      </CharString>
      <CharString index="118">
        rlineto
        -6 -3 -4 -3 -8 vvcurveto
        -3 1 -4 1 -4 vhcurveto
        return
      </CharString>
      <CharString index="119">
        -3 59 -2 rrcurveto
        31 2 17 7 23 vvcurveto
        7 -13 -2 return
      </CharString>
      <CharString index="120">
        hvcurveto
        -13 -7 -2 -4 -2 vvcurveto
        -1 1 -1 0 vhcurveto
        -3 2 3 -1 3 hhcurveto
        8 10 7 0 hvcurveto
        return
      </CharString>
      <CharString index="121">
        rmoveto
        41 1 38 1 49 3 rrcurveto
        2 callgsubr
        -126 hlineto
        return
      </CharString>
      <CharString index="122">
        -43 20 -13 22 29 34 23 15 2 -1 0 -2 vhcurveto
        -5 -24 -15 -13 hhcurveto
        -26 0 23 12 return
      </CharString>
      <CharString index="123">
        80 34 hvcurveto
        1 2 0 2 1 vvcurveto
        50 callgsubr
        -1 -4 -11 -11 0 vhcurveto
        -99 -93 -152 return
      </CharString>
      <CharString index="124">
        27 54 20 40 5 vhcurveto
        2 -7 2 -8 -10 vvcurveto
        return
      </CharString>
      <CharString index="125">
        2 6 callsubr
        6 -6 4 -8 1 vhcurveto
        return
      </CharString>
      <CharString index="126">
        -1 -11 -9 -1 -8 hhcurveto
        return
      </CharString>
      <CharString index="127">
        hstemhm
        -5 39 0 151 return
      </CharString>
      <CharString index="128">
        -109 -126 -110 -152 -143 -57 66 78 109 111 127 170 return
      </CharString>
      <CharString index="129">
        -5 -8 0 return
      </CharString>
      <CharString index="130">
        -2 -36 71 callsubr
        return
      </CharString>
      <CharString index="131">
        64 callsubr
        -11 -27 -7 -12 -5 vhcurveto
        return
      </CharString>
      <CharString index="132">
        2 32 callsubr
        return
      </CharString>
      <CharString index="133">
        6 -8 23 -10 -21 193 22 return
      </CharString>
      <CharString index="134">
        22 27 16 21 hvcurveto
        return
      </CharString>
      <CharString index="135">
        rmoveto
        50 callgsubr
        return
      </CharString>
      <CharString index="136">
        0 5 8 8 vhcurveto
        13 -4 10 -1 -5 vvcurveto
        -2 -2 -4 -4 -6 vhcurveto
        -20 -27 return
      </CharString>
      <CharString index="137">
        rmoveto
        -14 -6 6 10 30 63 64 107 13 hvcurveto
        -57 -24 -79 -66 -47 hhcurveto
        endchar
      </CharString>
      <CharString index="138">
        0 vvcurveto
        0 return
      </CharString>
      <CharString index="139">
        50 callsubr
        -38 1 hvcurveto
        -28 hlineto
        return
      </CharString>
      <CharString index="140">
        -13 0 vhcurveto
        -96 -89 -120 -56 -75 hhcurveto
        return
      </CharString>
      <CharString index="141">
        -90 -19 33 187 26 return
      </CharString>
      <CharString index="142">
        -20 hstemhm
        hintmask 10100000
        return
      </CharString>
      <CharString index="143">
        -3 callgsubr
        -31 callsubr
        return
      </CharString>
      <CharString index="144">
        -69 -25 28 94 23 98 21 return
      </CharString>
      <CharString index="145">
        13 30 579 37 return
      </CharString>
      <CharString index="146">
        -67 -76 -78 -46 -54 hhcurveto
        -28 -11 6 10 32 122 68 89 hvcurveto
        return
      </CharString>
      <CharString index="147">
        -100 callgsubr
        -26 callsubr
        return
      </CharString>
      <CharString index="148">
        -2 rlinecurve
        -8 59 callgsubr
        -8 vvcurveto
        -4 return
      </CharString>
      <CharString index="149">
        rmoveto
        -9 -103 -228 -225 -69 -55 return
      </CharString>
      <CharString index="150">
        -9 -5 rrcurveto
        0 237 361 178 vvcurveto
        58 -26 39 -67 return
      </CharString>
      <CharString index="151">
        48 callgsubr
        33 15 38 21 35 19 rrcurveto
        return
      </CharString>
      <CharString index="152">
        158 -140 36 250 25 299 21 246 30 return
      </CharString>
      <CharString index="153">
        14 -8 -14 8 hvcurveto
        -31 -15 -28 -15 -25 -10 rrcurveto
        endchar
      </CharString>
      <CharString index="154">
        38 107 35 93 38 216 42 return
      </CharString>
      <CharString index="155">
        rmoveto
        33 42 90 59 108 vhcurveto
        return
      </CharString>
      <CharString index="156">
        -1 -1 -1 -1 return
      </CharString>
      <CharString index="157">
        2 -1 1 return
      </CharString>
      <CharString index="158">
        -11 16 -20 10 -32 1 25 41 1 1 2 2 rrcurveto
        return
      </CharString>
      <CharString index="159">
        vvcurveto
        -14 6 -8 12 78 99 155 184 100 vhcurveto
        return
      </CharString>
      <CharString index="160">
        hstem
        -140 38 461 42 vstem
        368 25 rmoveto
        return
      </CharString>
      <CharString index="161">
        rlineto
        0 -13 -2 -15 vvcurveto
        -4 6 -6 9 -9 vhcurveto
        return
      </CharString>
      <CharString index="162">
        341 360 229 58 6 1 -6 0 vhcurveto
        return
      </CharString>
      <CharString index="163">
        vvcurveto
        82 callgsubr
        -4 -16 -4 -28 1 vhcurveto
        endchar
      </CharString>
      <CharString index="164">
        vhcurveto
        -7 callsubr
        return
      </CharString>
      <CharString index="165">
        83 257 -21 87 -20 hstem
        return
      </CharString>
      <CharString index="166">
        -1 -3 -3 return
      </CharString>
      <CharString index="167">
        3 3 1 return
      </CharString>
      <CharString index="168">
        6 -16 42 -13 -21 34 151 0 22 0 return
      </CharString>
      <CharString index="169">
        145 179 95 142 54 -29 35 0 return
      </CharString>
      <CharString index="170">
        rlineto
        11 5 6 6 13 vvcurveto
        14 vlineto
        endchar
      </CharString>
      <CharString index="171">
        -1 -1 1 0 hvcurveto
        return
      </CharString>
      <CharString index="172">
        vvcurveto
        19 -6 8 -13 return
      </CharString>
      <CharString index="173">
        -4 vvcurveto
        -3 return
      </CharString>
      <CharString index="174">
        236 -95 95 hstemhm
        607 30 hintmask 10101000
        return
      </CharString>
      <CharString index="175">
        -10 0 -13 6 6 12 21 12 2 vhcurveto
        return
      </CharString>
      <CharString index="176">
        hstemhm
        -21 26 86 32 128 39 20 39 return
      </CharString>
      <CharString index="177">
        22 callgsubr
        hvcurveto
        return
      </CharString>
      <CharString index="178">
        4 -6 1 -6 -7 -7 -1 0 vhcurveto
        return
      </CharString>
      <CharString index="179">
        -1 -2 hvcurveto
        return
      </CharString>
      <CharString index="180">
        1 -1 -1 return
      </CharString>
      <CharString index="181">
        -125 -74 -155 -3 -13 hhcurveto
        return
      </CharString>
      <CharString index="182">
        79 141 -21 324 -20 hstem
        return
      </CharString>
      <CharString index="183">
        hhcurveto
        4 1 -5 -5 hvcurveto
        endchar
      </CharString>
      <CharString index="184">
        -1 49 callgsubr
        return
      </CharString>
      <CharString index="185">
        434 206 rmoveto
        return
      </CharString>
      <CharString index="186">
        220 70 rmoveto
        return
      </CharString>
      <CharString index="187">
        -3 -2 vvcurveto
        return
      </CharString>
      <CharString index="188">
        7 vvcurveto
        28 return
      </CharString>
      <CharString index="189">
        2 -1 2 return
      </CharString>
</ttFont>
